<svg xmlns="http://www.w3.org/2000/svg" width="45.66" height="42.16" viewBox="0 0 45.66 42.16" fill="#fff"><path d="M221,158.3a4.94,4.94,0,1,1,4.94-4.94A4.94,4.94,0,0,1,221,158.3Zm0-8.23a3.3,3.3,0,1,0,3.3,3.29A3.3,3.3,0,0,0,221,150.07Z" transform="translate(-180.23 -148.42)"/><path d="M220.58,187l-.16,0-.15,0-.15-.08-.12-.1a1.19,1.19,0,0,1-.18-.27.88.88,0,0,1,0-.15.92.92,0,0,1,0-.16.81.81,0,0,1,0-.16.75.75,0,0,1,0-.16,1.19,1.19,0,0,1,.18-.27l.12-.1.15-.07.15-.05a.86.86,0,0,1,.32,0l.16.05.14.07.12.1a.69.69,0,0,1,.11.13.61.61,0,0,1,.07.14.75.75,0,0,1,0,.16.81.81,0,0,1,0,.16.92.92,0,0,1,0,.16.88.88,0,0,1,0,.15.61.61,0,0,1-.07.14.69.69,0,0,1-.11.13.58.58,0,0,1-.12.1l-.14.08-.16,0Z" transform="translate(-180.23 -148.42)"/><path d="M225.07,181.79h-1.53v-9.17l.25.18a.87.87,0,0,0,.49.16.84.84,0,0,0,.37-.09.81.81,0,0,0,.45-.73v-4.51a.81.81,0,0,0-.34-.67l-11.26-8.27a.83.83,0,0,0-1,0l-4.95,3.64-2.28-1.68a.84.84,0,0,0-1,0L202,162.33l-4.94-3.64a.84.84,0,0,0-1,0L184.86,167a.84.84,0,0,0-.34.67v4.51a.82.82,0,0,0,.46.73.8.8,0,0,0,.85-.07l.25-.18v9.17h-1.52a.83.83,0,0,0-.83.82v7.15a.83.83,0,0,0,.83.82h40.51a.82.82,0,0,0,.82-.82v-7.15A.82.82,0,0,0,225.07,181.79Zm-3.17-10.38v10.38h-6.56v-7.21l.25.18h.08l0,0h0a.83.83,0,0,0,.6,0h.11a.84.84,0,0,0,.45-.74v-4.5a.84.84,0,0,0-.34-.67L212,165.6l1-.71Zm-15.22,14H203v-4.91h3.73Zm.82-6.56h-5.38a.83.83,0,0,0-.82.83v5.73h-5.37v-12l8.88-6.53,8.88,6.53v12h-5.36v-5.73A.83.83,0,0,0,207.5,178.8ZM213,160.38,223.45,168v2.47l-9.95-7.31a.82.82,0,0,0-.9,0l-.07,0-1.88,1.38L209,163.35Zm-8.21,2L215.25,170v2.47l-.25-.18-9.7-7.13-.07,0a.84.84,0,0,0-.84,0l-.07,0-9.7,7.13-.25.18V170ZM186.17,168l10.44-7.66,4,3L199,164.58l-1.87-1.38a.84.84,0,0,0-1,0l-10,7.31Zm1.56,3.37,8.88-6.53,1,.72-4.52,3.32h0a.79.79,0,0,0-.31.52v4.64a.82.82,0,0,0,.45.74h0a.82.82,0,0,0,.3.07.78.78,0,0,0,.55-.15l.25-.18v7.21h-6.56Zm6.56,12v1.92h-8.91v-1.92Zm30,5.5H185.38V187h31.87a.83.83,0,0,0,0-1.65h-1.91v-1.92h8.91Z" transform="translate(-180.23 -148.42)"/><path d="M182,160.41a3.43,3.43,0,0,1,3.32-2.6,2.81,2.81,0,0,1,.5,0,.81.81,0,0,0,.85-.45,5,5,0,0,1,4.5-2.78,5.05,5.05,0,0,1,4.07,2.07.81.81,0,0,0,.95.29,3.89,3.89,0,0,1,1.36-.24,4,4,0,0,1,3.95,3.67h-.35l.91.67,1.08-.78a5.62,5.62,0,0,0-5.59-5.21,5.55,5.55,0,0,0-1.35.17,6.67,6.67,0,0,0-10.73.91,5.07,5.07,0,0,0-5.22,5.06.83.83,0,0,0,.83.83h8.79l2.24-1.65Z" transform="translate(-180.23 -148.42)"/><path d="M204.81,177.08a3.57,3.57,0,1,1,3.57-3.57A3.57,3.57,0,0,1,204.81,177.08Zm0-5.48a1.92,1.92,0,1,0,1.92,1.91A1.92,1.92,0,0,0,204.81,171.6Z" transform="translate(-180.23 -148.42)"/></svg>