<svg xmlns="http://www.w3.org/2000/svg" width="20" height="26" viewBox="0 0 20 26" fill="#fff"><path d="M414.9,177.56l-3.49,6.18-.84,1.49h4.28L404.72,200l3.3-9.31.47-1.34h-4.37l2.78-11.76h8m.44-1h-8.67a.73.73,0,0,0-.7.58l-2.89,12.24a.79.79,0,0,0,.14.65.67.67,0,0,0,.56.29h3.3l-4,11.21a.77.77,0,0,0,.33.94.71.71,0,0,0,.93-.22l11.55-16.81a.77.77,0,0,0,.06-.79.71.71,0,0,0-.64-.42h-3.06l3.68-6.51a.81.81,0,0,0,0-.77.72.72,0,0,0-.63-.39Z" transform="translate(-403.06 -176.56)"/><path d="M422.34,184.23h-3.06l3.68-6.51a.81.81,0,0,0,0-.77.72.72,0,0,0-.63-.39h-4.93a2.14,2.14,0,0,1,.12,1h4.37l-3.49,6.18-.84,1.49h4.29L411.72,200l3.3-9.31.47-1.34h-.42l-1.32,1.93-3.64,10.28a.79.79,0,0,0,.33.94.73.73,0,0,0,.35.09.71.71,0,0,0,.58-.31l11.55-16.81a.77.77,0,0,0,.06-.79A.71.71,0,0,0,422.34,184.23Z" transform="translate(-403.06 -176.56)"/></svg>