<svg xmlns="http://www.w3.org/2000/svg" width="17.26" height="25.47" viewBox="0 0 17.26 25.47" fill="#fff"><path d="M351.93,169.72a.42.42,0,0,0,.42.41h3a.41.41,0,0,0,.41-.41.41.41,0,0,0-.41-.41h-3A.41.41,0,0,0,351.93,169.72Z" transform="translate(-342.74 -158.21)"/><path d="M351.37,159.65a2.06,2.06,0,1,0,2.06,2A2.05,2.05,0,0,0,351.37,159.65Zm0,3.29a1.24,1.24,0,1,1,1.24-1.24A1.24,1.24,0,0,1,351.37,162.94Z" transform="translate(-342.74 -158.21)"/><path d="M359.59,160.68h-2.9a.39.39,0,0,0-.23-.24l-2.45-1a3.48,3.48,0,0,0-4.91-.37,4.17,4.17,0,0,0-.36.37l-2.46,1a.4.4,0,0,0-.22.24h-2.9a.41.41,0,0,0-.42.41v1.64a.41.41,0,0,0,.42.41h3a.49.49,0,0,0,.2.13l2.34.64a3.05,3.05,0,0,0,.47.48A4.65,4.65,0,0,0,344.8,169v9.21a.4.4,0,0,0,.12.29l.53.53a.4.4,0,0,0,.29.12h1.19v3.38a1.13,1.13,0,0,0,1.13,1.13h1.62a1.12,1.12,0,0,0,1.13-1.13v-3.38h1.12v3.37a1.14,1.14,0,0,0,1.13,1.13h1.62a1.13,1.13,0,0,0,1.13-1.13v-3.37H357a.45.45,0,0,0,.29-.12l.53-.53a.4.4,0,0,0,.12-.29V169a4.66,4.66,0,0,0-4.35-4.63,3.11,3.11,0,0,0,.48-.48l2.33-.64a.39.39,0,0,0,.2-.13h3a.41.41,0,0,0,.41-.41v-1.64A.41.41,0,0,0,359.59,160.68ZM346,162.32h-2.46v-.82H346Zm.82.24v-1.47l1.22-.5a3.4,3.4,0,0,0,0,2.31Zm3.14,20a.31.31,0,0,1-.31.31h-1.62a.31.31,0,0,1-.3-.31V174.1a.31.31,0,0,1,.3-.31h1.62a.31.31,0,0,1,.31.31Zm5,0a.3.3,0,0,1-.31.3h-1.62a.3.3,0,0,1-.3-.3v-8.46a.3.3,0,0,1,.3-.3h1.62a.3.3,0,0,1,.31.3ZM357.13,169v9l-.29.29h-1v-4.27a1.13,1.13,0,0,0-1.13-1.13h-1.62a1.14,1.14,0,0,0-1.13,1.13v4.27h-1.12V174.1a1.12,1.12,0,0,0-1.13-1.13h-1.62a1.13,1.13,0,0,0-1.13,1.13v4.25h-1l-.29-.29v-9a3.82,3.82,0,0,1,3.83-3.82h3.85A3.83,3.83,0,0,1,357.13,169Zm-3.25-6.39-.37.67a2.67,2.67,0,0,1-3.73.55,2.81,2.81,0,0,1-.54-.55l-.37-.67a2.59,2.59,0,0,1,0-1.86l.27-.54a2.67,2.67,0,0,1,4.46,0l.27.54A2.65,2.65,0,0,1,353.88,162.63Zm2-.07-1.24.34a3.36,3.36,0,0,0,0-2.31l1.21.5Zm3.29-.24h-2.46v-.82h2.46Z" transform="translate(-342.74 -158.21)"/><path d="M349.06,174.91h-.37a.42.42,0,0,0,0,.83h.37a.42.42,0,0,0,0-.83Z" transform="translate(-342.74 -158.21)"/><path d="M349.06,176.91h-.37a.42.42,0,0,0,0,.83h.37a.42.42,0,0,0,0-.83Z" transform="translate(-342.74 -158.21)"/><path d="M349.06,178.91h-.37a.42.42,0,0,0,0,.83h.37a.42.42,0,0,0,0-.83Z" transform="translate(-342.74 -158.21)"/><path d="M349.06,180.91h-.37a.42.42,0,0,0,0,.83h.37a.42.42,0,0,0,0-.83Z" transform="translate(-342.74 -158.21)"/><path d="M354.06,174.91h-.37a.42.42,0,0,0,0,.83h.37a.42.42,0,0,0,0-.83Z" transform="translate(-342.74 -158.21)"/><path d="M354.06,176.91h-.37a.42.42,0,0,0,0,.83h.37a.42.42,0,0,0,0-.83Z" transform="translate(-342.74 -158.21)"/><path d="M354.06,178.91h-.37a.42.42,0,0,0,0,.83h.37a.42.42,0,0,0,0-.83Z" transform="translate(-342.74 -158.21)"/><path d="M354.06,180.91h-.37a.42.42,0,0,0,0,.83h.37a.42.42,0,0,0,0-.83Z" transform="translate(-342.74 -158.21)"/></svg>