<svg xmlns="http://www.w3.org/2000/svg" width="30.97" height="25.48" viewBox="0 0 30.97 25.48" fill="#fff"><path d="M324.09,182.68v-1.9a2.26,2.26,0,1,0-.91,0v1.9h-2.71V158.12H307.74V162l-5.45,4.06v16.62h-2.77v-1.9a2.26,2.26,0,1,0-.91,0v1.9h-2.73v.91h31v-.91Zm-1.8-4.11a1.35,1.35,0,1,1,1.35,1.35A1.35,1.35,0,0,1,322.29,178.57Zm-24.57,0a1.35,1.35,0,1,1,1.35,1.35A1.35,1.35,0,0,1,297.72,178.57Zm5.47-11.34h3.6v-.91h-3.33l4.28-3.19V179h.91V159h10.91v2.74H309.51v.91h10.05v20h-1v-4.54h-9.06v4.54h-.89v-.94h-.91v.94h-4.55Zm14.5,15.45h-7.24v-3.63h7.24Z" transform="translate(-295.88 -158.12)"/><path d="M307.74,179.93h.91v.91h-.91Z" transform="translate(-295.88 -158.12)"/><path d="M304.09,168.14v2.73h2.73v-2.73Zm1.82,1.82H305v-.91h.91Z" transform="translate(-295.88 -158.12)"/><path d="M304.09,174.5h2.73v-2.72h-2.73Zm.91-1.81h.91v.9H305Z" transform="translate(-295.88 -158.12)"/><path d="M304.09,178.14h2.73v-2.73h-2.73Zm.91-1.82h.91v.91H305Z" transform="translate(-295.88 -158.12)"/><path d="M304.09,181.78h2.73v-2.73h-2.73ZM305,180h.91v.91H305Z" transform="translate(-295.88 -158.12)"/><path d="M311.33,165.37h-.88v-.87h7.24v.87h-5.45v.91h6.36v-2.69h-9.06v2.69h1.79Z" transform="translate(-295.88 -158.12)"/><path d="M318.6,167.25h-1.81v.91h.9V169h-7.24v-.87h5.47v-.91h-6.38v2.69h9.06Z" transform="translate(-295.88 -158.12)"/><path d="M318.6,170.85h-6.36v.91h5.45v.93h-7.24v-.93h.88v-.91h-1.79v2.75h9.06Z" transform="translate(-295.88 -158.12)"/><path d="M318.6,174.51h-1.81v.9h.9v.93h-7.24v-.93h5.43v-.9h-6.34v2.74h9.06Z" transform="translate(-295.88 -158.12)"/><path d="M311.83,159.92h.91v.91h-.91Z" transform="translate(-295.88 -158.12)"/><path d="M313.65,159.92h.91v.91h-.91Z" transform="translate(-295.88 -158.12)"/><path d="M315.47,159.92h.91v.91h-.91Z" transform="translate(-295.88 -158.12)"/></svg>