<svg xmlns="http://www.w3.org/2000/svg" width="512" height="344.97" viewBox="0 0 512 344.97" fill="#fff"><path d="M502,408.45H437a69.8,69.8,0,0,0,20.32-40H502a10,10,0,0,0,10-10A136.19,136.19,0,0,0,417.83,229.1v-.25a58.31,58.31,0,0,0-58.25-58.25h-73a24.78,24.78,0,0,0-24.75,24.75v22.42a24.79,24.79,0,0,0,24.75,24.75h6.75l-16.72,70h-77l-35.69-35.57,10.82-141.39H210a26,26,0,0,0,0-52H130a10,10,0,0,0-10,10v12.61A40.35,40.35,0,0,0,94.45,97H79.71a10,10,0,0,0-10,10v61a10,10,0,0,0,10,10H94.45a40.42,40.42,0,0,0,9.46-1.12L84.59,240.5H74a74.1,74.1,0,0,0-74,74,10,10,0,0,0,8.87,9.93,69.79,69.79,0,0,0,12.18,84H10a10,10,0,0,0,0,20H68.85c.38,0,.76,0,1.15,0s.77,0,1.15,0H212.33a10,10,0,0,0,0-20H119A69.67,69.67,0,0,0,135,332.66l32.92,32.9a10,10,0,0,0,7.07,2.92H318.73a69.86,69.86,0,0,0,20.32,40H289.67a10,10,0,0,0,0,20h97.18l1.15,0,1.16,0H502a10,10,0,0,0,0-20ZM286.58,222.52a4.75,4.75,0,0,1-4.75-4.75V195.35a4.75,4.75,0,0,1,4.75-4.75h73a38.32,38.32,0,0,1,37.73,31.92H286.58ZM140,103.52h70a6,6,0,0,1,0,12H140ZM94.45,158.07H89.7V117h4.75a20.49,20.49,0,0,1,19.66,26.36l-.13.43A20.56,20.56,0,0,1,94.45,158.07ZM71.15,408.45h-2.3a50,50,0,0,1-48.85-50,49.39,49.39,0,0,1,13.32-34h73.36a49.39,49.39,0,0,1,13.32,34A50,50,0,0,1,71.15,408.45Zm108-60-41.07-41a10,10,0,0,0-7.07-2.92H20.93A54.1,54.1,0,0,1,74,260.5H92a10,10,0,0,0,9.57-7.09L133,150c.11-.35.22-.71.32-1.06l4.07-13.4h17.3L143.64,280a10,10,0,0,0,2.92,7.84l41.88,41.75a10,10,0,0,0,7.06,2.91h89a10,10,0,0,0,9.73-7.67l19.66-82.29H376a116.11,116.11,0,0,1,115.54,106H479.76A92.43,92.43,0,0,0,388,266.18a10,10,0,0,0,0,20,72.39,72.39,0,0,1,71.59,62.3Zm210,60h-2.3a50.07,50.07,0,0,1-47.84-40h98A50.07,50.07,0,0,1,389.15,408.45Z" transform="translate(0 -83.52)"/><path d="M258.07,411.38a10,10,0,1,0,2.93,7.08A10.07,10.07,0,0,0,258.07,411.38Z" transform="translate(0 -83.52)"/><path d="M70,328.48a30,30,0,1,0,30,30A30,30,0,0,0,70,328.48Zm0,40a10,10,0,1,1,10-10A10,10,0,0,1,70,368.48Z" transform="translate(0 -83.52)"/><path d="M38.59,127.56H10a10,10,0,0,0,0,20H38.59a10,10,0,0,0,0-20Z" transform="translate(0 -83.52)"/><path d="M55.21,162.6a10,10,0,0,0-14.14,0l-10,10a10,10,0,1,0,14.14,14.14l10-10A10,10,0,0,0,55.21,162.6Z" transform="translate(0 -83.52)"/><path d="M55.17,98.28l-10-9.93a10,10,0,1,0-14.14,14.14l10,9.94A10,10,0,0,0,55.17,98.28Z" transform="translate(0 -83.52)"/><path d="M345,287.46a10,10,0,1,0-2.68,14.84,10.87,10.87,0,0,0,1.18-.83h0A10,10,0,0,0,345,287.46Z" transform="translate(0 -83.52)"/></svg>