<svg xmlns="http://www.w3.org/2000/svg" width="33.74" height="31.9" viewBox="0 0 33.74 31.9" fill="#fff"><path d="M367.4,181.45a1.8,1.8,0,0,0-1.8,1.79V189a1.8,1.8,0,0,0,1.8,1.79h2.49v1.36a1.33,1.33,0,0,0,.59,1.09,7.67,7.67,0,0,0-.54,5,6,6,0,0,0-.21,1.34.63.63,0,0,0,.18.48.68.68,0,0,0,.51.19h.47a4.22,4.22,0,0,0,8.34,0h10.33c0,.16.05.33.08.49a.6.6,0,0,0,.28.38.66.66,0,0,0,.48,0L391,201a3.74,3.74,0,0,0,1.54,1.88,3.69,3.69,0,0,0,2,.58,3.61,3.61,0,0,0,.86-.1,3.77,3.77,0,0,0,2.91-4l.7-.17a.49.49,0,0,0,.38-.59,5,5,0,0,0-4.92-3.85l-.75-2.59a.5.5,0,0,0-.61-.34.51.51,0,0,0-.34.62l.79,2.7-3.7,4.14h-.89c1.53-3.6,2.53-7.16.78-12.49h1.4l1,3.39a.48.48,0,0,0,.61.34.5.5,0,0,0,.34-.61l-.91-3.12h.59a.49.49,0,0,0,.5-.49v-2.58a.87.87,0,0,0-.31-.73,1,1,0,0,0-1,0l-3.46,1.14-3-.24-1.23-1.06a8.09,8.09,0,0,0-.25-2.15,3.44,3.44,0,0,0,2.76-3.37,3.66,3.66,0,0,0-.05-.57H387a.49.49,0,0,0,.49-.49,4.19,4.19,0,1,0-8.38,0,4.58,4.58,0,0,0,1.22,3.25,6.7,6.7,0,0,0-2.09,2.52,14.44,14.44,0,0,0-1.36,6.28h0a5.15,5.15,0,0,0,.14,1.54h-2.14v-6.59a1.8,1.8,0,0,0-1.79-1.79ZM393,202.08a2.71,2.71,0,0,1-1.09-1.28l5.36-1.23a2.81,2.81,0,0,1-2.17,2.86h0a2.77,2.77,0,0,1-2.1-.35Zm-2.49-2.14,3.77-4.21a4,4,0,0,1,3.93,2.61l-7.69,1.77C390.54,200.05,390.53,200,390.53,199.94Zm-7.45-8.45a1.21,1.21,0,0,0-1.25-.76h-1.77a2.28,2.28,0,0,1-1.71-.51,2.07,2.07,0,0,1-.45-1.42h4.84c.71.08,2.29.6,2.29,3.49v2.56h-1.81V193a4.56,4.56,0,0,0-.14-1.5Zm2.44,4.35a1.21,1.21,0,0,1,.88.33,1.35,1.35,0,0,1,.34.85h-3.52v-1.18Zm-7.6-8c.22-5.26,2.31-7.11,3.27-7.68a3.9,3.9,0,0,0,1.15.46,3.24,3.24,0,0,0,.62.12,5.43,5.43,0,0,1,.24,1.26,1.77,1.77,0,0,0-1.66-.19,1.75,1.75,0,0,0-1.08,1.43,2,2,0,0,0,1.06,1.88l1.37.89c-.14.64-.3,1.26-.48,1.83ZM383,175.75H383a1,1,0,0,0-1,1.08v2.6a3.37,3.37,0,0,1-1.85-3.19,3.2,3.2,0,0,1,6.38-.49Zm2.74,1.55a2.43,2.43,0,0,1-2.43,2.44h0l-.35,0v-3h2.72a2.22,2.22,0,0,1,.07.57Zm.64,7.64v.85h-2l-2.35-1.53a1.1,1.1,0,0,1-.62-.95.77.77,0,0,1,.47-.61.92.92,0,0,1,.28,0,1,1,0,0,1,.64.26h0l2.11,1.82a.5.5,0,0,0,.28.12l1.17.09Zm2.48.6c0,.11-.05.25-.21.25h-1.28V185l1.1.09A.39.39,0,0,1,388.87,185.54Zm.78-.77h0l2.58-.85v1.87h-2.4a1.52,1.52,0,0,0,0-.21,1.47,1.47,0,0,0-.21-.81Zm-1,2a14.53,14.53,0,0,1,.07,10.24h-1a2.42,2.42,0,0,0-.62-1.53,2,2,0,0,0-1.1-.59v-2.61c0-3.1-1.6-4.06-2.61-4.36.13-.44.26-.9.36-1.37l.23.14a.5.5,0,0,0,.27.08Zm-8.17,12.49a5.48,5.48,0,0,0-1.56-3.38,5.37,5.37,0,0,0-8.17.64,5.84,5.84,0,0,1,.72-3.05h4.63a.5.5,0,1,0,0-1h-4.92a.31.31,0,0,1-.31-.31v-1.36h6.68l.07.08a3.19,3.19,0,0,0,2.43.82h1.77c.28,0,.3.06.32.12a2.47,2.47,0,0,1,.08.65h-3.9a.5.5,0,0,0,0,1h3.9v3.63c0,.59.34.9,1,.9h5.14c-.17.42-.35.84-.53,1.26Zm-5.43,3.6a3.26,3.26,0,0,1-3.17-2.61h6.33a3.25,3.25,0,0,1-3.16,2.61Zm-4.31-3.6a4.41,4.41,0,0,1,.16-.82v0a4.39,4.39,0,0,1,8.58.84h-8.74Zm-4.16-12h7.33v2.55H367.4a.8.8,0,0,1-.81-.8Zm0-2h7.33v1h-7.33Zm0-2a.8.8,0,0,1,.81-.8h5.72a.8.8,0,0,1,.8.8v1h-7.33Z" transform="translate(-365.6 -171.96)"/></svg>