<svg xmlns="http://www.w3.org/2000/svg" width="30.28" height="28.71" viewBox="0 0 30.28 28.71" fill="#fff"><path d="M275.57,220.94l-3.18-1v-1.29a5.18,5.18,0,0,0,2.09-3.77,1.51,1.51,0,0,0,1.06-1.43,1.48,1.48,0,0,0-.53-1.13v-3.07a2.53,2.53,0,0,0-1.12-2.1A2,2,0,0,0,272,205.7h-4.2a4.12,4.12,0,0,0-4.12,4.11v2.55a1.48,1.48,0,0,0-.52,1.13,1.49,1.49,0,0,0,1.06,1.43,5.17,5.17,0,0,0,2.08,3.77V220l-3.81,1.15a2,2,0,0,0-1.43,1.93v5.13a.44.44,0,0,0,.44.44h.08V234a.45.45,0,0,0,.89,0v-5.33h1.73V234a.45.45,0,0,0,.89,0v-8.4a.45.45,0,0,0,0-.2l-1.05-2.1a.44.44,0,0,0-.6-.19.43.43,0,0,0-.2.59l1,2v2.07h-2.26v-4.68a1.12,1.12,0,0,1,.81-1.08l1.59-.48a5.19,5.19,0,0,0,5,4,5.13,5.13,0,0,0,3.37-1.25,5.23,5.23,0,0,0,1.66-2.73l1,.29.13,0a.45.45,0,0,0,.42-.32A.44.44,0,0,0,275.57,220.94ZM265,214.54a.44.44,0,0,0-.44-.44.61.61,0,0,1-.61-.61.6.6,0,0,1,.31-.52s0,0,0,0a.68.68,0,0,1,.28-.07h.67a1,1,0,0,0,.92-.66l.3-.92c1.05,0,4.33-.17,6.18-1.09a.44.44,0,0,0,.2-.59.45.45,0,0,0-.6-.2c-2,1-6.06,1-6.1,1a.44.44,0,0,0-.42.3l-.4,1.22a.09.09,0,0,1-.08.06h-.75v-2.19a3.23,3.23,0,0,1,3.23-3.23H272a1.14,1.14,0,0,1,1.11,1,.42.42,0,0,0,.22.31,1.68,1.68,0,0,1,.85,1.44v3.29a.44.44,0,0,0,.22.39.59.59,0,0,1,.3.52.61.61,0,0,1-.6.61.44.44,0,0,0-.45.44,4.28,4.28,0,0,1-8.56,0Zm6.46,4.68v1.09a2.18,2.18,0,0,1-4.36,0h0v-1.09a5.09,5.09,0,0,0,4.36,0Zm.61,4.34a4.24,4.24,0,0,1-2.79,1,4.3,4.3,0,0,1-4.18-3.35l1.17-.35a3.06,3.06,0,0,0,6,0l1.17.35A4.27,4.27,0,0,1,272.11,223.56Z" transform="translate(-261.01 -205.7)"/><path d="M270.65,215.77a.43.43,0,0,0-.62.06.87.87,0,0,1-1.41,0,.45.45,0,0,0-.63-.06.43.43,0,0,0-.06.62,1.78,1.78,0,0,0,1.39.69,1.82,1.82,0,0,0,1.4-.69A.44.44,0,0,0,270.65,215.77Z" transform="translate(-261.01 -205.7)"/><path d="M267.22,213.05a.44.44,0,0,0-.44.44V214a.45.45,0,1,0,.89,0v-.52A.44.44,0,0,0,267.22,213.05Z" transform="translate(-261.01 -205.7)"/><path d="M271.42,213.05a.44.44,0,0,0-.44.44V214a.45.45,0,1,0,.89,0v-.52A.44.44,0,0,0,271.42,213.05Z" transform="translate(-261.01 -205.7)"/><path d="M284.82,218.39a.44.44,0,0,0-.62.07.87.87,0,0,1-1.41,0,.44.44,0,0,0-.62-.07.46.46,0,0,0-.07.63,1.76,1.76,0,0,0,2.79,0A.46.46,0,0,0,284.82,218.39Z" transform="translate(-261.01 -205.7)"/><path d="M281.39,215.67a.44.44,0,0,0-.44.44v.53a.45.45,0,0,0,.89,0v-.53A.45.45,0,0,0,281.39,215.67Z" transform="translate(-261.01 -205.7)"/><path d="M285.59,215.67a.44.44,0,0,0-.44.44v.53a.45.45,0,0,0,.89,0v-.53A.45.45,0,0,0,285.59,215.67Z" transform="translate(-261.01 -205.7)"/><path d="M290,224.75l-3.6-1.44-.09,0a22.13,22.13,0,0,0,3.63-1,.44.44,0,0,0,.27-.47,76.45,76.45,0,0,1-.52-7.82,6.22,6.22,0,0,0-12.43,0,76.45,76.45,0,0,1-.52,7.82.44.44,0,0,0,.27.47,22.13,22.13,0,0,0,3.63,1l-.09,0-3.6,1.44a2,2,0,0,0-1.27,1.88v1.11h-1.21v-2.07l1-2a.44.44,0,0,0-.79-.4l-1.05,2.1a.46.46,0,0,0,0,.2V234a.45.45,0,0,0,.89,0v-5.33h1.21v.61a.46.46,0,0,0,.13.31.48.48,0,0,0,.32.13h.08V234a.44.44,0,0,0,.44.44.44.44,0,0,0,.44-.44v-4.28h1.22V234a.44.44,0,0,0,.44.44.44.44,0,0,0,.44-.44v-5.77a.44.44,0,0,0-.44-.45.45.45,0,0,0-.44.45v.6h-1.74v-2.16a1.12,1.12,0,0,1,.71-1l1.77-.71a4.65,4.65,0,0,0,8.85,0l1.77.71a1.12,1.12,0,0,1,.71,1v2.16h-1.74v-.6a.45.45,0,1,0-.89,0V234a.45.45,0,0,0,.89,0v-4.28h1.21V234a.45.45,0,0,0,.89,0v-4.28h.08a.45.45,0,0,0,.45-.44v-2.61A2,2,0,0,0,290,224.75ZM278.16,214a5.33,5.33,0,0,1,10.66,0,75.28,75.28,0,0,0,.49,7.58,24.7,24.7,0,0,1-3.27.83v-.76a5.43,5.43,0,0,0,.7-.48,5.11,5.11,0,0,0,1.79-2.87,4.89,4.89,0,0,0,.13-1.15c0-2.58-1.87-2.95-3.68-3.31a7.44,7.44,0,0,1-3.31-1.23.41.41,0,0,0-.37-.09.45.45,0,0,0-.3.24,5.35,5.35,0,0,1-.67,1,2.29,2.29,0,0,1-1.56.88,1.51,1.51,0,0,0-.61.13Zm5.33,7.43a4.14,4.14,0,0,1-2.68-.95,4.24,4.24,0,0,1-1.49-2.38,4.33,4.33,0,0,1-.11-1,.44.44,0,0,0-.44-.44.61.61,0,1,1,0-1.21,3.66,3.66,0,0,0,2.76-1.9,9.31,9.31,0,0,0,3.28,1.11c1.95.39,3,.67,3,2.44a4.32,4.32,0,0,1-.1,1,4.24,4.24,0,0,1-1.49,2.38A4.19,4.19,0,0,1,283.49,221.44Zm-5.81.15c.08-.69.25-2.31.37-4.17a1.48,1.48,0,0,0,.29.12,6.49,6.49,0,0,0,.11.77,5.18,5.18,0,0,0,1.8,2.87,5.43,5.43,0,0,0,.7.48v.76A24.26,24.26,0,0,1,277.68,221.59Zm5.81,5.63a3.75,3.75,0,0,1-3.59-2.68l1-.4a1.49,1.49,0,0,0,.94-1.39v-.69a5.21,5.21,0,0,0,3.31,0v.69a1.49,1.49,0,0,0,.94,1.39l1,.4A3.76,3.76,0,0,1,283.49,227.22Z" transform="translate(-261.01 -205.7)"/></svg>