<svg xmlns="http://www.w3.org/2000/svg" width="77.28" height="48.48" viewBox="0 0 77.28 48.48" fill="#fff"><path d="M278.68,97.27a1.13,1.13,0,0,0-1.55-.4,1.12,1.12,0,0,0-.4,1.54,10.19,10.19,0,1,1-19,5.16,10.08,10.08,0,0,1,.88-4.13l3,2.86a6,6,0,0,0-.13,1.27,6.44,6.44,0,1,0,6.44-6.44,6.54,6.54,0,0,0-1.59.2l-3-2.86a10.19,10.19,0,0,1,11.19,1.34,1.17,1.17,0,0,0,.74.27,1.1,1.1,0,0,0,.86-.4,1.12,1.12,0,0,0-.13-1.59,12.44,12.44,0,0,0-14.39-1.26l-1.39-1.32a14.14,14.14,0,0,1,9.24-1.67,1.13,1.13,0,0,0,.92-.26l3.57-3.1a4.52,4.52,0,0,0,1.27-1.79c.95-2.45,1-7.08-.82-9.16-5-5.7-12.4-8.51-20.85-7.9a2.81,2.81,0,0,0-2.2,4.24l.49.83L253.14,75a8.15,8.15,0,0,1,.73,3.67,12.54,12.54,0,0,0-18.54,2.16h-8.14a2.85,2.85,0,0,1-1.77-.62l-8.28-6.66a1.14,1.14,0,0,0-.71-.25h-6.77a3.41,3.41,0,0,0-2,6.18l2.43,1.75a1.14,1.14,0,0,0,1.33-1.84L209,77.61a1.15,1.15,0,0,1,.67-2.08H216l8,6.41a5.12,5.12,0,0,0,3.19,1.12h8.57l7.33,2.8,4,1.55a12.22,12.22,0,0,1-7.35,2.49h-2.49a7,7,0,0,0-6.12,3.63l-1.87-1.34h0l-14.8-10.63a1.13,1.13,0,1,0-1.32,1.84L226.59,93l-2.44,1.5a12.48,12.48,0,1,0,3.48,5.91l2.68-1.65v8.49a5.87,5.87,0,0,0,5.87,5.86h18.1a1.13,1.13,0,0,0,1-1.73,14.17,14.17,0,0,1,0-15.18l1.65,1.56a12.45,12.45,0,1,0,21.78-.53Zm-6.57,6.3a4.17,4.17,0,0,1-8.26.84l1.72,1.64a3.43,3.43,0,1,0,4.73-5l-1.72-1.64A4.18,4.18,0,0,1,272.11,103.57Zm1-26a9.52,9.52,0,0,1,0,6.38,3.23,3.23,0,0,1,0-6.38Zm-27.52.15a10.19,10.19,0,0,1,7.76,3.55,9.45,9.45,0,0,1-4,4.51l-9.45-3.6-2.15-.83a10.23,10.23,0,0,1,7.83-3.63Zm-15.17,18c0,.11,0,.23,0,.35l-10.06,6.19h0l-3.39,2.08a1.17,1.17,0,0,1-1.6-.39,1.12,1.12,0,0,1-.12-.91,1.16,1.16,0,0,1,.53-.7l3.55-2.18h0L224.54,97h0l4-2.48Zm-17,9.41a3.45,3.45,0,0,0,2.94,1.65,3.49,3.49,0,0,0,1.78-.49l1.13-.7a4.17,4.17,0,1,1-3.62-6.25,4.07,4.07,0,0,1,.61,0l-1.67,1a3.39,3.39,0,0,0-1.54,2,3.46,3.46,0,0,0,.37,2.68Zm12.42-1.61a10.2,10.2,0,1,1-3.63-7.79l-3.48,2.14a6.33,6.33,0,0,0-3.08-.79,6.44,6.44,0,1,0,6.43,6.78l3.59-2.21a10.66,10.66,0,0,1,.17,1.87Zm26.6,7.32H236.18a3.61,3.61,0,0,1-3.61-3.6V96.87a4.72,4.72,0,0,1,4-4.64c2-.34,6.54.87,11.59-2.75,3.57-2.55,6.81-4.19,7.81-9a10.38,10.38,0,0,0-.35-5.53l-1.08-2.26-1.19-2a.55.55,0,0,1,.42-.82c7.06-.51,13.29,1.56,17.75,5.84a5.5,5.5,0,0,0-.17,10.06l-2,1.74a16.13,16.13,0,0,0-2.08-.13,16.45,16.45,0,0,0-14.86,23.49Zm6-18.08,2.38,2.27h0l8,7.64a1.17,1.17,0,0,1,.36.82,1.13,1.13,0,0,1-.32.83,1.17,1.17,0,0,1-1.65,0l-8-7.64h0l-2.46-2.35A14.3,14.3,0,0,1,258.32,92.81Z" transform="translate(-203.12 -67.55)"/><path d="M241.75,104.57H238.5a1.13,1.13,0,1,0,0,2.26h3.25a1.13,1.13,0,1,0,0-2.26Z" transform="translate(-203.12 -67.55)"/></svg>