<svg xmlns="http://www.w3.org/2000/svg" viewBox="0 0 20 13"><polygon points="19 6 19 5 18 5 18 6 0 6 0 7 18 7 18 8 19 8 19 7 20 7 20 6 19 6"/><rect x="17" y="4" width="1" height="1"/><rect x="16" y="3" width="1" height="1"/><rect x="15" y="2" width="1" height="1"/><rect x="14" y="1" width="1" height="1"/><rect x="13" width="1" height="1"/><rect x="17" y="8" width="1" height="1"/><rect x="16" y="9" width="1" height="1"/><rect x="15" y="10" width="1" height="1"/><rect x="14" y="11" width="1" height="1"/><rect x="13" y="12" width="1" height="1"/></svg>