<svg xmlns="http://www.w3.org/2000/svg" viewBox="0 0 42.5 29.49"><path d="M676.67,34V30.37a2.29,2.29,0,0,0-2.28-2.28H649a2.29,2.29,0,0,0-2.28,2.28V49.43A2.28,2.28,0,0,0,649,51.71h2a4.87,4.87,0,0,0,9.54,0h13.82a1.5,1.5,0,0,0,.37,0,4.87,4.87,0,0,0,9.55,0h3.24a1.7,1.7,0,0,0,1.7-1.7v-3.4A12.62,12.62,0,0,0,676.67,34ZM658.48,51.71a2.86,2.86,0,0,1-5.37,0,2.74,2.74,0,0,1-.19-1,2.82,2.82,0,0,1,.19-1,2.86,2.86,0,0,1,5.37,0,2.82,2.82,0,0,1,.19,1A2.74,2.74,0,0,1,658.48,51.71Zm16.19-16V49.43a.28.28,0,0,1-.28.28H660.57a4.87,4.87,0,0,0-9.54,0h-2a.28.28,0,0,1-.28-.28V30.37a.29.29,0,0,1,.28-.28h25.36a.29.29,0,0,1,.28.28Zm2,.29A10.59,10.59,0,0,1,685,40h-8.28Zm5.56,15.72a2.86,2.86,0,0,1-5.37,0,2.74,2.74,0,0,1-.19-1,2.82,2.82,0,0,1,.19-1,2.86,2.86,0,0,1,5.37,0,3.06,3.06,0,0,1,.19,1A3,3,0,0,1,682.23,51.71Zm5-2h-2.94a4.87,4.87,0,0,0-4.77-3.87,4.78,4.78,0,0,0-2.87,1V42h9.53a10.65,10.65,0,0,1,1,4.58Z" transform="translate(-646.75 -28.09)"/><path d="M658,33.17h-4.46a1,1,0,0,0,0,2H658a1,1,0,0,0,0-2Z" transform="translate(-646.75 -28.09)"/><path d="M658,37.17h-4.46a1,1,0,0,0,0,2H658a1,1,0,0,0,0-2Z" transform="translate(-646.75 -28.09)"/><path d="M688.25,55.59h-40.5a1,1,0,0,0,0,2h40.5a1,1,0,0,0,0-2Z" transform="translate(-646.75 -28.09)"/></svg>