<svg xmlns="http://www.w3.org/2000/svg" viewBox="0 0 32.71 29.49"><path d="M731.41,28.09H706.13a3.72,3.72,0,0,0-3.71,3.72V53.88a3.71,3.71,0,0,0,3.71,3.71h25.28a3.72,3.72,0,0,0,3.72-3.71V31.81A3.73,3.73,0,0,0,731.41,28.09Zm-11,27.5H706.13a1.72,1.72,0,0,1-1.71-1.71V31.81a1.72,1.72,0,0,1,1.71-1.72h20.28a1.71,1.71,0,0,1,1.71,1.72V37.6h-5.54a5.25,5.25,0,1,0,0,10.49h5.54v5.79a1.71,1.71,0,0,1-1.71,1.71Zm7.7-9.5h-5.54a3.25,3.25,0,1,1,0-6.49h5.54Zm5,7.79a1.72,1.72,0,0,1-1.72,1.71h-1.72a3.67,3.67,0,0,0,.43-1.71V31.81a3.71,3.71,0,0,0-.43-1.72h1.72a1.72,1.72,0,0,1,1.72,1.72Z" transform="translate(-702.42 -28.09)"/><circle cx="19.85" cy="14.75" r="1"/></svg>