<svg xmlns="http://www.w3.org/2000/svg" viewBox="0 0 22.33 29.5"><path d="M631.86,40.86a7.87,7.87,0,0,0-6.16-12.77,7.86,7.86,0,0,0-6.16,12.77,11.16,11.16,0,0,0-5,9.31v5.34a2.09,2.09,0,0,0,2.08,2.09h18.17a2.09,2.09,0,0,0,2.08-2.09V50.17A11.17,11.17,0,0,0,631.86,40.86Zm-12-4.89a5.88,5.88,0,1,1,11.75,0,5.88,5.88,0,0,1-8.27,5.36,6,6,0,0,1-2-1.44A5.87,5.87,0,0,1,619.82,36Zm15,19.54a.09.09,0,0,1-.08.09H631.7V48.3a1,1,0,1,0-2,0v7.3h-8V48.3a1,1,0,1,0-2,0v7.3h-3.09a.09.09,0,0,1-.08-.09V50.17a9.17,9.17,0,0,1,4.5-7.88,7.81,7.81,0,0,0,9.34,0,9.18,9.18,0,0,1,4.49,7.88Z" transform="translate(-614.53 -28.09)"/></svg>