<svg xmlns="http://www.w3.org/2000/svg" viewBox="0 0 23.98 29.5"><path d="M504.34,28.09h-13.4a1,1,0,0,0-.71.3l-7.17,7.17a1,1,0,0,0-.29.75V55.19a2.41,2.41,0,0,0,2.41,2.4h19.16a2.41,2.41,0,0,0,2.41-2.4V30.5A2.41,2.41,0,0,0,504.34,28.09Zm-13.4,2.42v5.35a.42.42,0,0,1-.41.41h-5.35Zm13.81,24.68a.41.41,0,0,1-.41.4H485.18a.41.41,0,0,1-.41-.4V38.27h5.76a2.41,2.41,0,0,0,2.41-2.41V30.09h11.4a.42.42,0,0,1,.41.41Z" transform="translate(-482.77 -28.09)"/><path d="M498.89,42.22h-8.26a1,1,0,0,0,0,2h8.26a1,1,0,0,0,0-2Z" transform="translate(-482.77 -28.09)"/><path d="M498.89,48.16h-8.26a1,1,0,0,0,0,2h8.26a1,1,0,0,0,0-2Z" transform="translate(-482.77 -28.09)"/></svg>