<svg xmlns="http://www.w3.org/2000/svg" viewBox="0 0 512 512"><path d="M346,319a10,10,0,0,0-10,10v69a50.06,50.06,0,0,1-50,50H178a10,10,0,0,0-10,10v19.89L144.15,454a10,10,0,0,0-9.17-6H70a50.06,50.06,0,0,1-50-50V244a50.06,50.06,0,0,1,50-50H171a10,10,0,0,0,0-20H70A70.08,70.08,0,0,0,0,244V398a70.08,70.08,0,0,0,70,70h59.86l41.07,41.07A10,10,0,0,0,188,502l0-34h98a70.08,70.08,0,0,0,70-70V329A10,10,0,0,0,346,319Z"/><path d="M366.65,0h-25.3C261.2,0,196,65.2,196,145.35s65.2,145.34,145.35,145.34h25.3A145.62,145.62,0,0,0,403.54,286l37.39,37.37a10,10,0,0,0,7.07,2.92,9.87,9.87,0,0,0,3.83-.76,10,10,0,0,0,6.17-9.24V258.4a146.76,146.76,0,0,0,38.21-47.1,143.81,143.81,0,0,0,15.79-66C512,65.2,446.8,0,366.65,0ZM442,245.54a10,10,0,0,0-4,8v38.6l-24.47-24.45a10,10,0,0,0-10-2.49,125.27,125.27,0,0,1-36.87,5.51h-25.3a125.35,125.35,0,1,1,0-250.69h25.3A125.35,125.35,0,0,1,442,245.54Z"/><path d="M399,109.42a42.43,42.43,0,0,0-39.25-39.25,42,42,0,0,0-31.87,11.28,42.48,42.48,0,0,0-13.45,31,10,10,0,1,0,20,0A22.34,22.34,0,0,1,358.4,90.12a22.34,22.34,0,0,1,3.31,44.08,18.92,18.92,0,0,0-14.91,18.55v24a10,10,0,1,0,20,0V153.55A42.12,42.12,0,0,0,399,109.42Z"/><path d="M363.87,209.26a10,10,0,1,0,2.93,7.07A10.08,10.08,0,0,0,363.87,209.26Z"/><path d="M275,310H64a10,10,0,0,0,0,20H275a10,10,0,0,0,0-20Z"/><path d="M282.07,368.93A10,10,0,1,0,285,376,10.08,10.08,0,0,0,282.07,368.93Z"/><path d="M235.67,366H64a10,10,0,0,0,0,20H235.67a10,10,0,0,0,0-20Z"/><path d="M210,254H64a10,10,0,0,0,0,20H210a10,10,0,0,0,0-20Z"/></svg>