<svg width="24" height="24" viewBox="0 0 24 24" fill="none" xmlns="http://www.w3.org/2000/svg">
<path d="M12 0C5.37281 0 0 5.37256 0 12C0 18.6274 5.37281 24 12 24C18.6272 24 24 18.6274 24 12C24 5.37256 18.6272 0 12 0ZM6.94269 16.2932C4.75875 16.2932 2.98852 14.3713 2.98852 12C2.98852 9.62873 4.759 7.70652 6.94269 7.70652C9.12638 7.70652 10.8971 9.62873 10.8971 12C10.8971 14.3713 9.12663 16.2932 6.94269 16.2932ZM16.9431 16.1911C14.6961 16.1911 12.8748 14.292 12.8748 11.9487C12.8748 9.60589 14.6961 7.70652 16.9431 7.70652C19.1897 7.70652 21.0115 9.60589 21.0115 11.9487C21.0115 14.292 19.1897 16.1911 16.9431 16.1911Z" fill="currentColor"/>
</svg>
