<svg xmlns="http://www.w3.org/2000/svg" viewBox="0 0 37.05 29.5"><path d="M558,43.86h13.28a5.87,5.87,0,1,0,0-2H558l2.21-2.21a1,1,0,0,0-1.42-1.42l-3.91,3.92a.87.87,0,0,0-.22.32,1.09,1.09,0,0,0-.08.39h0a1,1,0,0,0,.08.38.87.87,0,0,0,.22.32l3.91,3.92a1,1,0,0,0,.71.29,1,1,0,0,0,.71-.29,1,1,0,0,0,0-1.41ZM577,39a3.85,3.85,0,1,1-3.7,4.87h3.54a1,1,0,0,0,0-2h-3.55A3.85,3.85,0,0,1,577,39Z" transform="translate(-554.58 -28.09)"/><path d="M576.88,28.09a14.78,14.78,0,0,0-14.44,11.77h2.06a12.75,12.75,0,1,1,0,6h-2.06a14.75,14.75,0,1,0,14.43-17.77Z" transform="translate(-554.58 -28.09)"/></svg>