<svg xmlns="http://www.w3.org/2000/svg" viewBox="0 0 16 16.02"><path d="M53.33,85.29a1.53,1.53,0,0,0-2.3,0L50,86.35l-.26-.13L49.36,86a11.73,11.73,0,0,1-2.78-2.54,6.5,6.5,0,0,1-.91-1.44c.27-.25.53-.52.78-.77l.28-.29a1.55,1.55,0,0,0,0-2.34l-.92-.92-.31-.32c-.21-.21-.42-.43-.64-.63a1.58,1.58,0,0,0-1.13-.5,1.65,1.65,0,0,0-1.15.5h0L41.42,78a2.48,2.48,0,0,0-.73,1.58A6.05,6.05,0,0,0,41.12,82a14.75,14.75,0,0,0,2.59,4.31A15.8,15.8,0,0,0,49,90.5a8.06,8.06,0,0,0,3,.88h.22a2.55,2.55,0,0,0,1.95-.84s0,0,0,0c.18-.21.38-.4.59-.61l.44-.44a1.66,1.66,0,0,0,.51-1.17,1.63,1.63,0,0,0-.52-1.16Z" transform="translate(-40.67 -75.36)"/><path d="M49.32,79.17a4.29,4.29,0,0,1,2.34,1.22,4.35,4.35,0,0,1,1.21,2.33.45.45,0,0,0,.45.38h.07a.46.46,0,0,0,.38-.53,5.27,5.27,0,0,0-4.29-4.28.45.45,0,1,0-.16.89Z" transform="translate(-40.67 -75.36)"/><path d="M56.67,82.43a8.66,8.66,0,0,0-7.06-7.06.47.47,0,0,0-.53.37.46.46,0,0,0,.38.53,7.75,7.75,0,0,1,6.31,6.31.45.45,0,0,0,.45.38h.07A.45.45,0,0,0,56.67,82.43Z" transform="translate(-40.67 -75.36)"/></svg>