<svg xmlns="http://www.w3.org/2000/svg" viewBox="0 0 17.73 18.88"><line x1="3.56" y1="16.87" x2="14.19" y2="1.97" fill="none" stroke="currentColor" stroke-linecap="round" stroke-linejoin="round" stroke-width="1.5"/><path d="M123.29,34.39a2.47,2.47,0,1,1-2.46,2.46,2.46,2.46,0,0,1,2.46-2.46m0-1.5a4,4,0,1,0,4,4,4,4,0,0,0-4-4Z" transform="translate(-119.33 -32.89)" fill="currentColor"/><path d="M133.09,45.34a2.47,2.47,0,1,1-2.46,2.47,2.48,2.48,0,0,1,2.46-2.47m0-1.5a4,4,0,1,0,4,4,4,4,0,0,0-4-4Z" transform="translate(-119.33 -32.89)" fill="currentColor"/></svg>