<svg width="12" height="16" viewBox="0 0 12 16" xmlns="http://www.w3.org/2000/svg">
<path d="M6 0C4.34625 0 3 1.36076 3 3.04381C3 4.72686 4.34625 6.09524 6 6.09524C7.65375 6.09524 9 4.7261 9 3.04381C9 1.36076 7.65375 0 6 0Z" fill="currentColor"/>
<path d="M9.30975 7.84533C7.5 6.85714 4.5 6.85714 2.69025 7.84533C1.071 8.912 0 10.7352 0 12.803V14.8899C0 15.5025 0.50175 16 1.119 16H2.25V12.5409C2.25 12.3482 2.40525 12.1905 2.595 12.1905H2.655C2.84475 12.1905 3 12.3482 3 12.5409V16H9V12.5409C9 12.3482 9.15525 12.1905 9.345 12.1905H9.405C9.59475 12.1905 9.75 12.3482 9.75 12.5409V16H10.881C11.4983 16 12 15.5025 12 14.8907V12.8038C12 10.7352 10.929 8.912 9.30975 7.84533Z" fill="currentColor"/>
</svg>
