<svg xmlns="http://www.w3.org/2000/svg" viewBox="0 0 35.48 21.27"><path d="M303.17,40c1.18,0,1.18-1.7,1.18-2.36a2.54,2.54,0,0,1,2.36-2.36c1.18,0,3.21,2,4.72,3.54C312.61,40,312.61,40,313.8,40h3.54a2.39,2.39,0,0,0,2.36-2.36c0-.74-.81-2-3.54-4.72-2.36-2.37-3.57-1.15,0-5.91,2.17-2.9,3.76-5.53,3.49-6.28s-6.32-1.88-7-.8a44.65,44.65,0,0,0-3.54,5.9c-1.18,2.36-1.3,3.54-2.36,3.54s-1.18-2.29-1.18-3.54c0-3.91.56-6.67-1.18-7.09H300.8A6.82,6.82,0,0,0,297.26,20s-1.47,1.14-1.18,1.18,2.36-.49,2.36,1.18v2.36s0,4.72-1.18,4.72-3.54-4.72-5.9-8.26C290.43,19.76,290.17,20,289,20s-2.36.05-3.54.05-1.33.75-1.18,1.13c2.36,5.9,4.06,9.61,8.54,14.28C296.93,39.72,299.68,40,302,40,302.57,40.07,302,40,303.17,40Z" transform="translate(-284.22 -18.78)"/></svg>