<svg width="24" height="24" viewBox="0 0 24 24" fill="none" xmlns="http://www.w3.org/2000/svg">
<path fill-rule="evenodd" clip-rule="evenodd" d="M12 24C18.6274 24 24 18.6274 24 12C24 5.37258 18.6274 0 12 0C5.37258 0 0 5.37258 0 12C0 18.6274 5.37258 24 12 24ZM20.8523 16.2993C20.8701 16.3287 20.8893 16.3655 20.9099 16.4099C20.9305 16.4541 20.9511 16.5324 20.9721 16.6444C20.9926 16.7566 20.9913 16.857 20.9676 16.9455C20.9439 17.0338 20.8703 17.1151 20.7463 17.1889C20.6226 17.2625 20.4482 17.2996 20.2241 17.2996L17.9583 17.3349C17.8165 17.3644 17.6513 17.3497 17.4628 17.2907C17.2739 17.2317 17.1205 17.1668 17.0023 17.0959L16.8254 16.9897C16.6484 16.8656 16.4419 16.677 16.2058 16.4232C15.9698 16.1695 15.7677 15.941 15.5995 15.7373C15.4313 15.5338 15.2514 15.3626 15.0596 15.2239C14.8676 15.0851 14.7009 15.0394 14.5593 15.0866C14.5416 15.0926 14.5181 15.1027 14.4888 15.1176C14.4592 15.1323 14.4088 15.1752 14.338 15.246C14.2674 15.3166 14.204 15.4037 14.1478 15.5069C14.0916 15.6103 14.0413 15.7637 13.9972 15.9672C13.953 16.1708 13.9337 16.3994 13.9397 16.6531C13.9397 16.7415 13.9295 16.8227 13.9087 16.8965C13.8883 16.9701 13.8661 17.0248 13.8424 17.06L13.8072 17.1044C13.7009 17.2164 13.5445 17.2814 13.3381 17.2992H12.3202C11.9012 17.3226 11.4704 17.274 11.0279 17.153C10.5853 17.032 10.1974 16.8757 9.8639 16.684C9.53051 16.4921 9.22666 16.2974 8.9522 16.0997C8.67781 15.902 8.46985 15.7324 8.32823 15.5907L8.10691 15.3784C8.04792 15.3194 7.96675 15.231 7.86343 15.1128C7.76022 14.9949 7.54929 14.7264 7.23062 14.3074C6.91195 13.8885 6.59921 13.443 6.29239 12.9708C5.98562 12.499 5.62415 11.8764 5.20817 11.1034C4.79219 10.3304 4.40718 9.52791 4.05314 8.69582C4.0177 8.60149 4 8.52181 4 8.45689C4 8.39195 4.00893 8.34476 4.02663 8.31522L4.06207 8.26217C4.15061 8.15004 4.31876 8.0939 4.56659 8.0939L6.99181 8.07629C7.06268 8.08804 7.13045 8.10713 7.1954 8.13376C7.26026 8.16043 7.30753 8.18544 7.33699 8.20901L7.38129 8.23564C7.47569 8.30055 7.54653 8.39489 7.59368 8.5188C7.71164 8.81385 7.84734 9.11928 8.00086 9.43503C8.15428 9.75066 8.27519 9.99117 8.3637 10.1563L8.50528 10.4131C8.67641 10.7671 8.84165 11.074 9.00091 11.3336C9.16029 11.5932 9.30339 11.7953 9.43028 11.9399C9.55717 12.0845 9.67959 12.198 9.79756 12.2807C9.91555 12.3633 10.0158 12.4047 10.0985 12.4047C10.181 12.4047 10.2608 12.3897 10.3375 12.3603C10.3492 12.3545 10.364 12.3396 10.3817 12.3161C10.3994 12.2925 10.4348 12.2276 10.488 12.1214C10.541 12.0152 10.5808 11.8765 10.6075 11.7054C10.6341 11.5343 10.662 11.2953 10.6916 10.9884C10.721 10.6816 10.721 10.3128 10.6916 9.88201C10.6798 9.64609 10.6532 9.43072 10.6119 9.23603C10.5706 9.04134 10.5293 8.90555 10.488 8.82885L10.4348 8.72255C10.2873 8.52194 10.0366 8.39505 9.68248 8.342C9.60578 8.33035 9.6206 8.25948 9.72684 8.12961C9.8271 8.01757 9.93923 7.929 10.0631 7.86417C10.3759 7.71075 11.0811 7.63988 12.1786 7.65166C12.6625 7.65761 13.0608 7.6959 13.3736 7.76667C13.4914 7.79625 13.5905 7.83606 13.6701 7.88622C13.7496 7.93644 13.8102 8.00718 13.8515 8.09864C13.8927 8.19019 13.9239 8.28462 13.9442 8.3819C13.9648 8.47931 13.9752 8.61351 13.9752 8.78464C13.9752 8.95577 13.9725 9.1181 13.9664 9.27152C13.9604 9.4248 13.9532 9.63285 13.9442 9.89543C13.9355 10.158 13.9311 10.4014 13.9311 10.6257C13.9311 10.6906 13.9283 10.8144 13.9222 10.9974C13.9162 11.1803 13.9149 11.3221 13.9177 11.4223C13.9207 11.5227 13.9311 11.642 13.9487 11.7808C13.9664 11.9195 14.0003 12.0346 14.0505 12.126C14.1006 12.2175 14.167 12.2898 14.2496 12.3429C14.297 12.3547 14.347 12.3665 14.4002 12.3783C14.4533 12.3902 14.5299 12.3577 14.6302 12.2809C14.7307 12.2041 14.8426 12.1025 14.9666 11.9756C15.0905 11.8488 15.2439 11.6511 15.4268 11.3826C15.6099 11.1141 15.8104 10.797 16.0288 10.4311C16.3829 9.81746 16.6984 9.15363 16.976 8.43963C16.9995 8.38063 17.029 8.32886 17.0642 8.28474C17.0997 8.24047 17.1321 8.2095 17.1617 8.19189L17.1969 8.16526L17.2412 8.1431L17.3563 8.11647C17.4332 8.09873 17.4921 8.09737 17.5334 8.112L20.0825 8.09439C20.3127 8.06491 20.5015 8.07223 20.6492 8.11647C20.7965 8.1608 20.888 8.20941 20.9234 8.26255L20.9761 8.35081C21.1119 8.7285 20.6693 9.5958 19.6484 10.9531C19.5068 11.1419 19.3152 11.3926 19.0731 11.7054C18.613 12.2955 18.3473 12.6818 18.2765 12.8647C18.1764 13.1068 18.2174 13.3458 18.4006 13.5818C18.5008 13.7057 18.7399 13.9478 19.1175 14.3077H19.1264L19.1353 14.3166L19.1441 14.3253L19.1617 14.343C19.9937 15.116 20.5573 15.768 20.8523 16.2993Z" fill="currentColor"/>
</svg>
