<svg width="24" height="24" viewBox="0 0 24 24" fill="none" xmlns="http://www.w3.org/2000/svg">
<path d="M10.3635 14.3789L14.5454 12L10.3635 9.62109V14.3789Z" fill="currentColor"/>
<path d="M12 0C5.37258 0 0 5.37258 0 12C0 18.6274 5.37258 24 12 24C18.6274 24 24 18.6274 24 12C24 5.37258 18.6274 0 12 0ZM19.6657 15.8761C19.5753 16.2165 19.397 16.5273 19.1487 16.7772C18.9004 17.027 18.5909 17.2073 18.251 17.2999C17.0034 17.6363 12 17.6362 12 17.6362C12 17.6362 6.99656 17.6363 5.74898 17.2999C5.40912 17.2073 5.09955 17.027 4.85127 16.7772C4.60299 16.5273 4.42472 16.2165 4.3343 15.8761C4.00008 14.6203 4.00008 12 4.00008 12C4.00008 12 4.00008 9.37969 4.3343 8.12391C4.42472 7.78345 4.60299 7.47273 4.85127 7.22285C5.09955 6.97296 5.40912 6.79269 5.74898 6.70008C6.99656 6.36375 12 6.36375 12 6.36375C12 6.36375 17.0034 6.36375 18.251 6.70008C18.5909 6.79269 18.9004 6.97296 19.1487 7.22285C19.397 7.47273 19.5753 7.78345 19.6657 8.12391C19.9999 9.37969 19.9999 12 19.9999 12C19.9999 12 19.9999 14.6203 19.6657 15.8761Z" fill="currentColor"/>
</svg>
