<svg xmlns="http://www.w3.org/2000/svg" viewBox="0 0 31.69 22.27"><path d="M391.42,39.57c-3.56-.11-6.95-.2-10.33-.33a12.42,12.42,0,0,1-2.19-.31,3.65,3.65,0,0,1-2.73-2.44,13,13,0,0,1-.62-3.26,65.83,65.83,0,0,1-.11-7.82,19,19,0,0,1,.5-4.38,4.47,4.47,0,0,1,1.21-2.31,4,4,0,0,1,2.56-1.09c2.67-.13,5.33-.29,8-.32,3.59,0,7.19,0,10.78.08a40.38,40.38,0,0,1,4.66.32,3.6,3.6,0,0,1,3,2.34,11.16,11.16,0,0,1,.69,3.28,62.55,62.55,0,0,1,.11,8.44,18.47,18.47,0,0,1-.54,4.25,3.93,3.93,0,0,1-3.08,3,10.47,10.47,0,0,1-1.94.21ZM388,32.48l8.52-4.42L388,23.6Z" transform="translate(-375.37 -17.3)"/></svg>