<svg xmlns="http://www.w3.org/2000/svg" viewBox="0 0 251.51 178.03"><path d="M142.05,389.13l8.78,4a6.57,6.57,0,0,0,3,.59l43.29-1.48a3.56,3.56,0,0,0,3.18-2.26l19.87-51.27" transform="translate(-31.7 -239.99)" fill="none" stroke="#373737" stroke-miterlimit="10"/><circle cx="249.32" cy="384.13" r="33.39" transform="translate(-230.3 48.81) rotate(-45)" fill="none" stroke="#373737" stroke-miterlimit="10"/><circle cx="249.32" cy="384.13" r="19.14" transform="translate(-230.3 48.81) rotate(-45)" fill="none" stroke="#373737" stroke-miterlimit="10"/><circle cx="249.32" cy="384.13" r="20.79" transform="translate(-230.3 48.81) rotate(-45)" fill="none" stroke="#373737" stroke-miterlimit="10" stroke-width="0.5"/><circle cx="249.32" cy="384.13" r="23.61" transform="translate(-230.3 48.81) rotate(-45)" fill="none" stroke="#373737" stroke-miterlimit="10" stroke-width="0.5"/><circle cx="249.32" cy="384.13" r="27" transform="translate(-230.3 48.81) rotate(-45)" fill="none" stroke="#373737" stroke-miterlimit="10" stroke-width="0.5"/><path d="M224.51,361.79a6.43,6.43,0,0,0,2.21,4.52" transform="translate(-31.7 -239.99)" fill="none" stroke="#373737" stroke-linecap="round" stroke-linejoin="round"/><path d="M221.65,365.45a6.43,6.43,0,0,0,2.81,4.17" transform="translate(-31.7 -239.99)" fill="none" stroke="#373737" stroke-linecap="round" stroke-linejoin="round"/><path d="M219.32,369.48a6.45,6.45,0,0,0,3.36,3.74" transform="translate(-31.7 -239.99)" fill="none" stroke="#373737" stroke-linecap="round" stroke-linejoin="round"/><path d="M217.58,373.8a6.42,6.42,0,0,0,3.85,3.23" transform="translate(-31.7 -239.99)" fill="none" stroke="#373737" stroke-linecap="round" stroke-linejoin="round"/><path d="M216.45,378.31a6.41,6.41,0,0,0,4.26,2.67" transform="translate(-31.7 -239.99)" fill="none" stroke="#373737" stroke-linecap="round" stroke-linejoin="round"/><path d="M216,382.94a6.47,6.47,0,0,0,4.6,2.05" transform="translate(-31.7 -239.99)" fill="none" stroke="#373737" stroke-linecap="round" stroke-linejoin="round"/><path d="M216.12,387.59A6.46,6.46,0,0,0,221,389" transform="translate(-31.7 -239.99)" fill="none" stroke="#373737" stroke-linecap="round" stroke-linejoin="round"/><path d="M216.93,392.17a6.42,6.42,0,0,0,5,.7" transform="translate(-31.7 -239.99)" fill="none" stroke="#373737" stroke-linecap="round" stroke-linejoin="round"/><path d="M218.37,396.6a6.46,6.46,0,0,0,5,0" transform="translate(-31.7 -239.99)" fill="none" stroke="#373737" stroke-linecap="round" stroke-linejoin="round"/><path d="M220.41,400.78a6.44,6.44,0,0,0,5-.7" transform="translate(-31.7 -239.99)" fill="none" stroke="#373737" stroke-linecap="round" stroke-linejoin="round"/><path d="M223,404.64a6.46,6.46,0,0,0,4.84-1.39" transform="translate(-31.7 -239.99)" fill="none" stroke="#373737" stroke-linecap="round" stroke-linejoin="round"/><path d="M226.12,408.1a6.46,6.46,0,0,0,4.6-2.05" transform="translate(-31.7 -239.99)" fill="none" stroke="#373737" stroke-linecap="round" stroke-linejoin="round"/><path d="M229.69,411.09a6.43,6.43,0,0,0,4.26-2.67" transform="translate(-31.7 -239.99)" fill="none" stroke="#373737" stroke-linecap="round" stroke-linejoin="round"/><path d="M233.64,413.56a6.47,6.47,0,0,0,3.85-3.24" transform="translate(-31.7 -239.99)" fill="none" stroke="#373737" stroke-linecap="round" stroke-linejoin="round"/><path d="M237.89,415.45a6.44,6.44,0,0,0,3.36-3.74" transform="translate(-31.7 -239.99)" fill="none" stroke="#373737" stroke-linecap="round" stroke-linejoin="round"/><path d="M242.36,416.73a6.41,6.41,0,0,0,2.81-4.17" transform="translate(-31.7 -239.99)" fill="none" stroke="#373737" stroke-linecap="round" stroke-linejoin="round"/><path d="M247,417.38a6.44,6.44,0,0,0,2.2-4.52" transform="translate(-31.7 -239.99)" fill="none" stroke="#373737" stroke-linecap="round" stroke-linejoin="round"/><path d="M251.62,417.38a6.43,6.43,0,0,0,1.55-4.78" transform="translate(-31.7 -239.99)" fill="none" stroke="#373737" stroke-linecap="round" stroke-linejoin="round"/><path d="M256.23,416.73a6.44,6.44,0,0,0,.87-5" transform="translate(-31.7 -239.99)" fill="none" stroke="#373737" stroke-linecap="round" stroke-linejoin="round"/><path d="M260.7,415.45a6.45,6.45,0,0,0,.18-5" transform="translate(-31.7 -239.99)" fill="none" stroke="#373737" stroke-linecap="round" stroke-linejoin="round"/><path d="M265,413.56a6.45,6.45,0,0,0-.52-5" transform="translate(-31.7 -239.99)" fill="none" stroke="#373737" stroke-linecap="round" stroke-linejoin="round"/><path d="M268.9,411.09a6.46,6.46,0,0,0-1.22-4.88" transform="translate(-31.7 -239.99)" fill="none" stroke="#373737" stroke-linecap="round" stroke-linejoin="round"/><path d="M272.46,408.1a6.43,6.43,0,0,0-1.88-4.66" transform="translate(-31.7 -239.99)" fill="none" stroke="#373737" stroke-linecap="round" stroke-linejoin="round"/><path d="M275.58,404.64a6.41,6.41,0,0,0-2.52-4.35" transform="translate(-31.7 -239.99)" fill="none" stroke="#373737" stroke-linecap="round" stroke-linejoin="round"/><path d="M278.18,400.79a6.44,6.44,0,0,0-3.1-4" transform="translate(-31.7 -239.99)" fill="none" stroke="#373737" stroke-linecap="round" stroke-linejoin="round"/><path d="M280.22,396.6a6.44,6.44,0,0,0-3.62-3.49" transform="translate(-31.7 -239.99)" fill="none" stroke="#373737" stroke-linecap="round" stroke-linejoin="round"/><path d="M281.66,392.18a6.45,6.45,0,0,0-4.07-3" transform="translate(-31.7 -239.99)" fill="none" stroke="#373737" stroke-linecap="round" stroke-linejoin="round"/><path d="M282.47,387.6a6.4,6.4,0,0,0-4.44-2.36" transform="translate(-31.7 -239.99)" fill="none" stroke="#373737" stroke-linecap="round" stroke-linejoin="round"/><path d="M282.63,383a6.45,6.45,0,0,0-4.73-1.72" transform="translate(-31.7 -239.99)" fill="none" stroke="#373737" stroke-linecap="round" stroke-linejoin="round"/><path d="M282.14,378.32a6.46,6.46,0,0,0-4.92-1.05" transform="translate(-31.7 -239.99)" fill="none" stroke="#373737" stroke-linecap="round" stroke-linejoin="round"/><path d="M235.73,353.64a6.4,6.4,0,0,0,.18,5" transform="translate(-31.7 -239.99)" fill="none" stroke="#373737" stroke-linecap="round" stroke-linejoin="round"/><path d="M231.62,355.82a6.42,6.42,0,0,0,.88,4.95" transform="translate(-31.7 -239.99)" fill="none" stroke="#373737" stroke-linecap="round" stroke-linejoin="round"/><path d="M227.86,358.56a6.43,6.43,0,0,0,1.55,4.78" transform="translate(-31.7 -239.99)" fill="none" stroke="#373737" stroke-linecap="round" stroke-linejoin="round"/><path d="M281,373.8a6.46,6.46,0,0,0-5-.35" transform="translate(-31.7 -239.99)" fill="none" stroke="#373737" stroke-linecap="round" stroke-linejoin="round"/><path d="M279.27,369.49a6.42,6.42,0,0,0-5,.35" transform="translate(-31.7 -239.99)" fill="none" stroke="#373737" stroke-linecap="round" stroke-linejoin="round"/><path d="M277,365.46a6.44,6.44,0,0,0-4.92,1" transform="translate(-31.7 -239.99)" fill="none" stroke="#373737" stroke-linecap="round" stroke-linejoin="round"/><circle cx="249.32" cy="384.13" r="12.39" transform="translate(-227.59 36.86) rotate(-43.47)" fill="none" stroke="#373737" stroke-miterlimit="10"/><path d="M235.16,397c-.19-.27,4.49,1.65,7-1.92a7.1,7.1,0,0,0,.63-7.11l10.48,2.6-6.12,6.57a4.2,4.2,0,0,0-.25,6A19.19,19.19,0,0,1,235.16,397Z" transform="translate(-31.7 -239.99)" fill="none" stroke="#373737" stroke-miterlimit="10"/><path d="M267.56,390c-.14.31-.82-4.71-5.16-5.1a7.09,7.09,0,0,0-6.48,3l-3-10.37,8.74,2a4.22,4.22,0,0,0,5.3-2.78A19.17,19.17,0,0,1,267.56,390Z" transform="translate(-31.7 -239.99)" fill="none" stroke="#373737" stroke-miterlimit="10"/><path d="M245.28,365.58c.34,0-3.65,3.09-1.8,7a7.1,7.1,0,0,0,5.87,4.07l-7.45,7.82-2.67-8.57a4.21,4.21,0,0,0-5.07-3.17A19.21,19.21,0,0,1,245.28,365.58Z" transform="translate(-31.7 -239.99)" fill="none" stroke="#373737" stroke-miterlimit="10"/><circle cx="249.32" cy="384.13" r="7.57" transform="translate(-230.3 48.81) rotate(-45)" fill="none" stroke="#373737" stroke-miterlimit="10"/><path d="M235.28,350.79a.58.58,0,0,1-.05-1.09,37.26,37.26,0,0,1,46.14,15.53.59.59,0,0,1-.7.85l-14.05-4.55s-7.61-1.74-7.28,6.29a15,15,0,0,0-5.83-2.37L250.42,355a5.67,5.67,0,0,0-1.63-2.68,5.24,5.24,0,0,0-3.62-1.33Z" transform="translate(-31.7 -239.99)" fill="none" stroke="#373737" stroke-miterlimit="10"/><path d="M232.75,355.14l-7.54-17.9a.64.64,0,0,1,.34-.84l3.55-1.49a.64.64,0,0,1,.84.34l7.45,17.69" transform="translate(-31.7 -239.99)" fill="none" stroke="#373737" stroke-miterlimit="10"/><polyline points="198.05 95.01 196.21 93.29 195.03 90.73 195.03 87.38" fill="none" stroke="#373737" stroke-miterlimit="10"/><polyline points="193.42 96.77 193.52 94.53 192.33 91.97 189.3 89.4" fill="none" stroke="#373737" stroke-miterlimit="10"/><path d="M243.19,389l-48.61-4.72s5.75-3.62,7.93-8.6l40.72,4a7.53,7.53,0,0,0-1.48,4.48A9.54,9.54,0,0,0,243.19,389Z" transform="translate(-31.7 -239.99)" fill="none" stroke="#373737" stroke-miterlimit="10"/><line x1="174.83" y1="133.8" x2="185.23" y2="135.69" fill="none" stroke="#373737" stroke-miterlimit="10"/><path d="M214.87,376.74s11.62.84,20.29-2.44,16.49-9.24,22.09-8.38S265,374.08,260.6,379" transform="translate(-31.7 -239.99)" fill="none" stroke="#373737" stroke-miterlimit="10" stroke-width="0.75"/><path d="M251.45,375.05a3.95,3.95,0,1,0-3.94,3.94A3.95,3.95,0,0,0,251.45,375.05Z" transform="translate(-31.7 -239.99)" fill="none" stroke="#373737" stroke-miterlimit="10"/><path d="M231.31,337.58l3.55-1.49a.62.62,0,0,1,.83.34l14.83,35.18a.64.64,0,0,1-.72.87l-4.6-1a.66.66,0,0,1-.45-.38L231,338.42A.64.64,0,0,1,231.31,337.58Z" transform="translate(-31.7 -239.99)" fill="none" stroke="#373737" stroke-miterlimit="10"/><polyline points="203.81 96.19 201.97 94.47 200.79 91.91 200.79 88.56" fill="none" stroke="#373737" stroke-miterlimit="10"/><polyline points="199.18 97.95 199.28 95.7 198.09 93.15 195.06 90.58" fill="none" stroke="#373737" stroke-miterlimit="10"/><path d="M98.57,339.79s-7.15,7-9.36,15.6" transform="translate(-31.7 -239.99)" fill="none" stroke="#373737" stroke-miterlimit="10" stroke-width="0.75"/><path d="M90.76,340.85s1.09,4,2.46,3.86,5.56-4.19,5.56-4.19" transform="translate(-31.7 -239.99)" fill="none" stroke="#373737" stroke-miterlimit="10"/><circle cx="65.6" cy="384.13" r="33.39" transform="translate(-284.12 -81.1) rotate(-45)" fill="none" stroke="#373737" stroke-miterlimit="10"/><circle cx="65.6" cy="384.13" r="19.14" transform="translate(-92.39 -224.53) rotate(-9.22)" fill="none" stroke="#373737" stroke-miterlimit="10"/><circle cx="65.6" cy="384.13" r="20.79" transform="translate(-284.12 -81.1) rotate(-45)" fill="none" stroke="#373737" stroke-miterlimit="10" stroke-width="0.5"/><circle cx="65.6" cy="384.13" r="23.61" transform="translate(-346.1 57.74) rotate(-67.5)" fill="none" stroke="#373737" stroke-miterlimit="10" stroke-width="0.5"/><circle cx="65.6" cy="384.13" r="27" transform="translate(-346.1 57.74) rotate(-67.5)" fill="none" stroke="#373737" stroke-miterlimit="10" stroke-width="0.5"/><path d="M40.78,361.79A6.43,6.43,0,0,0,43,366.31" transform="translate(-31.7 -239.99)" fill="none" stroke="#373737" stroke-linecap="round" stroke-linejoin="round"/><path d="M37.92,365.45a6.43,6.43,0,0,0,2.81,4.17" transform="translate(-31.7 -239.99)" fill="none" stroke="#373737" stroke-linecap="round" stroke-linejoin="round"/><path d="M35.59,369.48A6.44,6.44,0,0,0,39,373.22" transform="translate(-31.7 -239.99)" fill="none" stroke="#373737" stroke-linecap="round" stroke-linejoin="round"/><path d="M33.85,373.8A6.42,6.42,0,0,0,37.7,377" transform="translate(-31.7 -239.99)" fill="none" stroke="#373737" stroke-linecap="round" stroke-linejoin="round"/><path d="M32.72,378.31A6.45,6.45,0,0,0,37,381" transform="translate(-31.7 -239.99)" fill="none" stroke="#373737" stroke-linecap="round" stroke-linejoin="round"/><path d="M32.24,382.94A6.43,6.43,0,0,0,36.83,385" transform="translate(-31.7 -239.99)" fill="none" stroke="#373737" stroke-linecap="round" stroke-linejoin="round"/><path d="M32.4,387.59A6.42,6.42,0,0,0,37.23,389" transform="translate(-31.7 -239.99)" fill="none" stroke="#373737" stroke-linecap="round" stroke-linejoin="round"/><path d="M33.21,392.17a6.41,6.41,0,0,0,5,.7" transform="translate(-31.7 -239.99)" fill="none" stroke="#373737" stroke-linecap="round" stroke-linejoin="round"/><path d="M34.64,396.6a6.46,6.46,0,0,0,5,0" transform="translate(-31.7 -239.99)" fill="none" stroke="#373737" stroke-linecap="round" stroke-linejoin="round"/><path d="M36.68,400.78a6.44,6.44,0,0,0,5-.7" transform="translate(-31.7 -239.99)" fill="none" stroke="#373737" stroke-linecap="round" stroke-linejoin="round"/><path d="M39.28,404.64a6.46,6.46,0,0,0,4.84-1.39" transform="translate(-31.7 -239.99)" fill="none" stroke="#373737" stroke-linecap="round" stroke-linejoin="round"/><path d="M42.4,408.1A6.44,6.44,0,0,0,47,406.05" transform="translate(-31.7 -239.99)" fill="none" stroke="#373737" stroke-linecap="round" stroke-linejoin="round"/><path d="M46,411.09a6.46,6.46,0,0,0,4.27-2.67" transform="translate(-31.7 -239.99)" fill="none" stroke="#373737" stroke-linecap="round" stroke-linejoin="round"/><path d="M49.91,413.56a6.47,6.47,0,0,0,3.85-3.24" transform="translate(-31.7 -239.99)" fill="none" stroke="#373737" stroke-linecap="round" stroke-linejoin="round"/><path d="M54.16,415.45a6.41,6.41,0,0,0,3.36-3.74" transform="translate(-31.7 -239.99)" fill="none" stroke="#373737" stroke-linecap="round" stroke-linejoin="round"/><path d="M58.63,416.73a6.41,6.41,0,0,0,2.81-4.17" transform="translate(-31.7 -239.99)" fill="none" stroke="#373737" stroke-linecap="round" stroke-linejoin="round"/><path d="M63.24,417.38a6.44,6.44,0,0,0,2.2-4.52" transform="translate(-31.7 -239.99)" fill="none" stroke="#373737" stroke-linecap="round" stroke-linejoin="round"/><path d="M67.89,417.38a6.46,6.46,0,0,0,1.56-4.78" transform="translate(-31.7 -239.99)" fill="none" stroke="#373737" stroke-linecap="round" stroke-linejoin="round"/><path d="M72.5,416.73a6.39,6.39,0,0,0,.87-5" transform="translate(-31.7 -239.99)" fill="none" stroke="#373737" stroke-linecap="round" stroke-linejoin="round"/><path d="M77,415.45a6.45,6.45,0,0,0,.18-5" transform="translate(-31.7 -239.99)" fill="none" stroke="#373737" stroke-linecap="round" stroke-linejoin="round"/><path d="M81.23,413.56a6.43,6.43,0,0,0-.53-5" transform="translate(-31.7 -239.99)" fill="none" stroke="#373737" stroke-linecap="round" stroke-linejoin="round"/><path d="M85.17,411.09A6.41,6.41,0,0,0,84,406.21" transform="translate(-31.7 -239.99)" fill="none" stroke="#373737" stroke-linecap="round" stroke-linejoin="round"/><path d="M88.74,408.1a6.42,6.42,0,0,0-1.89-4.66" transform="translate(-31.7 -239.99)" fill="none" stroke="#373737" stroke-linecap="round" stroke-linejoin="round"/><path d="M91.85,404.64a6.42,6.42,0,0,0-2.51-4.35" transform="translate(-31.7 -239.99)" fill="none" stroke="#373737" stroke-linecap="round" stroke-linejoin="round"/><path d="M94.45,400.79a6.44,6.44,0,0,0-3.09-4" transform="translate(-31.7 -239.99)" fill="none" stroke="#373737" stroke-linecap="round" stroke-linejoin="round"/><path d="M96.49,396.6a6.44,6.44,0,0,0-3.62-3.49" transform="translate(-31.7 -239.99)" fill="none" stroke="#373737" stroke-linecap="round" stroke-linejoin="round"/><path d="M97.93,392.18a6.41,6.41,0,0,0-4.07-3" transform="translate(-31.7 -239.99)" fill="none" stroke="#373737" stroke-linecap="round" stroke-linejoin="round"/><path d="M98.74,387.6a6.4,6.4,0,0,0-4.44-2.36" transform="translate(-31.7 -239.99)" fill="none" stroke="#373737" stroke-linecap="round" stroke-linejoin="round"/><path d="M98.9,383a6.41,6.41,0,0,0-4.72-1.72" transform="translate(-31.7 -239.99)" fill="none" stroke="#373737" stroke-linecap="round" stroke-linejoin="round"/><path d="M98.42,378.32a6.46,6.46,0,0,0-4.92-1.05" transform="translate(-31.7 -239.99)" fill="none" stroke="#373737" stroke-linecap="round" stroke-linejoin="round"/><path d="M59.8,353.57a6.86,6.86,0,0,0-.09,2.39" transform="translate(-31.7 -239.99)" fill="none" stroke="#373737" stroke-linecap="round" stroke-linejoin="round"/><path d="M56.21,352.36a6.59,6.59,0,0,0-.36,4.69" transform="translate(-31.7 -239.99)" fill="none" stroke="#373737" stroke-linecap="round" stroke-linejoin="round"/><path d="M52,353.64a6.46,6.46,0,0,0,.18,5" transform="translate(-31.7 -239.99)" fill="none" stroke="#373737" stroke-linecap="round" stroke-linejoin="round"/><path d="M47.9,355.82a6.44,6.44,0,0,0,.87,4.95" transform="translate(-31.7 -239.99)" fill="none" stroke="#373737" stroke-linecap="round" stroke-linejoin="round"/><path d="M44.13,358.56a6.41,6.41,0,0,0,1.56,4.78" transform="translate(-31.7 -239.99)" fill="none" stroke="#373737" stroke-linecap="round" stroke-linejoin="round"/><path d="M97.29,373.8a6.46,6.46,0,0,0-5-.35" transform="translate(-31.7 -239.99)" fill="none" stroke="#373737" stroke-linecap="round" stroke-linejoin="round"/><path d="M95.55,369.49a6.45,6.45,0,0,0-5,.35" transform="translate(-31.7 -239.99)" fill="none" stroke="#373737" stroke-linecap="round" stroke-linejoin="round"/><path d="M93.22,365.46a6.44,6.44,0,0,0-4.92,1" transform="translate(-31.7 -239.99)" fill="none" stroke="#373737" stroke-linecap="round" stroke-linejoin="round"/><circle cx="65.6" cy="384.13" r="12.39" transform="translate(-92.39 -224.53) rotate(-9.22)" fill="none" stroke="#373737" stroke-miterlimit="10"/><path d="M51.44,397c-.2-.27,4.48,1.65,7-1.92a7.09,7.09,0,0,0,.64-7.11l10.47,2.6-6.12,6.57a4.21,4.21,0,0,0-.24,6A19.17,19.17,0,0,1,51.44,397Z" transform="translate(-31.7 -239.99)" fill="none" stroke="#373737" stroke-miterlimit="10"/><path d="M83.84,390c-.14.31-.82-4.71-5.17-5.1a7.11,7.11,0,0,0-6.48,3l-3-10.37,8.75,2a4.21,4.21,0,0,0,5.29-2.78A19.2,19.2,0,0,1,83.84,390Z" transform="translate(-31.7 -239.99)" fill="none" stroke="#373737" stroke-miterlimit="10"/><path d="M61.55,365.58c.34,0-3.64,3.09-1.79,7a7.09,7.09,0,0,0,5.86,4.07l-7.45,7.82-2.67-8.57a4.21,4.21,0,0,0-5.07-3.17A19.21,19.21,0,0,1,61.55,365.58Z" transform="translate(-31.7 -239.99)" fill="none" stroke="#373737" stroke-miterlimit="10"/><circle cx="65.6" cy="384.13" r="7.57" transform="translate(-92.39 -224.53) rotate(-9.22)" fill="none" stroke="#373737" stroke-miterlimit="10"/><path d="M74.58,358.84l22.36,7.24a.59.59,0,0,0,.7-.85A37.24,37.24,0,0,0,51.51,349.7a.58.58,0,0,0,0,1.09l10.66,3.59.71.24s2.4,2,1.83,4.58c-.5,2.28-5.36,19.58-6.47,23.51a1,1,0,0,0,.54,1.13l.74.31a1,1,0,0,0,1.2-.41l14-25.15" transform="translate(-31.7 -239.99)" fill="none" stroke="#373737" stroke-miterlimit="10"/><path d="M90.94,334.64l-5.36,5.07a1.42,1.42,0,0,1-.71.36l-4.29.75a1.26,1.26,0,0,1-.58,0l-1.18-.3a1.39,1.39,0,0,1-1-1.3l-.56-18.38a1.38,1.38,0,0,1,1-1.37l1.06-.31a1.47,1.47,0,0,1,.51,0l4.55.43a1.38,1.38,0,0,1,.82.37l5.49,5.16a1.38,1.38,0,0,1,.43.95l.29,7.57A1.36,1.36,0,0,1,90.94,334.64Z" transform="translate(-31.7 -239.99)" fill="none" stroke="#373737" stroke-miterlimit="10"/><line x1="48.09" y1="79.1" x2="48.63" y2="100.85" fill="none" stroke="#373737" stroke-miterlimit="10"/><path d="M77.22,321.52a16.11,16.11,0,0,0,.54,16.92" transform="translate(-31.7 -239.99)" fill="none" stroke="#373737" stroke-miterlimit="10"/><polygon points="61.09 96.97 66.38 98.73 65.63 92.35 63.51 91.7 61.09 96.97" fill="none" stroke="#373737" stroke-miterlimit="10"/><path d="M87.65,334.94l-2.33-1.07-2.38-2.2a9.75,9.75,0,0,0-.8-.64,1.77,1.77,0,0,1-.81-1.68,1.47,1.47,0,0,1,1.51-1.26l5.33.79,2.17.93" transform="translate(-31.7 -239.99)" fill="none" stroke="#373737" stroke-miterlimit="10"/><rect x="87.79" y="330.9" width="7.28" height="5.5" rx="0.74" transform="translate(-278.17 19.42) rotate(-62.28)" fill="none" stroke="#373737" stroke-miterlimit="10"/><path d="M83.47,329.62a.52.52,0,0,0-.52-.53.53.53,0,0,0-.53.53.52.52,0,0,0,.53.52A.52.52,0,0,0,83.47,329.62Z" transform="translate(-31.7 -239.99)" fill="none"/><rect x="53.23" y="367.34" width="39.87" height="5.2" rx="0.51" transform="translate(-320.06 22.66) rotate(-62.28)" fill="none" stroke="#373737" stroke-miterlimit="10"/><path d="M66.73,385.05a1.54,1.54,0,1,0-1.54,1.54A1.54,1.54,0,0,0,66.73,385.05Z" transform="translate(-31.7 -239.99)" fill="none" stroke="#373737" stroke-miterlimit="10"/><rect x="77.93" y="342.67" width="16.97" height="4.09" transform="translate(-290.64 20.9) rotate(-62.28)" fill="none" stroke="#373737" stroke-miterlimit="10"/><path d="M166.83,375.05l13.57-28.88a6.12,6.12,0,0,0,.27-4.49L175.51,326" transform="translate(-31.7 -239.99)" fill="none" stroke="#373737" stroke-miterlimit="10"/><path d="M248.47,314s.25-5.91-7.67-5.91-63.91,2.14-63.91,2.14-6.66.37-6.79,5.91v8.39a1.37,1.37,0,0,0,1.43,1.37l42.1-1.46Z" transform="translate(-31.7 -239.99)" fill="none" stroke="#373737" stroke-miterlimit="10"/><path d="M138.53,389.13c-16.7,0-22.09-9.81-22.65-10.93l-.11-.22L99.54,342.57a.3.3,0,0,1,0-.08,34.74,34.74,0,0,1,.15-25.19l.09-.18,17.83-36.63a1.23,1.23,0,0,1,1.64-.57L129.67,285a1.25,1.25,0,0,1,.57,1.65L112.5,323.11l0,.08a20.34,20.34,0,0,0,.08,14s0,.07,0,.1l15.73,34.3a1.57,1.57,0,0,0,.2.3c.72.82,3.36,3.18,10,3.18,11.87,0,40.56-1,44-1.09h.12c1-.15,5.9-1.08,7.66-5.3l.12-.28s4.67-9.92,9.39-19.85c2.75-5.78,5-10.38,6.58-13.7.93-1.91,1.72-3.5,2.3-4.62a17,17,0,0,1,1.65-2.76c4.86-8,13.31-12.51,25.13-13.49l.33,0,13.37-.46a1.23,1.23,0,0,1,1.27,1.19l.4,11.62a1.23,1.23,0,0,1-1.19,1.27l-13.18.45c-10.55.92-13.23,5.33-14.11,6.79a10.54,10.54,0,0,1-.77,1.12c-1.83,3.41-10.62,21.86-18.35,38.32C199,384.12,189,387.54,183.66,388l-.36,0C182,388.06,151.33,389.13,138.53,389.13Zm72.54-62.56a6.36,6.36,0,0,0-.57.61C210.68,327,210.87,326.77,211.07,326.57Zm4.27-1.9h0Z" transform="translate(-31.7 -239.99)" fill="none" stroke="#373737" stroke-miterlimit="10"/><line x1="96.13" y1="44.11" x2="102.72" y2="32.34" fill="none" stroke="#373737" stroke-miterlimit="10"/><path d="M123.25,254l2.72,7.14a9.38,9.38,0,0,1,.61,3.31v1.22" transform="translate(-31.7 -239.99)" fill="none" stroke="#373737" stroke-miterlimit="10"/><path d="M122.12,254.65H124a1.05,1.05,0,0,0,1-.87c.39-2.26,1.21-8.51-.78-12.72a1,1,0,0,0-.93-.57h-1.15a1,1,0,0,0-.42.09c-.65.31-2.25,1.6-2.25,7s1.6,6.69,2.25,7A1,1,0,0,0,122.12,254.65Z" transform="translate(-31.7 -239.99)" fill="none" stroke="#373737" stroke-miterlimit="10"/><path d="M121.7,240.58a21.4,21.4,0,0,1,1.26,9.9" transform="translate(-31.7 -239.99)" fill="none" stroke="#373737" stroke-linecap="round" stroke-linejoin="round" stroke-width="0.75"/><polyline points="91.58 41.87 94.87 35.98 90.91 34.04 89.83 26.75 91.98 26.12 96.95 25.66 97.2 27.6 98.89 27.33" fill="none" stroke="#373737" stroke-miterlimit="10"/><path d="M136.47,265a4,4,0,1,0,1.73,4.67" transform="translate(-31.7 -239.99)" fill="none" stroke="#373737" stroke-miterlimit="10"/><path d="M132.81,267.22a2.36,2.36,0,1,1,1.14,3.13A2.36,2.36,0,0,1,132.81,267.22Z" transform="translate(-31.7 -239.99)" fill="none" stroke="#373737" stroke-miterlimit="10"/><path d="M139.9,269.08l-4.57,1.5h-.09a2.41,2.41,0,0,1-1.44-.17,2.36,2.36,0,0,1,.56-4.46l0,0,4.08-1.34" transform="translate(-31.7 -239.99)" fill="none" stroke="#373737" stroke-miterlimit="10"/><path d="M137.21,265.75a2.36,2.36,0,1,1,1.14,3.13A2.36,2.36,0,0,1,137.21,265.75Z" transform="translate(-31.7 -239.99)" fill="none" stroke="#373737" stroke-miterlimit="10"/></svg>