<svg xmlns="http://www.w3.org/2000/svg" width="94.56" height="88.27" viewBox="0 0 94.56 88.27"><path d="M185,282.3a6.35,6.35,0,1,0,6.34,6.35A6.36,6.36,0,0,0,185,282.3Zm3.4,6.35a3.41,3.41,0,1,1-3.4-3.41A3.41,3.41,0,0,1,188.41,288.65Z" transform="translate(-151.17 -268.05)" fill="#171717"/><rect x="30.89" y="42.66" width="5.88" height="2.94" fill="#171717"/><rect x="30.89" y="36.78" width="5.88" height="2.94" fill="#171717"/><path d="M217.37,268.05h-8.83a1.39,1.39,0,0,0-1.47,1.47v1.91l-6.47,2.5a1.63,1.63,0,0,0-.88,1.47v5.89h-7.51a10.21,10.21,0,0,0-14.41,0h-7.51V275.4a1.29,1.29,0,0,0-.88-1.32l-6.47-2.65v-1.91a1.39,1.39,0,0,0-1.47-1.47h-8.83a1.39,1.39,0,0,0-1.47,1.47v5.88a1.39,1.39,0,0,0,1.47,1.47h8.83a1.39,1.39,0,0,0,1.47-1.47v-.73l4.41,1.76v4.86h-1.47a1.39,1.39,0,0,0-1.47,1.47v1.47h-8.83v2.94h8.83v1.47a1.44,1.44,0,0,0,1.18,1.48L175.3,292a11.2,11.2,0,0,0,2.5,4h-3.24a11.65,11.65,0,0,0-11.62,11.62v30.9a6.06,6.06,0,0,0,6,6h7.21v2.94a8.83,8.83,0,1,0,17.65,0v-2.94H201a6.06,6.06,0,0,0,6-6v-30.9A11.64,11.64,0,0,0,195.45,296h-3.24a9.67,9.67,0,0,0,2.51-4l9.71-1.91a1.44,1.44,0,0,0,1.17-1.48v-1.47h8.83v-2.94H205.6v-1.47a1.39,1.39,0,0,0-1.47-1.47h-1.47v-4.86l4.41-1.76v.73a1.39,1.39,0,0,0,1.47,1.47h8.83a1.39,1.39,0,0,0,1.47-1.47v-5.88A1.39,1.39,0,0,0,217.37,268.05ZM160,273.93h-5.89V271H160Zm14.71,14.71v.3l-7.36-1.47v-3.24h8.39A11.35,11.35,0,0,0,174.71,288.64Zm16.18,58.85a5.89,5.89,0,1,1-11.77,0v-10.3h11.77Zm-16.18-13.24v-4.41a10.3,10.3,0,1,1,20.59,0v4.41Zm20.74-35.31a8.69,8.69,0,0,1,8.68,8.68v30.9a3.1,3.1,0,0,1-3.09,3.09h-7.21v-4.42h2.95a1.39,1.39,0,0,0,1.47-1.47v-5.88a13.24,13.24,0,0,0-26.48,0v5.88a1.39,1.39,0,0,0,1.47,1.47h2.94v4.42H169a3.11,3.11,0,0,1-3.09-3.09v-30.9a8.7,8.7,0,0,1,8.68-8.68ZM185,296a7.36,7.36,0,1,1,7.35-7.36A7.29,7.29,0,0,1,185,296Zm17.65-8.53-7.36,1.47v-.3a9.2,9.2,0,0,0-1-4.41h8.39Zm13.24-13.54H210V271h5.88Z" transform="translate(-151.17 -268.05)" fill="#171717"/><path d="M219.88,324.32a5.87,5.87,0,0,0-5.86,5.86v17.28a5.86,5.86,0,0,0,11.72,0V330.18A5.87,5.87,0,0,0,219.88,324.32Z" transform="translate(-151.17 -268.05)" fill="none"/><path d="M230.07,313.88h1.22a1.47,1.47,0,1,0,0-2.93h-1.22a1.47,1.47,0,1,0,0,2.93Z" transform="translate(-151.17 -268.05)" fill="red"/><path d="M224,313.88h1.22a1.47,1.47,0,1,0,0-2.93H224a1.47,1.47,0,1,0,0,2.93Z" transform="translate(-151.17 -268.05)" fill="red"/><path d="M217.88,313.88h1.22a1.47,1.47,0,1,0,0-2.93h-1.22a1.47,1.47,0,0,0,0,2.93Z" transform="translate(-151.17 -268.05)" fill="red"/><path d="M219.88,295a6.35,6.35,0,1,0-3.61-11.55,2.06,2.06,0,0,1,.16.79v2.94a2,2,0,0,1-2,2h-.86A6.35,6.35,0,0,0,219.88,295Zm0-9.75a3.41,3.41,0,1,1-3.4,3.41A3.41,3.41,0,0,1,219.88,285.24Z" transform="translate(-151.17 -268.05)" fill="red"/><path d="M244.26,285.35H235.8a1.47,1.47,0,0,0-.73-.68l-7.22-3a10.54,10.54,0,0,0-8.2-3.61,3.49,3.49,0,0,1-2.28.82h-1.59a10.67,10.67,0,0,0-2.8,1.73,11.78,11.78,0,0,0-1.06,1.06l-1.36.57h3.87a2.05,2.05,0,0,1,.92.23,7.68,7.68,0,0,1,10.92,1.94l.8,1.58a7.58,7.58,0,0,1,0,5.31l-1.07,2a7.65,7.65,0,0,1-12.23,0l-1.09-2a7.52,7.52,0,0,1-.46-2.13h-2.92a10.12,10.12,0,0,0,.47,2.67l-3.05-.84h0a3.47,3.47,0,0,1-1.92,1.08l-5.52,1.09h5a1.49,1.49,0,0,0,.63.37l6.86,1.88a8.9,8.9,0,0,0,.94,1A14,14,0,0,0,206,299a13.74,13.74,0,0,1,1.61,2.44,11,11,0,0,1,6.58-2.19H225.6a11.13,11.13,0,0,1,11.1,11.1v30.53l-.7.71h-7.26V330.18a8.86,8.86,0,0,0-17.72,0V341.6h-2.56a8.1,8.1,0,0,1-2.12,2.94H211v2.92a8.86,8.86,0,0,0,17.72,0v-2.92h7.86a1.5,1.5,0,0,0,1-.43l1.57-1.58a1.42,1.42,0,0,0,.43-1V310.35a14.07,14.07,0,0,0-12.53-13.93,9.92,9.92,0,0,0,.94-1l6.86-1.88a1.49,1.49,0,0,0,.63-.37h8.73a1.47,1.47,0,0,0,1.47-1.47v-4.88A1.47,1.47,0,0,0,244.26,285.35Zm-18.52,62.11a5.86,5.86,0,0,1-11.72,0V330.18a5.86,5.86,0,0,1,11.72,0ZM233,291l-3,.84a10.43,10.43,0,0,0,.5-3.19,10.25,10.25,0,0,0-.4-2.87L233,287Zm9.75-.77H236v-1.94h6.81Z" transform="translate(-151.17 -268.05)" fill="red"/></svg>