<svg xmlns="http://www.w3.org/2000/svg" width="87.7" height="87.69" viewBox="0 0 87.7 87.69"><path d="M385.57,424.17a12,12,0,0,0-11.69,12.18c0,9.8,10.27,19.2,10.71,19.6a1.47,1.47,0,0,0,2,0c.44-.4,10.71-9.8,10.71-19.6A12,12,0,0,0,385.57,424.17Zm0,28.65c-2.47-2.52-8.77-9.6-8.77-16.47a8.78,8.78,0,1,1,17.54,0C394.34,443.21,388,450.3,385.57,452.82Z" transform="translate(-373.88 -368.64)" fill="red"/><path d="M385.57,430a5.85,5.85,0,1,0,5.85,5.85A5.85,5.85,0,0,0,385.57,430Zm0,8.77a2.93,2.93,0,1,1,2.92-2.92A2.92,2.92,0,0,1,385.57,438.79Z" transform="translate(-373.88 -368.64)" fill="red"/><path d="M457.43,377.4l3.93-6.55a1.45,1.45,0,0,0-1.25-2.21H439.65a1.46,1.46,0,0,0-1.46,1.46h0v24.84h2.92v-8.77h19a1.46,1.46,0,0,0,1.25-2.21Zm-16.32,5.85V371.56h16.42l-3.06,5.09a1.46,1.46,0,0,0,0,1.51l3.06,5.09Z" transform="translate(-373.88 -368.64)" fill="red"/><path d="M432.34,386.17h2.92v2.93h-2.92Z" transform="translate(-373.88 -368.64)" fill="#171717"/><path d="M398.42,391.91a11.77,11.77,0,0,1,4.64-2.43l-.74-2.83a14.71,14.71,0,0,0-5.8,3Z" transform="translate(-373.88 -368.64)" fill="#171717"/><path d="M420.46,386.17h5.94v2.93h-5.94Z" transform="translate(-373.88 -368.64)" fill="#171717"/><path d="M415.58,412.48h5.94v2.92h-5.94Z" transform="translate(-373.88 -368.64)" fill="#171717"/><path d="M409.64,415.4v-2.92H406a11.86,11.86,0,0,1-2.06-.18l-.51,2.88a14.78,14.78,0,0,0,2.57.22Z" transform="translate(-373.88 -368.64)" fill="#171717"/><path d="M427.46,412.48h5.94v2.92h-5.94Z" transform="translate(-373.88 -368.64)" fill="#171717"/><path d="M397.44,412.62l1.72-2.37a12,12,0,0,1-3.44-3.94l-2.57,1.38a14.73,14.73,0,0,0,4.29,4.93Z" transform="translate(-373.88 -368.64)" fill="#171717"/><path d="M392.63,394.94a14.56,14.56,0,0,0-1.21,5.85c0,.2,0,.39,0,.58l2.92-.12c0-.15,0-.3,0-.46a11.78,11.78,0,0,1,1-4.68Z" transform="translate(-373.88 -368.64)" fill="#171717"/><path d="M408.59,386.17h5.94v2.93h-5.94Z" transform="translate(-373.88 -368.64)" fill="#171717"/><path d="M429.94,447.56v2.92h3.86a18.57,18.57,0,0,0,2.24-.13l-.34-2.9a17.15,17.15,0,0,1-1.9.11Z" transform="translate(-373.88 -368.64)" fill="#171717"/><path d="M418.06,447.56H424v2.92h-5.94Z" transform="translate(-373.88 -368.64)" fill="#171717"/><path d="M406.19,447.56h5.94v2.92h-5.94Z" transform="translate(-373.88 -368.64)" fill="#171717"/><path d="M447.27,422.69a16.16,16.16,0,0,1,2.15,5l2.84-.69a18.84,18.84,0,0,0-2.55-5.87Z" transform="translate(-373.88 -368.64)" fill="#171717"/><path d="M440.89,445.91l1.3,2.64a19.24,19.24,0,0,0,5.18-3.77l-2.09-2a15.83,15.83,0,0,1-4.39,3.17Z" transform="translate(-373.88 -368.64)" fill="#171717"/><path d="M445.36,416.4a18.73,18.73,0,0,0-5.66-3l-.91,2.77a16.07,16.07,0,0,1,4.79,2.53Z" transform="translate(-373.88 -368.64)" fill="#171717"/><path d="M451,439.53a19,19,0,0,0,1.69-6.18l-2.91-.28a15.84,15.84,0,0,1-1.43,5.22Z" transform="translate(-373.88 -368.64)" fill="#171717"/><path d="M397.26,447.56h2.93v2.92h-2.93Z" transform="translate(-373.88 -368.64)" fill="#171717"/><path d="M406,421.25H433.8a10.23,10.23,0,0,1,0,20.46H400.19v2.93H433.8a13.16,13.16,0,1,0,0-26.31H406a17.54,17.54,0,0,1,0-35.08h29.23v-2.92H406a20.46,20.46,0,0,0,0,40.92Z" transform="translate(-373.88 -368.64)" fill="#171717"/><path d="M433.8,406.64H406a5.85,5.85,0,0,1,0-11.7h29.23V392H406a8.77,8.77,0,0,0,0,17.54H433.8a21.93,21.93,0,1,1,0,43.85H392.88v2.92H433.8a24.85,24.85,0,1,0,0-49.69Z" transform="translate(-373.88 -368.64)" fill="#171717"/></svg>