<svg xmlns="http://www.w3.org/2000/svg" width="86.19" height="82.69" viewBox="0 0 86.19 82.69"><path d="M560.06,319.67h-5a13.07,13.07,0,0,0,.28-3.72c-.12-6.5-1.3-12-3.51-16.3a17.88,17.88,0,0,0-5.25-6.43,12.18,12.18,0,0,0,3-8.33,11,11,0,1,0-22.09,0,1.52,1.52,0,0,0,1.51,1.51h.59a8.47,8.47,0,0,0-.08,1.23,9.1,9.1,0,0,0,7,8.85,21.58,21.58,0,0,0-.58,5.24l-3,2.61-7.6.62L516.53,302a2.91,2.91,0,0,0-2.76,0,2.47,2.47,0,0,0-.9,2.1v6.63a1.52,1.52,0,0,0,1.52,1.51h1.19L513.35,320a1.53,1.53,0,0,0,1,1.88,1.49,1.49,0,0,0,1.15-.13,1.5,1.5,0,0,0,.73-.91l2.48-8.57h3.11c-4.51,14-1.54,23.37,2,31.7H522l-9.37-10.48,2-6.84a1.52,1.52,0,0,0-2.19-1.75,1.49,1.49,0,0,0-.72.91l-1.88,6.49h0a13.08,13.08,0,0,0-12.69,10.12,1.5,1.5,0,0,0,1.14,1.81l1.6.37a10,10,0,0,0,15.26,9.21,9.87,9.87,0,0,0,4-4.78l1.22.28a1.86,1.86,0,0,0,1.4-.09,1.74,1.74,0,0,0,.84-1.14c.07-.35.14-.71.18-1.08H549a11.09,11.09,0,0,0,21.89,0h1a2,2,0,0,0,1.5-.56,1.85,1.85,0,0,0,.52-1.41,14.84,14.84,0,0,0-.52-3.46c1.06-6.51-.14-10.23-1.35-12.75a3.59,3.59,0,0,0,1.46-2.89V322.7Zm7.7,27.35a8.05,8.05,0,0,1-15.7,0Zm-46.21-37.76H515.9V305l6.06,2a3.93,3.93,0,0,0-.43,2C521.53,309.06,521.54,309.16,521.55,309.26Zm38.2,25a11,11,0,0,1,10.62,8,10.12,10.12,0,0,1,.38,1.8h-22A11.14,11.14,0,0,1,559.75,334.22Zm-28.9,2.21a2.88,2.88,0,0,1,2.09-.79h5.7v2.56h-8.57A3.19,3.19,0,0,1,530.85,336.43Zm20.42-15.69c-.8.84-2.19,1.25-4.25,1.25h-4.57a3.29,3.29,0,0,0-3.43,2.11,11.65,11.65,0,0,0-.38,3.93v4.57h-4.19v-6.36c0-7.29,4-8.56,5.66-8.76h12.24A5,5,0,0,1,551.27,320.74ZM537,312.05l.29-.19c.24,1,.51,2,.8,3-2.6.84-6.67,3.43-6.67,11.39v6.53a5.45,5.45,0,0,0-2.76,1.55A6.33,6.33,0,0,0,527,338.2h-2.18c-2.15-6.26-3.77-14.23.2-25.91h11.14A1.48,1.48,0,0,0,537,312.05Zm1.84,29.18c2.34,0,2.83-1.4,2.83-2.56v-9.11h9.81a1.52,1.52,0,1,0,0-3h-9.8a4.82,4.82,0,0,1,.18-1.34c0-.09.06-.16.59-.16H547c2.94,0,5-.72,6.44-2.19l.12-.13h16.86V326a.58.58,0,0,1-.57.57H557.19a1.52,1.52,0,1,0,0,3H569a14.5,14.5,0,0,1,1.76,6.9,14.07,14.07,0,0,0-21-1.09,14.21,14.21,0,0,0-4,8.62H527.13c-.44-1-.82-1.91-1.16-2.76Zm2.29-26.77c-.42-1.37-.8-2.83-1.12-4.36l3.38-2.2a5.48,5.48,0,0,0,2.85-5.06,4.74,4.74,0,0,0-3-3.89,4.8,4.8,0,0,0-4.08.25,14.48,14.48,0,0,1,.51-2.56,9.26,9.26,0,0,0,1.48-.31,10.86,10.86,0,0,0,2.92-1.13c2.35,1.46,7.55,6.14,8.17,19.26Zm1.21-21.75V286.4a2.78,2.78,0,0,0-2.79-3h-8.84a8,8,0,0,1,15.9,1.52C546.61,288.42,545,291.31,542.34,292.71Zm-2.29,9.56a2.06,2.06,0,0,1,2.11-.51,1.71,1.71,0,0,1,1.07,1.37c.07.77-.46,1.56-1.49,2.23l-6,3.9H531v-1.72l2.8-.23a1.5,1.5,0,0,0,.87-.36Zm-7.33-15.87h6.59v7.24q-.34,0-.69,0a6,6,0,0,1-6-6A6.26,6.26,0,0,1,532.72,286.4Zm-8.16,22.44a.76.76,0,0,1,.78-.85l2.57-.2v1.47h-3C524.77,309.26,524.58,309.26,524.56,308.84Zm38.53,10.83-47,28.69a7,7,0,0,1-2.6,2.91,7,7,0,0,1-10.65-6Zm-5.88-13,9.57,10.71v0l-19.27-4.43A10.06,10.06,0,0,1,510.22,335.35Z" transform="translate(-497.07 -273.62)" fill="#171717"/><path d="M579.47,297.57h-17a3.79,3.79,0,0,0-3.79,3.79V320a2.71,2.71,0,0,0,2.7,2.71h18.07a3.81,3.81,0,0,0,3.8-3.8V301.36A3.8,3.8,0,0,0,579.47,297.57Zm-17.58,9.6h18.18v3.2H561.89Zm.6-6.4h17a.61.61,0,0,1,.6.59V304H561.89v-2.61A.61.61,0,0,1,562.49,300.77Zm17,18.74H561.89v-5.94h18.18v5.34A.62.62,0,0,1,579.47,319.51Z" transform="translate(-497.07 -273.62)" fill="red"/></svg>