<svg xmlns="http://www.w3.org/2000/svg" width="73.56" height="73.56" viewBox="0 0 73.56 73.56"><path d="M293.81,430.83h4.71a1.47,1.47,0,1,0,0-2.94h-4.71a1.47,1.47,0,0,0,0,2.94Z" transform="translate(-259.39 -377.28)" fill="#171717"/><path d="M329.12,377.28h-65.9a3.84,3.84,0,0,0-3.83,3.83v51.78a3.84,3.84,0,0,0,3.83,3.83h26l-1,8a35.77,35.77,0,0,0-6.56,3.18h-7.83a1.47,1.47,0,0,0,0,2.94h44.71a1.47,1.47,0,1,0,0-2.94h-7.83a35.16,35.16,0,0,0-6.56-3.18l-1-8h26a3.85,3.85,0,0,0,3.83-3.83V381.11A3.85,3.85,0,0,0,329.12,377.28ZM304.18,447.9h-16a19,19,0,0,1,16,0Zm-12.89-4.1.88-7.08h8l.88,7.08A19.9,19.9,0,0,0,291.29,443.8ZM330,432.89a.89.89,0,0,1-.88.89h-65.9a.9.9,0,0,1-.89-.89V425H330ZM330,422H262.33v-40.9a.88.88,0,0,1,.89-.88h65.9a.87.87,0,0,1,.88.88Z" transform="translate(-259.39 -377.28)" fill="#171717"/><path d="M273.81,387.29h3.64l6.73,20.18a1.25,1.25,0,0,0,.22.41h0a3.83,3.83,0,1,0,2,.59h12.28a8.64,8.64,0,0,0,0,.88,9.27,9.27,0,1,0,9.27-9.26,8.44,8.44,0,0,0-.87,0l2.26-6.79a1.47,1.47,0,0,0-.93-1.86,1.43,1.43,0,0,0-.46-.07H289.11a1.47,1.47,0,1,0,0,2.94H305.9l-1.38,4.12H291.46a1.47,1.47,0,1,0,0,2.94h11.71a9.33,9.33,0,0,0-3.67,4.12H286.64l-6.73-20.18a1.47,1.47,0,0,0-1.4-1h-4.7a1.47,1.47,0,1,0,0,2.94Zm10.59,25.3a.88.88,0,1,1,.88-.88A.87.87,0,0,1,284.4,412.59Zm29.86-3.24a6.33,6.33,0,1,1-6.32-6.32A6.32,6.32,0,0,1,314.26,409.35Z" transform="translate(-259.39 -377.28)" fill="red"/><path d="M304.93,410.67l2.35,1.18a1.48,1.48,0,0,0,1.88-.5l2.36-3.53a1.47,1.47,0,0,0-2.45-1.64l-1.64,2.45-1.19-.59a1.47,1.47,0,0,0-1.31,2.63Z" transform="translate(-259.39 -377.28)" fill="red"/></svg>