<svg xmlns="http://www.w3.org/2000/svg" width="75.54" height="71.81" viewBox="0 0 75.54 71.81"><path d="M205.7,400.21a1.48,1.48,0,0,0,0,3h0a1.48,1.48,0,1,0,0-3Z" transform="translate(-169.01 -366.28)" fill="red"/><path d="M196.93,420.83a1.48,1.48,0,1,0-1.48,1.47h0A1.47,1.47,0,0,0,196.93,420.83Z" transform="translate(-169.01 -366.28)" fill="#171717"/><path d="M186.39,381.33h0a1.48,1.48,0,1,0,1.48,1.48A1.47,1.47,0,0,0,186.38,381.33Z" transform="translate(-169.01 -366.28)" fill="#171717"/><path d="M198.83,426.56l9.38,8.44a.56.56,0,0,0,.47.12l2.06-2.06c.1-.1.29-.3-.24-1l-7.62-9.62Z" transform="translate(-169.01 -366.28)" fill="none"/><path d="M201.53,414.13H176.27v2.09a1,1,0,0,0,.77,1l19.29,7.63,5.2-5.25Z" transform="translate(-169.01 -366.28)" fill="none"/><path d="M234.16,394.43,212.57,399a7.33,7.33,0,0,1,.52,2.7l28.11-.13a8,8,0,0,0-.93-1Z" transform="translate(-169.01 -366.28)" fill="none"/><path d="M201.53,414.13H176.27v2.09a1,1,0,0,0,.77,1l19.29,7.63,5.2-5.25Z" transform="translate(-169.01 -366.28)" fill="none"/><path d="M198.83,426.56l9.38,8.44a.56.56,0,0,0,.47.12l2.06-2.06c.1-.1.29-.3-.24-1l-7.62-9.62Z" transform="translate(-169.01 -366.28)" fill="none"/><path d="M234.16,394.43,212.57,399a7.33,7.33,0,0,1,.52,2.7l28.11-.13a8,8,0,0,0-.93-1Z" transform="translate(-169.01 -366.28)" fill="none"/><path d="M242.36,398.42l-6.4-6.36a34,34,0,1,0-65.08,19.32,4.1,4.1,0,0,0,2.44,2.48v2.36A4,4,0,0,0,176,420l19.94,7.89,10.33,9.29a3.51,3.51,0,0,0,2.34.9,3.09,3.09,0,0,0,2.19-.88l2.07-2.07c1-1,1.58-2.86,0-4.88l-8.34-10.53V414a4,4,0,0,0,2.72-2.57l1.22-2.84a7.44,7.44,0,0,0,4.05-3.92l30.62-.14a1.47,1.47,0,0,0,1.47-1.47C244.56,401,243.85,399.91,242.36,398.42ZM177,417.26a1,1,0,0,1-.77-1v-2.09h25.26v5.51l-5.2,5.25Zm33.46,14.83c.53.67.34.87.24,1l-2.06,2.06a.56.56,0,0,1-.47-.12l-9.38-8.44,4-4.09Zm.29-35.75-.06-.06v0a4.78,4.78,0,0,1-1.2,3.16,4.4,4.4,0,0,1-3.83,6.64l-.19,0a3.49,3.49,0,0,1,.1.79v0a3.55,3.55,0,0,1-.69,2.1l.08,0-.51,1.19c-.33.77-.51.95-1.48.95H179.46a27,27,0,0,1-1-7.39,26.38,26.38,0,0,1,4.72-15.2,1.48,1.48,0,0,0-2.43-1.69,29.36,29.36,0,0,0-5.24,16.89,30,30,0,0,0,.92,7.39h-1.62a1.19,1.19,0,0,1-1.12-.77,31,31,0,1,1,59.14-18.71l-5.12,1.08a28.39,28.39,0,0,0-9.33-12.29,26.08,26.08,0,0,0-15.73-5.27,25.82,25.82,0,0,0-11.34,2.61,1.47,1.47,0,1,0,1.28,2.65,23,23,0,0,1,10.06-2.31,24.27,24.27,0,0,1,22.12,15.23Zm2.3,5.34a7.33,7.33,0,0,0-.52-2.7l21.59-4.55,6.11,6.08a8,8,0,0,1,.93,1Z" transform="translate(-169.01 -366.28)" fill="#171717"/><path d="M205.62,397.41a4.28,4.28,0,1,1-4.28,4.28,4.29,4.29,0,0,1,4.28-4.28m0-3.2a7.48,7.48,0,1,0,7.49,7.48,7.48,7.48,0,0,0-7.49-7.48Z" transform="translate(-169.01 -366.28)" fill="red"/></svg>