<svg xmlns="http://www.w3.org/2000/svg" width="76.01" height="76.01" viewBox="0 0 76.01 76.01"><path d="M346.31,294.73l-13.83-13.82a1.53,1.53,0,0,0-1.1-.46h-3.77a1.51,1.51,0,0,0-1.1.46L324,283.42a1.57,1.57,0,0,0,0,2.2l.16.16-1.57,1.57-.16-.16a1.55,1.55,0,0,0-1.1-.46,1.59,1.59,0,0,0-1.1.46L306.4,301a1.51,1.51,0,0,0-.46,1.1,1.55,1.55,0,0,0,1.56,1.55,1.06,1.06,0,0,0,.25,0,13.26,13.26,0,0,1,7.08.76,28.61,28.61,0,0,1-18,14.65l-2,.54c-.41,0-.82-.05-1.23-.05a13.88,13.88,0,0,0-9.88,4.09L271.2,336.21a1.57,1.57,0,0,0,0,2.2l5,5a1.58,1.58,0,0,0,1.1.45,1.54,1.54,0,0,0,1.1-.45l2.67-2.67,5.34,5.34-2.67,2.67a1.57,1.57,0,0,0,0,2.2l5,5a1.56,1.56,0,0,0,1.1.45A1.54,1.54,0,0,0,291,356l12.57-12.57a14,14,0,0,0,4-11.11l.54-1.95a28.63,28.63,0,0,1,14.65-18,13.27,13.27,0,0,1,.76,7.08,1.56,1.56,0,0,0,1.28,1.79l.25,0a1.55,1.55,0,0,0,1.11-.46L340,307a1.55,1.55,0,0,0,0-2.2l-.15-.16,1.56-1.57.16.16a1.56,1.56,0,0,0,1.1.45,1.54,1.54,0,0,0,1.1-.45l2.52-2.52a1.54,1.54,0,0,0,.45-1.1v-3.77A1.58,1.58,0,0,0,346.31,294.73Zm-51.16,52.72-1.48,1.48-1.48-1.48a13.73,13.73,0,0,0,3,0Zm-3.68,3.69-1.57,1.56-2.82-2.82,1.56-1.57ZM285,327l1.59,1.59a8.67,8.67,0,0,0,12.06,12.06l1.59,1.59A10.89,10.89,0,0,1,285,327Zm12.65,10.45a5.55,5.55,0,0,1-7.85-7.86,5.55,5.55,0,0,1,7.85,7.86Zm4.64-5.23a8.67,8.67,0,0,0-13.5-5.83l-1.59-1.59a10.89,10.89,0,0,1,15.24,15.24l-1.59-1.59A8.56,8.56,0,0,0,302.24,332.24Zm15.34-26.35a12.43,12.43,0,0,1,1.76,1.48l.5.5a13.21,13.21,0,0,1,1.49,1.76,31.62,31.62,0,0,0-8,5.82A32,32,0,0,0,306,326.9a13.94,13.94,0,0,0-5.68-5.68,32.14,32.14,0,0,0,11.45-7.33A31.62,31.62,0,0,0,317.58,305.89Zm19.14,0-9.93,9.93a16.5,16.5,0,0,0-4.74-10.16l-.5-.5a16.47,16.47,0,0,0-10.16-4.74l9.93-9.93Zm2.51-5-1.57,1.57-12.88-12.88,1.57-1.57Zm4.42-4.38V299l-1,1L327.3,284.52l.95-1h2.48ZM278.9,338.57l-1.57,1.57-2.82-2.83,1.56-1.57Zm.86-3.55-1.48-1.48,1.48-1.48A14.64,14.64,0,0,0,279.76,335Z" transform="translate(-270.75 -280.45)" fill="#171717"/><path d="M325.09,306.19a4.07,4.07,0,1,0-4.07-4.07A4.07,4.07,0,0,0,325.09,306.19Zm-.95-4.07a1,1,0,1,1,.95.95A1,1,0,0,1,324.14,302.12Z" transform="translate(-270.75 -280.45)" fill="#171717"/><path d="M338.76,331.18a1.54,1.54,0,0,0-1.1-.45h-8.15L317.4,318.61l-.22-.21-.21.21-1.77,1.78-.22.21.22.21,11.46,11.47-4.08,4.09-10.21-10.22-.21-.21-.22.21-1.77,1.78-.21.21.21.22L321,339.21v8.16a1.59,1.59,0,0,0,.46,1.1l6.28,6.28a1.59,1.59,0,0,0,1.1.46h8.8a1.55,1.55,0,0,0,1.1-.46l6.29-6.28a1.58,1.58,0,0,0,.45-1.1v-8.8a1.54,1.54,0,0,0-.45-1.1Zm3.63,8v7.51L337,352.09h-7.51l-5.37-5.37v-7.51l5.37-5.37H337Z" transform="translate(-270.75 -280.45)" fill="red"/><path d="M277.49,304.47a1.51,1.51,0,0,0,1.1.46h8.15L298.86,317l.21.22.21-.22,1.78-1.77.21-.22-.21-.21-11.47-11.47,4.08-4.08L306.4,312l.21.21.21-.21,1.78-1.78.21-.21-.21-.22-13.37-13.37v-8.15a1.51,1.51,0,0,0-.46-1.1l-6.28-6.28a1.54,1.54,0,0,0-1.1-.46h-8.8A1.56,1.56,0,0,0,277,282a1.54,1.54,0,0,0,.46,1.1l7.08,7.08v2.48l-1.6,1.61h-2.48l-7.08-7.09a1.56,1.56,0,0,0-2.21,0,1.54,1.54,0,0,0-.45,1.1v8.8a1.56,1.56,0,0,0,.45,1.1Zm9.74-10.05a1.53,1.53,0,0,0,.46-1.1v-3.77a1.51,1.51,0,0,0-.46-1.1l-4.88-4.89h4.39l5.37,5.38v7.5l-5.37,5.38h-7.51l-5.37-5.38v-4.39l4.88,4.88a1.55,1.55,0,0,0,1.11.46h3.77a1.54,1.54,0,0,0,1.1-.46Z" transform="translate(-270.75 -280.45)" fill="red"/><path d="M335.15,337h-3.77a1.51,1.51,0,0,0-1.1.46L327.76,340a1.54,1.54,0,0,0-.45,1.1v3.77a1.54,1.54,0,0,0,.45,1.1l2.52,2.52a1.54,1.54,0,0,0,1.1.45h3.77a1.54,1.54,0,0,0,1.1-.45l2.51-2.52a1.51,1.51,0,0,0,.46-1.1v-3.77a1.51,1.51,0,0,0-.46-1.1l-2.51-2.51A1.51,1.51,0,0,0,335.15,337Zm1,4.72v2.48l-1.61,1.6H332l-1.6-1.6v-2.48l1.6-1.61h2.48Z" transform="translate(-270.75 -280.45)" fill="red"/></svg>