<svg xmlns="http://www.w3.org/2000/svg" width="74.19" height="75.31" viewBox="0 0 74.19 75.31"><path d="M160,204a1.47,1.47,0,0,0-1.47,1.47,1.51,1.51,0,0,0,.34.95h0l.09.1a23.59,23.59,0,0,1-25.15,38.34l-.13,0h0a1.42,1.42,0,0,0-.42-.06,1.47,1.47,0,0,0-.42,2.88,26.52,26.52,0,0,0,28.29-43.1A1.49,1.49,0,0,0,160,204Z" transform="translate(-104.65 -184.96)"/><circle cx="50.88" cy="16.74" r="1.47" fill="red"/><path d="M150.76,197.66a26.52,26.52,0,0,0-28.4,43,1.44,1.44,0,0,0,1.13.53,1.47,1.47,0,0,0,1.12-2.42h0l-.09-.1a23.58,23.58,0,0,1,25.24-38.28h0a1.52,1.52,0,0,0,.57.11,1.47,1.47,0,0,0,1.47-1.47A1.48,1.48,0,0,0,150.76,197.66Z" transform="translate(-104.65 -184.96)"/><circle cx="23.31" cy="58.57" r="1.47" fill="red"/><path d="M137.5,209.94a6.11,6.11,0,1,0,1.79,4.32A6.08,6.08,0,0,0,137.5,209.94Zm-2.07,6.56a3.17,3.17,0,0,1-4.49-4.48,3.18,3.18,0,0,1,5.42,2.24A3.16,3.16,0,0,1,135.43,216.5Z" transform="translate(-104.65 -184.96)" fill="red"/><path d="M149.09,208.82,132,234.8a1.46,1.46,0,0,0,2.45,1.6l17.13-26a1.47,1.47,0,0,0-2.45-1.61Z" transform="translate(-104.65 -184.96)" fill="red"/><path d="M154.63,226.64a6.11,6.11,0,1,0,1.79,4.32A6.1,6.1,0,0,0,154.63,226.64Zm-2.08,6.56a3.12,3.12,0,0,1-2.24.93,3.17,3.17,0,0,1-2.24-5.41,3.19,3.19,0,0,1,2.24-.93,3.18,3.18,0,0,1,3.17,3.17A3.12,3.12,0,0,1,152.55,233.2Z" transform="translate(-104.65 -184.96)" fill="red"/><path d="M175.47,222.61c0-.5.7-1.38,1.39-2.25,1.12-1.41,2.24-2.82,1.93-4.51s-1.88-2.63-3.45-3.54c-.92-.54-1.84-1.07-2-1.46a5.58,5.58,0,0,1,.57-2.41c.59-1.69,1.19-3.36.33-4.83s-2.63-1.77-4.39-2.07a5.71,5.71,0,0,1-2.33-.65,5.6,5.6,0,0,1-.25-2.41c0-1.79,0-3.57-1.28-4.66s-3-.79-4.81-.49a5.6,5.6,0,0,1-2.43.17,5.8,5.8,0,0,1-1.06-2.2c-.6-1.68-1.21-3.38-2.82-4s-3.16.27-4.73,1.14a5.71,5.71,0,0,1-2.35,1c-.44-.08-1.15-.89-1.86-1.71-1.21-1.38-2.43-2.77-4.2-2.77s-3,1.39-4.2,2.77c-.71.82-1.42,1.63-1.86,1.71a5.71,5.71,0,0,1-2.35-1c-1.57-.87-3.13-1.74-4.73-1.14s-2.22,2.3-2.82,4a5.8,5.8,0,0,1-1.06,2.2,5.59,5.59,0,0,1-2.43-.17c-1.76-.3-3.51-.61-4.81.49s-1.29,2.87-1.28,4.66a5.63,5.63,0,0,1-.25,2.41,5.71,5.71,0,0,1-2.33.65c-1.76.29-3.52.59-4.39,2.07s-.26,3.14.33,4.83a5.58,5.58,0,0,1,.57,2.41c-.14.39-1.06.92-2,1.46-1.57.91-3.14,1.82-3.45,3.54s.8,3.1,1.93,4.51c.69.87,1.39,1.75,1.39,2.25s-.7,1.38-1.39,2.25c-1.13,1.42-2.24,2.82-1.93,4.51s1.88,2.64,3.45,3.55c.92.53,1.84,1.07,2,1.46a5.58,5.58,0,0,1-.57,2.41c-.59,1.68-1.19,3.36-.33,4.83s2.63,1.77,4.39,2.07a5.56,5.56,0,0,1,2.33.65,5.58,5.58,0,0,1,.25,2.41c0,1.78,0,3.56,1.28,4.66s3.05.79,4.81.48a5.76,5.76,0,0,1,2.43-.17,5.8,5.8,0,0,1,1.06,2.2c.6,1.69,1.2,3.38,2.82,4s3.16-.28,4.73-1.15a5.71,5.71,0,0,1,2.35-1c.44.08,1.15.89,1.86,1.71,1.21,1.38,2.43,2.78,4.2,2.78s3-1.4,4.2-2.78c.71-.82,1.42-1.63,1.86-1.7a5.52,5.52,0,0,1,2.35,1c1.57.87,3.13,1.74,4.73,1.15s2.22-2.3,2.82-4a5.8,5.8,0,0,1,1.06-2.2,5.94,5.94,0,0,1,2.43.17c1.76.31,3.51.62,4.81-.48s1.29-2.88,1.28-4.66a5.58,5.58,0,0,1,.25-2.41,5.56,5.56,0,0,1,2.33-.65c1.76-.3,3.52-.6,4.39-2.07s.26-3.15-.33-4.83a5.58,5.58,0,0,1-.57-2.41c.14-.39,1.06-.93,2-1.46,1.57-.91,3.14-1.83,3.45-3.55s-.81-3.09-1.93-4.51C176.17,224,175.47,223.11,175.47,222.61Zm-1.6,7.77c-1.37.8-2.75,1.6-3.26,3s0,2.9.55,4.4c.37,1.05.74,2.09.57,2.38s-1.26.47-2.35.65c-1.57.27-3.14.53-4.08,1.65s-.94,2.72-.94,4.32a5.34,5.34,0,0,1-.24,2.41c-.25.21-1.33,0-2.42-.17-1.56-.28-3.13-.55-4.41.2s-1.81,2.24-2.34,3.73c-.38,1-.76,2.11-1.08,2.23s-1.31-.41-2.29-1c-1.41-.78-2.82-1.56-4.29-1.3s-2.49,1.46-3.55,2.66c-.77.88-1.54,1.77-2,1.77s-1.23-.89-2-1.77c-1.05-1.2-2.09-2.39-3.54-2.66s-2.89.52-4.29,1.3c-1,.55-1.95,1.09-2.29,1s-.7-1.18-1.08-2.23c-.53-1.49-1.07-3-2.34-3.73s-2.85-.47-4.42-.2c-1.08.19-2.16.38-2.41.17a5.44,5.44,0,0,1-.25-2.41c0-1.6,0-3.19-.93-4.32s-2.51-1.38-4.09-1.65c-1.08-.18-2.17-.36-2.34-.65s.2-1.33.57-2.38c.53-1.5,1.07-3,.55-4.4s-1.89-2.18-3.26-3c-1-.57-2-1.15-2-1.52s.63-1.28,1.35-2.17c1-1.28,2-2.56,2-4.08s-1-2.8-2-4.07c-.72-.9-1.42-1.79-1.35-2.17s1-1,2-1.53c1.37-.8,2.74-1.59,3.26-3s0-2.9-.55-4.41c-.37-1-.74-2.09-.57-2.37s1.26-.48,2.34-.66c1.58-.26,3.15-.53,4.09-1.65s.94-2.72.93-4.31c0-1.1,0-2.2.25-2.41s1.33,0,2.41.17c1.57.27,3.14.54,4.42-.21s1.81-2.23,2.34-3.73c.38-1,.75-2.11,1.08-2.23s1.31.42,2.29,1c1.4.78,2.82,1.57,4.29,1.3s2.49-1.46,3.54-2.66c.77-.88,1.55-1.77,2-1.77s1.22.89,2,1.77c1.06,1.2,2.1,2.4,3.55,2.66s2.88-.52,4.29-1.3c1-.54,1.95-1.08,2.29-1s.7,1.18,1.08,2.23c.53,1.5,1.06,3,2.34,3.73s2.85.48,4.41.21c1.09-.19,2.17-.38,2.42-.17s.25,1.31.24,2.41c0,1.59,0,3.19.94,4.31s2.51,1.39,4.08,1.65c1.09.18,2.18.37,2.35.66s-.2,1.33-.57,2.37c-.53,1.51-1.07,3-.55,4.41s1.89,2.17,3.26,3c1,.57,2,1.15,2,1.53s-.63,1.27-1.35,2.17c-1,1.27-2,2.56-2,4.07s1,2.8,2,4.08c.72.89,1.42,1.78,1.35,2.17S174.86,229.81,173.87,230.38Z" transform="translate(-104.65 -184.96)"/></svg>