<svg xmlns="http://www.w3.org/2000/svg" width="84.01" height="84.04" viewBox="0 0 84.01 84.04"><path d="M517.85,450.78A30.84,30.84,0,1,0,487,419.94,30.88,30.88,0,0,0,517.85,450.78Zm-22.22-30.84a1.52,1.52,0,0,0-1.52-1.52h-4a27.7,27.7,0,0,1,26.2-26.2v4a1.52,1.52,0,0,0,3,0v-4a27.72,27.72,0,0,1,26.2,26.2h-5.38a1.52,1.52,0,1,0,0,3h5.38a27.7,27.7,0,0,1-26.2,26.2v-4a1.52,1.52,0,1,0-3,0v4a27.69,27.69,0,0,1-26.2-26.2h4A1.52,1.52,0,0,0,495.63,419.94Z" transform="translate(-470.25 -372.35)" fill="#171717"/><path d="M549.39,401.75c-.39-.68-.82-1.37-1.27-2l3.38-3.37a1.53,1.53,0,0,0,0-2.15l-7.89-7.89a1.53,1.53,0,0,0-2.15,0l-3.38,3.37a36.29,36.29,0,0,0-18.71-6.12v-8.16H529a1.52,1.52,0,0,0,0-3H506.68a1.52,1.52,0,1,0,0,3h9.65v8.18a36.17,36.17,0,0,0-30,18.1h-7.61a1.52,1.52,0,0,0,0,3h8.38l.1,0h0a1.5,1.5,0,0,0,1.31-.77,33.4,33.4,0,1,1,0,32.05,1.53,1.53,0,0,0-1.34-.77l-.09,0h-8.38a1.52,1.52,0,1,0,0,3h7.61a36.15,36.15,0,0,0,22.07,16.91,36.66,36.66,0,0,0,9.49,1.25,36.43,36.43,0,0,0,31.47-54.63Zm-1.12-6.49-2,2a36.66,36.66,0,0,0-5.74-5.74l2-2Z" transform="translate(-470.25 -372.35)" fill="#171717"/><path d="M484.46,419.94a1.52,1.52,0,0,0-1.52-1.52H471.77a1.52,1.52,0,0,0,0,3h11.17A1.52,1.52,0,0,0,484.46,419.94Z" transform="translate(-470.25 -372.35)" fill="red"/><path d="M474.56,413.09h9.78a1.53,1.53,0,0,0,0-3h-9.78a1.53,1.53,0,0,0,0,3Z" transform="translate(-470.25 -372.35)" fill="red"/><path d="M485.86,428.32a1.52,1.52,0,0,0-1.52-1.52h-9.78a1.52,1.52,0,0,0,0,3h9.78A1.52,1.52,0,0,0,485.86,428.32Z" transform="translate(-470.25 -372.35)" fill="red"/><path d="M514,429.4h0a1.53,1.53,0,0,0,2.15,0L535.54,410a1.53,1.53,0,0,0,0-2.16,1.51,1.51,0,0,0-2.11,0l-18.34,18.33L506.83,418a1.48,1.48,0,0,0-1.05-.43h0a1.53,1.53,0,0,0-1.07,2.58Z" transform="translate(-470.25 -372.35)" fill="red"/></svg>