<svg xmlns="http://www.w3.org/2000/svg" width="78.8" height="88.27" viewBox="0 0 78.8 88.27"><path d="M422.64,278.69l-6.5,6.5-3-3.06a1.49,1.49,0,1,0-2.12,2.1l4.08,4.13a1.5,1.5,0,0,0,1.06.44h0a1.5,1.5,0,0,0,1.06-.44l7.56-7.56a1.5,1.5,0,0,0,0-2.11A1.48,1.48,0,0,0,422.64,278.69Z" transform="translate(-378.72 -268.05)" fill="red"/><path d="M418.12,268.05a15.16,15.16,0,0,0-9.07,27.32v18.39a1.49,1.49,0,0,0,.72,1.28,1.46,1.46,0,0,0,.78.22,1.45,1.45,0,0,0,.68-.16l6.89-3.5,6.89,3.5a1.5,1.5,0,0,0,2.18-1.34V295.37a15.16,15.16,0,0,0-9.07-27.32Zm6.07,43.27-5.39-2.74a1.48,1.48,0,0,0-.68-.16,1.51,1.51,0,0,0-.68.16l-5.39,2.74V297.13a15.14,15.14,0,0,0,12.14,0Zm2.69-19.63a12.39,12.39,0,0,1-3.28,2.42,12.23,12.23,0,1,1,3.28-2.42Z" transform="translate(-378.72 -268.05)" fill="red"/><path d="M440,312.51a3.16,3.16,0,0,0,3,2.19h.73v-6.31H443a3.15,3.15,0,0,0-3.15,3.15,2.92,2.92,0,0,0,.13.9Z" transform="translate(-378.72 -268.05)" fill="none"/><path d="M410.43,324.62h3a.73.73,0,0,0,.73-.73v-3.45a.73.73,0,0,0-.73-.73H402.18a5.91,5.91,0,0,0-5.81,4.91h14.06Z" transform="translate(-378.72 -268.05)" fill="none"/><path d="M457.52,338.78a11.4,11.4,0,0,0-11.39-11.39H444.5l-3-9.78a6.32,6.32,0,0,0,1.45.17h2.27a1.54,1.54,0,0,0,1.54-1.54v-9.39a1.54,1.54,0,0,0-1.54-1.54H443a6.18,6.18,0,0,0-3.93,1.4v-1.94a1.54,1.54,0,0,0-1.54-1.54h-8.32v3.08H436v1.84h-6.78v3.08h1.43L432.29,333l-5.49,5.48H415l-2.57-10.77h1a3.81,3.81,0,0,0,3.8-3.81v-3.45a3.81,3.81,0,0,0-3.8-3.81H402.18a9,9,0,0,0-9,9v0a21,21,0,0,0-14.5,19.92,1.53,1.53,0,0,0,1.54,1.53h6.89a10.73,10.73,0,0,0,3.12,6.16h-10a1.54,1.54,0,1,0,0,3.07H456a1.54,1.54,0,1,0,0-3.07h-1.7a10.73,10.73,0,0,0,1.87-12.93A1.55,1.55,0,0,0,457.52,338.78ZM443,308.39h.73v6.31H443a3.16,3.16,0,0,1-3-2.19l0-.07a2.92,2.92,0,0,1-.13-.9A3.15,3.15,0,0,1,443,308.39Zm-40.8,11.32h11.24a.73.73,0,0,1,.73.73v3.45a.73.73,0,0,1-.73.73H396.37A5.91,5.91,0,0,1,402.18,319.71ZM386.79,344a11.14,11.14,0,0,1,11-9.59,1.54,1.54,0,1,0,0-3.08A14.21,14.21,0,0,0,383.69,344h-1.82a17.87,17.87,0,0,1,17.78-16.31h9.56l3,12.66a1.52,1.52,0,0,0,1.5,1.18h13.69a1.54,1.54,0,0,0,1.09-.45l6.45-6.42a1.55,1.55,0,0,0,.44-1.21l-1.7-22.23h2.66l.63,2.06c0,.06,0,.11.05.16l4.84,15.92a1.54,1.54,0,0,0,1.47,1.1h2.77a8.32,8.32,0,0,1,8.17,6.77H437.36a1.54,1.54,0,0,0-1.09.45L430,344ZM398,353.24h-.35a7.71,7.71,0,0,1-7.36-6.16h15.08A7.73,7.73,0,0,1,398,353.24Zm12.86,0h-5.5a10.81,10.81,0,0,0,3.13-6.16h22.12a1.54,1.54,0,0,0,1.09-.45l5.06-5.06a10.72,10.72,0,0,0,2.47,11.67Zm36.08,0h-.35a7.71,7.71,0,0,1-7.52-7.69,7.63,7.63,0,0,1,2.05-5.23h11.29a7.58,7.58,0,0,1,2.05,5.23A7.7,7.7,0,0,1,446.92,353.24Z" transform="translate(-378.72 -268.05)" fill="#171717"/><path d="M446.75,340.93a4.62,4.62,0,1,0,4.61,4.62A4.62,4.62,0,0,0,446.75,340.93Zm0,6.15a1.54,1.54,0,1,1,1.54-1.53A1.54,1.54,0,0,1,446.75,347.08Z" transform="translate(-378.72 -268.05)" fill="#171717"/><path d="M450,311.55a1.53,1.53,0,0,0,1.54,1.53H456a1.54,1.54,0,1,0,0-3.07h-4.4A1.54,1.54,0,0,0,450,311.55Z" transform="translate(-378.72 -268.05)" fill="#171717"/><path d="M450.56,319.12a1.54,1.54,0,0,0,2.18-2.18l-1.54-1.54a1.54,1.54,0,0,0-2.18,2.18Z" transform="translate(-378.72 -268.05)" fill="#171717"/><path d="M450.12,308.13a1.56,1.56,0,0,0,1.09-.45l1.53-1.53a1.54,1.54,0,0,0-2.18-2.18L449,305.5a1.55,1.55,0,0,0,0,2.18A1.53,1.53,0,0,0,450.12,308.13Z" transform="translate(-378.72 -268.05)" fill="#171717"/><path d="M404.42,334.62a1.54,1.54,0,0,0,.23,2.15h0l.18.13a1.54,1.54,0,0,0,1.7-2.57A1.54,1.54,0,0,0,404.42,334.62Z" transform="translate(-378.72 -268.05)" fill="#171717"/></svg>