<svg xmlns="http://www.w3.org/2000/svg" width="74.06" height="74.06" viewBox="0 0 74.06 74.06"><path d="M84.2,376.92c-15.69,0-28.45,13.42-28.45,29.91,0,16.09,26.29,42.59,27.41,43.71a1.47,1.47,0,0,0,2.08,0c1.12-1.12,27.41-27.6,27.41-43.71C112.65,390.34,99.89,376.92,84.2,376.92Zm25.49,29.91c0,13.24-20.82,35.68-25.49,40.55-4.67-4.87-25.49-27.3-25.49-40.55,0-14.87,11.43-27,25.49-27S109.69,392,109.69,406.83Z" transform="translate(-47.17 -376.92)" fill="#171717"/><path d="M84.2,383.05a22.32,22.32,0,1,0,22.32,22.31A22.34,22.34,0,0,0,84.2,383.05Zm0,41.68a19.37,19.37,0,1,1,19.36-19.37A19.38,19.38,0,0,1,84.2,424.73Z" transform="translate(-47.17 -376.92)" fill="red"/><path d="M86.65,396.53h-4.9A1.48,1.48,0,0,0,80.27,398v4.9a1.48,1.48,0,0,0,1.48,1.48h4.9a3.93,3.93,0,0,0,0-7.86Zm-3.43,4.9v-1.95h3.43a1,1,0,1,1,0,1.95Z" transform="translate(-47.17 -376.92)" fill="red"/><path d="M86.65,391.63H76.84a1.47,1.47,0,0,0-1.47,1.47v24.52a1.48,1.48,0,0,0,1.47,1.48h4.91a1.48,1.48,0,0,0,1.47-1.48v-8.33h3.43a8.83,8.83,0,0,0,0-17.66Zm-8.33,24.51V394.58h8.33a5.88,5.88,0,1,1,0,11.76h-4.9a1.47,1.47,0,0,0-1.48,1.47v8.33Z" transform="translate(-47.17 -376.92)" fill="red"/><path d="M76.84,448H48.65a1.48,1.48,0,1,0,0,3H76.84a1.48,1.48,0,1,0,0-3Z" transform="translate(-47.17 -376.92)" fill="#171717"/><path d="M119.75,448H91.56a1.48,1.48,0,1,0,0,3h28.19a1.48,1.48,0,1,0,0-3Z" transform="translate(-47.17 -376.92)" fill="#171717"/></svg>