<svg width="43" height="32" viewBox="0 0 43 32" fill="none" xmlns="http://www.w3.org/2000/svg">
<circle cx="10" cy="23.9999" r="5" fill="white" stroke="#171717" stroke-width="2"/>
<circle cx="26.6987" cy="4.6987" r="2.83648" transform="rotate(-15 26.6987 4.6987)" fill="white" stroke="#171717" stroke-width="2"/>
<path d="M29 13.9999C27.5 13.9999 26 13.9999 23.5 11.4999C20.5835 8.58341 21.16 8.97424 19 12.9999C18.2675 14.3651 17.793 15.1214 17.4529 15.5739C17.0519 16.1073 17.0706 16.8503 17.594 17.2644C18.7639 18.19 20.0862 19.5521 21 20.9999C21.6072 22.4999 21 24.5 21 28" stroke="#171717" stroke-width="3"/>
<circle cx="31" cy="23.9999" r="5" fill="white" stroke="#171717" stroke-width="2"/>
<path d="M1 29.9199H41.5C41.6326 29.9199 41.7597 29.9727 41.8535 30.0664C41.9473 30.1602 42 30.2873 42 30.4199C42 30.5525 41.9473 30.6797 41.8535 30.7734C41.7597 30.8672 41.6326 30.9199 41.5 30.9199H1C0.867391 30.9199 0.740252 30.8672 0.646484 30.7734C0.552741 30.6797 0.5 30.5525 0.5 30.4199C0.500021 30.2873 0.552735 30.1602 0.646484 30.0664C0.740248 29.9727 0.867409 29.9199 1 29.9199ZM4.79004 11.5H9.25C9.38261 11.5 9.50975 11.5527 9.60352 11.6465C9.69728 11.7403 9.75 11.8674 9.75 12C9.75 12.1326 9.69728 12.2597 9.60352 12.3535C9.50975 12.4473 9.38261 12.5 9.25 12.5H4.79004C4.65744 12.5 4.53029 12.4473 4.43652 12.3535C4.34276 12.2597 4.29004 12.1326 4.29004 12C4.29004 11.8674 4.34276 11.7403 4.43652 11.6465C4.53029 11.5527 4.65744 11.5 4.79004 11.5ZM6.79004 7.5H11.25C11.3826 7.5 11.5097 7.55272 11.6035 7.64648C11.6973 7.74025 11.75 7.86739 11.75 8C11.75 8.13261 11.6973 8.25975 11.6035 8.35352C11.5097 8.44728 11.3826 8.5 11.25 8.5H6.79004C6.65744 8.5 6.53029 8.44727 6.43652 8.35352C6.34276 8.25975 6.29004 8.13261 6.29004 8C6.29004 7.86739 6.34275 7.74025 6.43652 7.64648C6.53029 7.55273 6.65744 7.5 6.79004 7.5Z" fill="#FF0200" stroke="#171717"/>
</svg>
