<svg width="55" height="18" viewBox="0 0 55 18" fill="none" xmlns="http://www.w3.org/2000/svg">
<path d="M52.8496 2.87C53.415 2.87 53.9392 2.89952 54.3223 2.92957C54.3856 2.93453 54.445 2.94037 54.5 2.94519V5.83582H51.2598V2.94421C51.3096 2.93975 51.3632 2.93414 51.4199 2.92957C51.7914 2.89957 52.2997 2.87001 52.8496 2.87Z" fill="#171717" stroke="#171717"/>
<path d="M54.5 12.0624V14.9901C54.4282 14.9978 54.3497 15.0075 54.2656 15.0155C53.8691 15.0533 53.364 15.0897 52.9092 15.0897C52.4497 15.0897 51.926 15.0605 51.5127 15.0302C51.422 15.0235 51.3371 15.015 51.2598 15.0087V12.0624H54.5Z" fill="#171717" stroke="#171717"/>
<path d="M38.6514 1.49316V6.19727H38.8623L42.2051 1.88086L42.5059 1.49316H50.373L48.9854 3.1377L44.376 8.60059L49.335 14.8779L50.6143 16.498H42.4668L42.167 16.0986L38.7939 11.6094H38.6514V16.498H32.1426V1.49316H38.6514Z" stroke="#171717" stroke-width="2"/>
<path d="M17.2432 1.49316V16.498H10.6738V7.18262H7.56836V16.498H1V1.49316H17.2432Z" stroke="#171717" stroke-width="2"/>
<path d="M24.7236 1.15503C26.0884 1.15505 27.5798 1.24161 28.7207 1.3269C29.2929 1.36969 29.7812 1.41292 30.127 1.44507C30.2998 1.46113 30.4376 1.4737 30.5322 1.48315C30.5796 1.48788 30.6166 1.4923 30.6416 1.49487C30.6539 1.49614 30.6634 1.49712 30.6699 1.4978C30.6732 1.49815 30.676 1.49859 30.6777 1.49878H30.6807L31.2969 1.56421L31.5127 2.14429V2.14526L31.5137 2.14624C31.514 2.14707 31.5142 2.14807 31.5146 2.14917C31.5155 2.15159 31.5162 2.15522 31.5176 2.15894C31.5203 2.16627 31.524 2.17601 31.5283 2.18823C31.5372 2.21324 31.5503 2.24892 31.5654 2.2937C31.5957 2.38323 31.637 2.51165 31.6865 2.67554C31.7856 3.00366 31.9157 3.47543 32.0449 4.06616C32.3031 5.24641 32.5605 6.91065 32.5605 8.85718C32.5605 10.8047 32.2953 12.5365 32.0312 13.78C31.899 14.4028 31.7668 14.907 31.666 15.2585C31.6156 15.4344 31.5725 15.5728 31.542 15.6687C31.5268 15.7163 31.5147 15.7536 31.5059 15.78L31.4912 15.824L31.4902 15.825V15.8259L31.2832 16.4226L30.6562 16.4919H30.6533C30.6516 16.4921 30.6487 16.4926 30.6455 16.4929C30.6392 16.4936 30.63 16.4946 30.6182 16.4958C30.5941 16.4984 30.5583 16.5018 30.5127 16.5066C30.4216 16.5161 30.2893 16.5296 30.1221 16.5457C29.7873 16.5779 29.3118 16.621 28.748 16.6638C27.6234 16.7493 26.1322 16.8357 24.6934 16.8357C23.2584 16.8357 21.5093 16.7496 20.1309 16.6648C19.4392 16.6222 18.8358 16.5795 18.4053 16.5476C18.1899 16.5316 18.0172 16.5189 17.8984 16.5095C17.8391 16.5048 17.793 16.5013 17.7617 16.4988C17.7464 16.4975 17.7346 16.4965 17.7266 16.4958C17.7225 16.4955 17.7189 16.495 17.7168 16.4949H17.7139L16.6055 16.4031L16.8135 15.3103L17.4707 11.8669L17.6377 10.991L18.5273 11.0574H18.5293C18.5305 11.0575 18.5326 11.0582 18.5352 11.0583C18.5403 11.0587 18.5483 11.0586 18.5586 11.0593C18.5795 11.0609 18.6107 11.0633 18.6514 11.0662C18.733 11.0719 18.8532 11.0806 19.0049 11.0906C19.3082 11.1105 19.7383 11.1372 20.2441 11.1638C20.3267 11.1682 20.4118 11.1712 20.498 11.1755V6.82593C20.4565 6.82787 20.415 6.82983 20.374 6.83179C19.8559 6.85656 19.3909 6.88255 19.0557 6.9021C18.8882 6.91186 18.753 6.91978 18.6602 6.92554C18.6138 6.92841 18.5779 6.93084 18.5537 6.93237C18.5417 6.93314 18.5324 6.93394 18.5264 6.93433H18.5176L17.6357 6.99194L17.4707 6.12378L16.8135 2.68042L16.6045 1.58472L17.7168 1.49585H17.7207C17.7229 1.49568 17.7264 1.49519 17.7305 1.49487C17.7389 1.49421 17.7516 1.49318 17.7676 1.49194C17.8 1.48942 17.8479 1.48585 17.9092 1.4812C18.0322 1.47187 18.2106 1.45905 18.4326 1.44312C18.8773 1.41121 19.4987 1.36848 20.2031 1.32593C21.6059 1.2412 23.3631 1.15503 24.7236 1.15503Z" stroke="#171717" stroke-width="2"/>
</svg>
