<svg width="0" height="0" class="hidden">
  <symbol xmlns="http://www.w3.org/2000/svg" viewBox="0 0 20 13" id="ic_arr_right">
    <polygon points="19 6 19 5 18 5 18 6 0 6 0 7 18 7 18 8 19 8 19 7 20 7 20 6 19 6"></polygon>
    <rect x="17" y="4" width="1" height="1"></rect>
    <rect x="16" y="3" width="1" height="1"></rect>
    <rect x="15" y="2" width="1" height="1"></rect>
    <rect x="14" y="1" width="1" height="1"></rect>
    <rect x="13" width="1" height="1"></rect>
    <rect x="17" y="8" width="1" height="1"></rect>
    <rect x="16" y="9" width="1" height="1"></rect>
    <rect x="15" y="10" width="1" height="1"></rect>
    <rect x="14" y="11" width="1" height="1"></rect>
    <rect x="13" y="12" width="1" height="1"></rect>
  </symbol>
  <symbol xmlns="http://www.w3.org/2000/svg" viewBox="0 0 20 20" id="ic_buttonUp">
    <rect x="121" y="89" width="15" height="3" transform="translate(141 92) rotate(180)"></rect>
    <rect x="127" y="95" width="15" height="3" transform="translate(115 -127) rotate(90)"></rect>
    <rect x="116" y="94" width="15" height="3" transform="translate(131 102) rotate(180)"></rect>
    <rect x="122" y="100" width="15" height="3" transform="translate(115 -117) rotate(90)"></rect>
  </symbol>
  <symbol xmlns="http://www.w3.org/2000/svg" viewBox="0 0 32.16 29.49" id="ic_cart">
    <circle cx="14.51" cy="25.85" r="2.63"></circle>
    <circle cx="23.6" cy="25.85" r="2.63"></circle>
    <polyline points="1 1 5.74 1 11.03 20.25 27.51 20.25 31.16 6.71 12.93 6.71"></polyline>
  </symbol>
  <symbol xmlns="http://www.w3.org/2000/svg" viewBox="0 0 42.5 29.49" id="ic_checkout_delivery">
    <path d="M676.67,34V30.37a2.29,2.29,0,0,0-2.28-2.28H649a2.29,2.29,0,0,0-2.28,2.28V49.43A2.28,2.28,0,0,0,649,51.71h2a4.87,4.87,0,0,0,9.54,0h13.82a1.5,1.5,0,0,0,.37,0,4.87,4.87,0,0,0,9.55,0h3.24a1.7,1.7,0,0,0,1.7-1.7v-3.4A12.62,12.62,0,0,0,676.67,34ZM658.48,51.71a2.86,2.86,0,0,1-5.37,0,2.74,2.74,0,0,1-.19-1,2.82,2.82,0,0,1,.19-1,2.86,2.86,0,0,1,5.37,0,2.82,2.82,0,0,1,.19,1A2.74,2.74,0,0,1,658.48,51.71Zm16.19-16V49.43a.28.28,0,0,1-.28.28H660.57a4.87,4.87,0,0,0-9.54,0h-2a.28.28,0,0,1-.28-.28V30.37a.29.29,0,0,1,.28-.28h25.36a.29.29,0,0,1,.28.28Zm2,.29A10.59,10.59,0,0,1,685,40h-8.28Zm5.56,15.72a2.86,2.86,0,0,1-5.37,0,2.74,2.74,0,0,1-.19-1,2.82,2.82,0,0,1,.19-1,2.86,2.86,0,0,1,5.37,0,3.06,3.06,0,0,1,.19,1A3,3,0,0,1,682.23,51.71Zm5-2h-2.94a4.87,4.87,0,0,0-4.77-3.87,4.78,4.78,0,0,0-2.87,1V42h9.53a10.65,10.65,0,0,1,1,4.58Z" transform="translate(-646.75 -28.09)"></path>
    <path d="M658,33.17h-4.46a1,1,0,0,0,0,2H658a1,1,0,0,0,0-2Z" transform="translate(-646.75 -28.09)"></path>
    <path d="M658,37.17h-4.46a1,1,0,0,0,0,2H658a1,1,0,0,0,0-2Z" transform="translate(-646.75 -28.09)"></path>
    <path d="M688.25,55.59h-40.5a1,1,0,0,0,0,2h40.5a1,1,0,0,0,0-2Z" transform="translate(-646.75 -28.09)"></path>
  </symbol>
  <symbol xmlns="http://www.w3.org/2000/svg" viewBox="0 0 32.71 29.49" id="ic_checkout_payment">
    <path d="M731.41,28.09H706.13a3.72,3.72,0,0,0-3.71,3.72V53.88a3.71,3.71,0,0,0,3.71,3.71h25.28a3.72,3.72,0,0,0,3.72-3.71V31.81A3.73,3.73,0,0,0,731.41,28.09Zm-11,27.5H706.13a1.72,1.72,0,0,1-1.71-1.71V31.81a1.72,1.72,0,0,1,1.71-1.72h20.28a1.71,1.71,0,0,1,1.71,1.72V37.6h-5.54a5.25,5.25,0,1,0,0,10.49h5.54v5.79a1.71,1.71,0,0,1-1.71,1.71Zm7.7-9.5h-5.54a3.25,3.25,0,1,1,0-6.49h5.54Zm5,7.79a1.72,1.72,0,0,1-1.72,1.71h-1.72a3.67,3.67,0,0,0,.43-1.71V31.81a3.71,3.71,0,0,0-.43-1.72h1.72a1.72,1.72,0,0,1,1.72,1.72Z" transform="translate(-702.42 -28.09)"></path>
    <circle cx="19.85" cy="14.75" r="1"></circle>
  </symbol>
  <symbol xmlns="http://www.w3.org/2000/svg" viewBox="0 0 22.33 29.5" id="ic_checkout_personal">
    <path d="M631.86,40.86a7.87,7.87,0,0,0-6.16-12.77,7.86,7.86,0,0,0-6.16,12.77,11.16,11.16,0,0,0-5,9.31v5.34a2.09,2.09,0,0,0,2.08,2.09h18.17a2.09,2.09,0,0,0,2.08-2.09V50.17A11.17,11.17,0,0,0,631.86,40.86Zm-12-4.89a5.88,5.88,0,1,1,11.75,0,5.88,5.88,0,0,1-8.27,5.36,6,6,0,0,1-2-1.44A5.87,5.87,0,0,1,619.82,36Zm15,19.54a.09.09,0,0,1-.08.09H631.7V48.3a1,1,0,1,0-2,0v7.3h-8V48.3a1,1,0,1,0-2,0v7.3h-3.09a.09.09,0,0,1-.08-.09V50.17a9.17,9.17,0,0,1,4.5-7.88,7.81,7.81,0,0,0,9.34,0,9.18,9.18,0,0,1,4.49,7.88Z" transform="translate(-614.53 -28.09)"></path>
  </symbol>
  <symbol xmlns="http://www.w3.org/2000/svg" viewBox="0 0 38.61 29.49" id="ic_compare">
    <path d="M80.23,46.86l7.4,8.72H72.83l7.4-8.72m0-2a2,2,0,0,0-1.52.7l-7.4,8.72a2,2,0,0,0,1.52,3.3h14.8a2,2,0,0,0,1.53-3.3l-7.4-8.72a2,2,0,0,0-1.53-.7Z" transform="translate(-60.93 -28.09)" fill="currentColor"></path>
    <line x1="1" y1="14.76" x2="37.61" y2="14.76" fill="none" stroke="currentColor" stroke-linecap="round" stroke-linejoin="round" stroke-width="2"></line>
    <circle cx="6.24" cy="6.24" r="5.24" fill="none" stroke="currentColor" stroke-linecap="round" stroke-linejoin="round" stroke-width="2"></circle>
    <circle cx="32.38" cy="6.24" r="5.24" fill="none" stroke="currentColor" stroke-linecap="round" stroke-linejoin="round" stroke-width="2"></circle>
    <line x1="19.31" y1="12.49" x2="19.31" y2="17.75" fill="none" stroke="currentColor" stroke-linecap="round" stroke-linejoin="round" stroke-width="2"></line>
  </symbol>
  <symbol xmlns="http://www.w3.org/2000/svg" viewBox="0 0 25.13 25.96" id="ic_delete">
    <line x1="1" y1="5.94" x2="24.13" y2="5.94" fill="none" stroke="currentColor" stroke-linecap="round" stroke-linejoin="round" stroke-width="2"></line>
    <path d="M11.93,1H13.2a4.21,4.21,0,0,1,4.21,4.21v0a.73.73,0,0,1-.73.73H8.45a.73.73,0,0,1-.73-.73v0A4.21,4.21,0,0,1,11.93,1Z" fill="none" stroke="currentColor" stroke-linecap="round" stroke-linejoin="round" stroke-width="2"></path>
    <rect x="3.63" y="5.94" width="17.88" height="19.02" rx="1.05" stroke-width="2" stroke="currentColor" stroke-linecap="round" stroke-linejoin="round" fill="none"></rect>
    <line x1="7.72" y1="9.99" x2="7.72" y2="20.91" fill="none" stroke="currentColor" stroke-linecap="round" stroke-linejoin="round" stroke-width="2"></line>
  </symbol>
  <symbol xmlns="http://www.w3.org/2000/svg" viewBox="0 0 23.98 29.5" id="ic_edit_info">
    <path d="M504.34,28.09h-13.4a1,1,0,0,0-.71.3l-7.17,7.17a1,1,0,0,0-.29.75V55.19a2.41,2.41,0,0,0,2.41,2.4h19.16a2.41,2.41,0,0,0,2.41-2.4V30.5A2.41,2.41,0,0,0,504.34,28.09Zm-13.4,2.42v5.35a.42.42,0,0,1-.41.41h-5.35Zm13.81,24.68a.41.41,0,0,1-.41.4H485.18a.41.41,0,0,1-.41-.4V38.27h5.76a2.41,2.41,0,0,0,2.41-2.41V30.09h11.4a.42.42,0,0,1,.41.41Z" transform="translate(-482.77 -28.09)"></path>
    <path d="M498.89,42.22h-8.26a1,1,0,0,0,0,2h8.26a1,1,0,0,0,0-2Z" transform="translate(-482.77 -28.09)"></path>
    <path d="M498.89,48.16h-8.26a1,1,0,0,0,0,2h8.26a1,1,0,0,0,0-2Z" transform="translate(-482.77 -28.09)"></path>
  </symbol>
  <symbol xmlns="http://www.w3.org/2000/svg" viewBox="0 0 23.98 29.5" id="ic_edit_pass">
    <path d="M526.88,43.1a4.33,4.33,0,1,0,4.33,4.33A4.33,4.33,0,0,0,526.88,43.1Zm0,6.66a2.33,2.33,0,1,1,2.33-2.33A2.33,2.33,0,0,1,526.88,49.76Z" transform="translate(-514.89 -28.09)"></path>
    <path d="M536.72,37.27h-2.93v-3a6.22,6.22,0,0,0-6.21-6.21h-1.4A6.22,6.22,0,0,0,520,34.3v3H517a2.15,2.15,0,0,0-2.15,2.15v16A2.14,2.14,0,0,0,517,57.59h19.68a2.15,2.15,0,0,0,2.15-2.14v-16A2.15,2.15,0,0,0,536.72,37.27ZM522,34.3a4.22,4.22,0,0,1,4.21-4.21h1.4a4.22,4.22,0,0,1,4.21,4.21v3H522Zm14.9,21.15a.15.15,0,0,1-.15.14H517a.15.15,0,0,1-.15-.14v-16a.15.15,0,0,1,.15-.15h19.68a.15.15,0,0,1,.15.15Z" transform="translate(-514.89 -28.09)"></path>
  </symbol>
  <symbol xmlns="http://www.w3.org/2000/svg" viewBox="0 0 512 384" id="ic_email">
    <path d="M10.69,95.16C81,154.67,204.26,259.36,240.5,292c4.87,4.41,10.08,6.65,15.5,6.65s10.61-2.22,15.47-6.61C307.74,259.38,431,154.67,501.31,95.16a10.66,10.66,0,0,0,1.5-14.72A42.33,42.33,0,0,0,469.33,64H42.67A42.35,42.35,0,0,0,9.19,80.44,10.66,10.66,0,0,0,10.69,95.16Z" transform="translate(0 -64)" fill="currentColor"></path>
    <path d="M505.81,127.41A10.6,10.6,0,0,0,494.44,129C416.51,195,317.05,279.69,285.76,307.89c-17.56,15.85-41.94,15.85-59.54,0-33.36-30.05-145-125-208.66-178.91A10.67,10.67,0,0,0,0,137.08V405.33A42.72,42.72,0,0,0,42.67,448H469.33A42.72,42.72,0,0,0,512,405.33V137.08A10.66,10.66,0,0,0,505.81,127.41Z" transform="translate(0 -64)" fill="currentColor"></path>
  </symbol>
  <symbol xmlns="http://www.w3.org/2000/svg" viewBox="0 0 512 512" id="ic_faq">
    <path d="M346,319a10,10,0,0,0-10,10v69a50.06,50.06,0,0,1-50,50H178a10,10,0,0,0-10,10v19.89L144.15,454a10,10,0,0,0-9.17-6H70a50.06,50.06,0,0,1-50-50V244a50.06,50.06,0,0,1,50-50H171a10,10,0,0,0,0-20H70A70.08,70.08,0,0,0,0,244V398a70.08,70.08,0,0,0,70,70h59.86l41.07,41.07A10,10,0,0,0,188,502l0-34h98a70.08,70.08,0,0,0,70-70V329A10,10,0,0,0,346,319Z"></path>
    <path d="M366.65,0h-25.3C261.2,0,196,65.2,196,145.35s65.2,145.34,145.35,145.34h25.3A145.62,145.62,0,0,0,403.54,286l37.39,37.37a10,10,0,0,0,7.07,2.92,9.87,9.87,0,0,0,3.83-.76,10,10,0,0,0,6.17-9.24V258.4a146.76,146.76,0,0,0,38.21-47.1,143.81,143.81,0,0,0,15.79-66C512,65.2,446.8,0,366.65,0ZM442,245.54a10,10,0,0,0-4,8v38.6l-24.47-24.45a10,10,0,0,0-10-2.49,125.27,125.27,0,0,1-36.87,5.51h-25.3a125.35,125.35,0,1,1,0-250.69h25.3A125.35,125.35,0,0,1,442,245.54Z"></path>
    <path d="M399,109.42a42.43,42.43,0,0,0-39.25-39.25,42,42,0,0,0-31.87,11.28,42.48,42.48,0,0,0-13.45,31,10,10,0,1,0,20,0A22.34,22.34,0,0,1,358.4,90.12a22.34,22.34,0,0,1,3.31,44.08,18.92,18.92,0,0,0-14.91,18.55v24a10,10,0,1,0,20,0V153.55A42.12,42.12,0,0,0,399,109.42Z"></path>
    <path d="M363.87,209.26a10,10,0,1,0,2.93,7.07A10.08,10.08,0,0,0,363.87,209.26Z"></path>
    <path d="M275,310H64a10,10,0,0,0,0,20H275a10,10,0,0,0,0-20Z"></path>
    <path d="M282.07,368.93A10,10,0,1,0,285,376,10.08,10.08,0,0,0,282.07,368.93Z"></path>
    <path d="M235.67,366H64a10,10,0,0,0,0,20H235.67a10,10,0,0,0,0-20Z"></path>
    <path d="M210,254H64a10,10,0,0,0,0,20H210a10,10,0,0,0,0-20Z"></path>
  </symbol>
  <symbol fill="none" xmlns="http://www.w3.org/2000/svg" viewBox="0 0 24 24" id="ic_flickr">
    <path d="M12 0C5.37281 0 0 5.37256 0 12C0 18.6274 5.37281 24 12 24C18.6272 24 24 18.6274 24 12C24 5.37256 18.6272 0 12 0ZM6.94269 16.2932C4.75875 16.2932 2.98852 14.3713 2.98852 12C2.98852 9.62873 4.759 7.70652 6.94269 7.70652C9.12638 7.70652 10.8971 9.62873 10.8971 12C10.8971 14.3713 9.12663 16.2932 6.94269 16.2932ZM16.9431 16.1911C14.6961 16.1911 12.8748 14.292 12.8748 11.9487C12.8748 9.60589 14.6961 7.70652 16.9431 7.70652C19.1897 7.70652 21.0115 9.60589 21.0115 11.9487C21.0115 14.292 19.1897 16.1911 16.9431 16.1911Z" fill="currentColor"></path>
  </symbol>
  <symbol fill="none" xmlns="http://www.w3.org/2000/svg" viewBox="0 0 24 24" id="ic_instagram">
    <path d="M12 2.16094C15.2063 2.16094 15.5859 2.175 16.8469 2.23125C18.0188 2.28281 18.6516 2.47969 19.0734 2.64375C19.6313 2.85938 20.0344 3.12188 20.4516 3.53906C20.8734 3.96094 21.1313 4.35938 21.3469 4.91719C21.5109 5.33906 21.7078 5.97656 21.7594 7.14375C21.8156 8.40937 21.8297 8.78906 21.8297 11.9906C21.8297 15.1969 21.8156 15.5766 21.7594 16.8375C21.7078 18.0094 21.5109 18.6422 21.3469 19.0641C21.1313 19.6219 20.8687 20.025 20.4516 20.4422C20.0297 20.8641 19.6313 21.1219 19.0734 21.3375C18.6516 21.5016 18.0141 21.6984 16.8469 21.75C15.5813 21.8062 15.2016 21.8203 12 21.8203C8.79375 21.8203 8.41406 21.8062 7.15313 21.75C5.98125 21.6984 5.34844 21.5016 4.92656 21.3375C4.36875 21.1219 3.96563 20.8594 3.54844 20.4422C3.12656 20.0203 2.86875 19.6219 2.65313 19.0641C2.48906 18.6422 2.29219 18.0047 2.24063 16.8375C2.18438 15.5719 2.17031 15.1922 2.17031 11.9906C2.17031 8.78438 2.18438 8.40469 2.24063 7.14375C2.29219 5.97187 2.48906 5.33906 2.65313 4.91719C2.86875 4.35938 3.13125 3.95625 3.54844 3.53906C3.97031 3.11719 4.36875 2.85938 4.92656 2.64375C5.34844 2.47969 5.98594 2.28281 7.15313 2.23125C8.41406 2.175 8.79375 2.16094 12 2.16094ZM12 0C8.74219 0 8.33438 0.0140625 7.05469 0.0703125C5.77969 0.126563 4.90313 0.332812 4.14375 0.628125C3.35156 0.9375 2.68125 1.34531 2.01563 2.01562C1.34531 2.68125 0.9375 3.35156 0.628125 4.13906C0.332812 4.90313 0.126563 5.775 0.0703125 7.05C0.0140625 8.33437 0 8.74219 0 12C0 15.2578 0.0140625 15.6656 0.0703125 16.9453C0.126563 18.2203 0.332812 19.0969 0.628125 19.8563C0.9375 20.6484 1.34531 21.3188 2.01563 21.9844C2.68125 22.65 3.35156 23.0625 4.13906 23.3672C4.90313 23.6625 5.775 23.8687 7.05 23.925C8.32969 23.9812 8.7375 23.9953 11.9953 23.9953C15.2531 23.9953 15.6609 23.9812 16.9406 23.925C18.2156 23.8687 19.0922 23.6625 19.8516 23.3672C20.6391 23.0625 21.3094 22.65 21.975 21.9844C22.6406 21.3188 23.0531 20.6484 23.3578 19.8609C23.6531 19.0969 23.8594 18.225 23.9156 16.95C23.9719 15.6703 23.9859 15.2625 23.9859 12.0047C23.9859 8.74688 23.9719 8.33906 23.9156 7.05938C23.8594 5.78438 23.6531 4.90781 23.3578 4.14844C23.0625 3.35156 22.6547 2.68125 21.9844 2.01562C21.3188 1.35 20.6484 0.9375 19.8609 0.632812C19.0969 0.3375 18.225 0.13125 16.95 0.075C15.6656 0.0140625 15.2578 0 12 0Z" fill="currentColor"></path>
    <path d="M12 5.83594C8.59688 5.83594 5.83594 8.59688 5.83594 12C5.83594 15.4031 8.59688 18.1641 12 18.1641C15.4031 18.1641 18.1641 15.4031 18.1641 12C18.1641 8.59688 15.4031 5.83594 12 5.83594ZM12 15.9984C9.79219 15.9984 8.00156 14.2078 8.00156 12C8.00156 9.79219 9.79219 8.00156 12 8.00156C14.2078 8.00156 15.9984 9.79219 15.9984 12C15.9984 14.2078 14.2078 15.9984 12 15.9984Z" fill="currentColor"></path>
    <path d="M19.8469 5.59214C19.8469 6.38902 19.2 7.0312 18.4078 7.0312C17.6109 7.0312 16.9688 6.38433 16.9688 5.59214C16.9688 4.79526 17.6156 4.15308 18.4078 4.15308C19.2 4.15308 19.8469 4.79995 19.8469 5.59214Z" fill="currentColor"></path>
  </symbol>
  <symbol xmlns="http://www.w3.org/2000/svg" viewBox="0 0 390.08 512" id="ic_location">
    <path d="M441.55,133.09C423.52,74.8,376.1,27.37,317.81,9.33,256.12-9.78,190.48.84,140.38,37.76A195.94,195.94,0,0,0,61,194.85,193.38,193.38,0,0,0,99.89,311.79L256,512,412.14,311.78C450.26,261,461,195.83,441.55,133.09ZM256,299.88a105,105,0,1,1,105-105A105.15,105.15,0,0,1,256,299.88Z" transform="translate(-60.96 0)"></path>
    <path d="M256,120a74.92,74.92,0,1,0,75,74.82A74.93,74.93,0,0,0,256,120Z" transform="translate(-60.96 0)"></path>
  </symbol>
  <symbol xmlns="http://www.w3.org/2000/svg" viewBox="0 0 37.05 29.5" id="ic_logout">
    <path d="M558,43.86h13.28a5.87,5.87,0,1,0,0-2H558l2.21-2.21a1,1,0,0,0-1.42-1.42l-3.91,3.92a.87.87,0,0,0-.22.32,1.09,1.09,0,0,0-.08.39h0a1,1,0,0,0,.08.38.87.87,0,0,0,.22.32l3.91,3.92a1,1,0,0,0,.71.29,1,1,0,0,0,.71-.29,1,1,0,0,0,0-1.41ZM577,39a3.85,3.85,0,1,1-3.7,4.87h3.54a1,1,0,0,0,0-2h-3.55A3.85,3.85,0,0,1,577,39Z" transform="translate(-554.58 -28.09)"></path>
    <path d="M576.88,28.09a14.78,14.78,0,0,0-14.44,11.77h2.06a12.75,12.75,0,1,1,0,6h-2.06a14.75,14.75,0,1,0,14.43-17.77Z" transform="translate(-554.58 -28.09)"></path>
  </symbol>
  <symbol xmlns="http://www.w3.org/2000/svg" viewBox="0 0 17.73 18.88" id="ic_percent">
    <line x1="3.56" y1="16.87" x2="14.19" y2="1.97" fill="none" stroke="currentColor" stroke-linecap="round" stroke-linejoin="round" stroke-width="1.5"></line>
    <path d="M123.29,34.39a2.47,2.47,0,1,1-2.46,2.46,2.46,2.46,0,0,1,2.46-2.46m0-1.5a4,4,0,1,0,4,4,4,4,0,0,0-4-4Z" transform="translate(-119.33 -32.89)" fill="currentColor"></path>
    <path d="M133.09,45.34a2.47,2.47,0,1,1-2.46,2.47,2.48,2.48,0,0,1,2.46-2.47m0-1.5a4,4,0,1,0,4,4,4,4,0,0,0-4-4Z" transform="translate(-119.33 -32.89)" fill="currentColor"></path>
  </symbol>
  <symbol xmlns="http://www.w3.org/2000/svg" viewBox="0 0 16 16.02" id="ic_phone">
    <path d="M53.33,85.29a1.53,1.53,0,0,0-2.3,0L50,86.35l-.26-.13L49.36,86a11.73,11.73,0,0,1-2.78-2.54,6.5,6.5,0,0,1-.91-1.44c.27-.25.53-.52.78-.77l.28-.29a1.55,1.55,0,0,0,0-2.34l-.92-.92-.31-.32c-.21-.21-.42-.43-.64-.63a1.58,1.58,0,0,0-1.13-.5,1.65,1.65,0,0,0-1.15.5h0L41.42,78a2.48,2.48,0,0,0-.73,1.58A6.05,6.05,0,0,0,41.12,82a14.75,14.75,0,0,0,2.59,4.31A15.8,15.8,0,0,0,49,90.5a8.06,8.06,0,0,0,3,.88h.22a2.55,2.55,0,0,0,1.95-.84s0,0,0,0c.18-.21.38-.4.59-.61l.44-.44a1.66,1.66,0,0,0,.51-1.17,1.63,1.63,0,0,0-.52-1.16Z" transform="translate(-40.67 -75.36)"></path>
    <path d="M49.32,79.17a4.29,4.29,0,0,1,2.34,1.22,4.35,4.35,0,0,1,1.21,2.33.45.45,0,0,0,.45.38h.07a.46.46,0,0,0,.38-.53,5.27,5.27,0,0,0-4.29-4.28.45.45,0,1,0-.16.89Z" transform="translate(-40.67 -75.36)"></path>
    <path d="M56.67,82.43a8.66,8.66,0,0,0-7.06-7.06.47.47,0,0,0-.53.37.46.46,0,0,0,.38.53,7.75,7.75,0,0,1,6.31,6.31.45.45,0,0,0,.45.38h.07A.45.45,0,0,0,56.67,82.43Z" transform="translate(-40.67 -75.36)"></path>
  </symbol>
  <symbol xmlns="http://www.w3.org/2000/svg" viewBox="0 0 192.9 192.9" id="ic_search">
    <path d="M190.71,180.1,143.63,133A81.29,81.29,0,1,0,133,143.63l47.08,47.08a7.5,7.5,0,0,0,10.61-10.61ZM15,81.19a66.19,66.19,0,1,1,66.19,66.19A66.26,66.26,0,0,1,15,81.19Z"></path>
  </symbol>
  <symbol xmlns="http://www.w3.org/2000/svg" viewBox="0 0 14.87 14.14" id="ic_star">
    <polygon points="7.43 0 9.73 4.66 14.87 5.4 11.15 9.03 12.03 14.14 7.43 11.73 2.84 14.14 3.72 9.03 0 5.4 5.14 4.66 7.43 0"></polygon>
  </symbol>
  <symbol fill="none" xmlns="http://www.w3.org/2000/svg" viewBox="0 0 24 24" id="ic_telegram">
    <path fill-rule="evenodd" clip-rule="evenodd" d="M24 12C24 18.6274 18.6274 24 12 24C5.37258 24 0 18.6274 0 12C0 5.37258 5.37258 0 12 0C18.6274 0 24 5.37258 24 12ZM12.43 8.85893C11.2628 9.3444 8.93014 10.3492 5.43189 11.8733C4.86383 12.0992 4.56626 12.3202 4.53917 12.5363C4.49339 12.9015 4.95071 13.0453 5.57347 13.2411C5.65818 13.2678 5.74595 13.2954 5.83594 13.3246C6.44864 13.5238 7.27283 13.7568 7.70129 13.766C8.08994 13.7744 8.52373 13.6142 9.00264 13.2853C12.2712 11.079 13.9584 9.96381 14.0643 9.93977C14.139 9.92281 14.2426 9.90148 14.3128 9.96385C14.3829 10.0262 14.376 10.1443 14.3686 10.176C14.3233 10.3691 12.5281 12.0381 11.5991 12.9018C11.3095 13.171 11.1041 13.362 11.0621 13.4056C10.968 13.5033 10.8721 13.5958 10.78 13.6846C10.2108 14.2333 9.78391 14.6448 10.8036 15.3168C11.2936 15.6397 11.6858 15.9067 12.0769 16.1731C12.5042 16.4641 12.9303 16.7543 13.4816 17.1157C13.6221 17.2077 13.7562 17.3034 13.8869 17.3965C14.3841 17.751 14.8307 18.0694 15.3826 18.0186C15.7032 17.9891 16.0345 17.6876 16.2027 16.7884C16.6002 14.6631 17.3816 10.0585 17.5622 8.16097C17.578 7.99473 17.5581 7.78197 17.5422 7.68857C17.5262 7.59518 17.4928 7.46211 17.3714 7.3636C17.2276 7.24694 17.0056 7.22234 16.9064 7.22408C16.455 7.23203 15.7626 7.47282 12.43 8.85893Z" fill="currentColor"></path>
  </symbol>
  <symbol xmlns="http://www.w3.org/2000/svg" viewBox="0 0 512 512" id="ic_time">
    <path d="M256,0C114.84,0,0,114.84,0,256S114.84,512,256,512,512,397.16,512,256,397.16,0,256,0ZM377.75,388.41a21.29,21.29,0,0,1-30.16,0L240.92,281.75a21.25,21.25,0,0,1-6.25-15.08V128a21.33,21.33,0,1,1,42.66,0V257.84L377.75,358.25A21.31,21.31,0,0,1,377.75,388.41Z"></path>
  </symbol>
  <symbol xmlns="http://www.w3.org/2000/svg" viewBox="0 0 12 16" id="ic_user">
    <path d="M6 0C4.34625 0 3 1.36076 3 3.04381C3 4.72686 4.34625 6.09524 6 6.09524C7.65375 6.09524 9 4.7261 9 3.04381C9 1.36076 7.65375 0 6 0Z" fill="currentColor"></path>
    <path d="M9.30975 7.84533C7.5 6.85714 4.5 6.85714 2.69025 7.84533C1.071 8.912 0 10.7352 0 12.803V14.8899C0 15.5025 0.50175 16 1.119 16H2.25V12.5409C2.25 12.3482 2.40525 12.1905 2.595 12.1905H2.655C2.84475 12.1905 3 12.3482 3 12.5409V16H9V12.5409C9 12.3482 9.15525 12.1905 9.345 12.1905H9.405C9.59475 12.1905 9.75 12.3482 9.75 12.5409V16H10.881C11.4983 16 12 15.5025 12 14.8907V12.8038C12 10.7352 10.929 8.912 9.30975 7.84533Z" fill="currentColor"></path>
  </symbol>
  <symbol fill="none" xmlns="http://www.w3.org/2000/svg" viewBox="0 0 24 24" id="ic_vkontakte">
    <path fill-rule="evenodd" clip-rule="evenodd" d="M12 24C18.6274 24 24 18.6274 24 12C24 5.37258 18.6274 0 12 0C5.37258 0 0 5.37258 0 12C0 18.6274 5.37258 24 12 24ZM20.8523 16.2993C20.8701 16.3287 20.8893 16.3655 20.9099 16.4099C20.9305 16.4541 20.9511 16.5324 20.9721 16.6444C20.9926 16.7566 20.9913 16.857 20.9676 16.9455C20.9439 17.0338 20.8703 17.1151 20.7463 17.1889C20.6226 17.2625 20.4482 17.2996 20.2241 17.2996L17.9583 17.3349C17.8165 17.3644 17.6513 17.3497 17.4628 17.2907C17.2739 17.2317 17.1205 17.1668 17.0023 17.0959L16.8254 16.9897C16.6484 16.8656 16.4419 16.677 16.2058 16.4232C15.9698 16.1695 15.7677 15.941 15.5995 15.7373C15.4313 15.5338 15.2514 15.3626 15.0596 15.2239C14.8676 15.0851 14.7009 15.0394 14.5593 15.0866C14.5416 15.0926 14.5181 15.1027 14.4888 15.1176C14.4592 15.1323 14.4088 15.1752 14.338 15.246C14.2674 15.3166 14.204 15.4037 14.1478 15.5069C14.0916 15.6103 14.0413 15.7637 13.9972 15.9672C13.953 16.1708 13.9337 16.3994 13.9397 16.6531C13.9397 16.7415 13.9295 16.8227 13.9087 16.8965C13.8883 16.9701 13.8661 17.0248 13.8424 17.06L13.8072 17.1044C13.7009 17.2164 13.5445 17.2814 13.3381 17.2992H12.3202C11.9012 17.3226 11.4704 17.274 11.0279 17.153C10.5853 17.032 10.1974 16.8757 9.8639 16.684C9.53051 16.4921 9.22666 16.2974 8.9522 16.0997C8.67781 15.902 8.46985 15.7324 8.32823 15.5907L8.10691 15.3784C8.04792 15.3194 7.96675 15.231 7.86343 15.1128C7.76022 14.9949 7.54929 14.7264 7.23062 14.3074C6.91195 13.8885 6.59921 13.443 6.29239 12.9708C5.98562 12.499 5.62415 11.8764 5.20817 11.1034C4.79219 10.3304 4.40718 9.52791 4.05314 8.69582C4.0177 8.60149 4 8.52181 4 8.45689C4 8.39195 4.00893 8.34476 4.02663 8.31522L4.06207 8.26217C4.15061 8.15004 4.31876 8.0939 4.56659 8.0939L6.99181 8.07629C7.06268 8.08804 7.13045 8.10713 7.1954 8.13376C7.26026 8.16043 7.30753 8.18544 7.33699 8.20901L7.38129 8.23564C7.47569 8.30055 7.54653 8.39489 7.59368 8.5188C7.71164 8.81385 7.84734 9.11928 8.00086 9.43503C8.15428 9.75066 8.27519 9.99117 8.3637 10.1563L8.50528 10.4131C8.67641 10.7671 8.84165 11.074 9.00091 11.3336C9.16029 11.5932 9.30339 11.7953 9.43028 11.9399C9.55717 12.0845 9.67959 12.198 9.79756 12.2807C9.91555 12.3633 10.0158 12.4047 10.0985 12.4047C10.181 12.4047 10.2608 12.3897 10.3375 12.3603C10.3492 12.3545 10.364 12.3396 10.3817 12.3161C10.3994 12.2925 10.4348 12.2276 10.488 12.1214C10.541 12.0152 10.5808 11.8765 10.6075 11.7054C10.6341 11.5343 10.662 11.2953 10.6916 10.9884C10.721 10.6816 10.721 10.3128 10.6916 9.88201C10.6798 9.64609 10.6532 9.43072 10.6119 9.23603C10.5706 9.04134 10.5293 8.90555 10.488 8.82885L10.4348 8.72255C10.2873 8.52194 10.0366 8.39505 9.68248 8.342C9.60578 8.33035 9.6206 8.25948 9.72684 8.12961C9.8271 8.01757 9.93923 7.929 10.0631 7.86417C10.3759 7.71075 11.0811 7.63988 12.1786 7.65166C12.6625 7.65761 13.0608 7.6959 13.3736 7.76667C13.4914 7.79625 13.5905 7.83606 13.6701 7.88622C13.7496 7.93644 13.8102 8.00718 13.8515 8.09864C13.8927 8.19019 13.9239 8.28462 13.9442 8.3819C13.9648 8.47931 13.9752 8.61351 13.9752 8.78464C13.9752 8.95577 13.9725 9.1181 13.9664 9.27152C13.9604 9.4248 13.9532 9.63285 13.9442 9.89543C13.9355 10.158 13.9311 10.4014 13.9311 10.6257C13.9311 10.6906 13.9283 10.8144 13.9222 10.9974C13.9162 11.1803 13.9149 11.3221 13.9177 11.4223C13.9207 11.5227 13.9311 11.642 13.9487 11.7808C13.9664 11.9195 14.0003 12.0346 14.0505 12.126C14.1006 12.2175 14.167 12.2898 14.2496 12.3429C14.297 12.3547 14.347 12.3665 14.4002 12.3783C14.4533 12.3902 14.5299 12.3577 14.6302 12.2809C14.7307 12.2041 14.8426 12.1025 14.9666 11.9756C15.0905 11.8488 15.2439 11.6511 15.4268 11.3826C15.6099 11.1141 15.8104 10.797 16.0288 10.4311C16.3829 9.81746 16.6984 9.15363 16.976 8.43963C16.9995 8.38063 17.029 8.32886 17.0642 8.28474C17.0997 8.24047 17.1321 8.2095 17.1617 8.19189L17.1969 8.16526L17.2412 8.1431L17.3563 8.11647C17.4332 8.09873 17.4921 8.09737 17.5334 8.112L20.0825 8.09439C20.3127 8.06491 20.5015 8.07223 20.6492 8.11647C20.7965 8.1608 20.888 8.20941 20.9234 8.26255L20.9761 8.35081C21.1119 8.7285 20.6693 9.5958 19.6484 10.9531C19.5068 11.1419 19.3152 11.3926 19.0731 11.7054C18.613 12.2955 18.3473 12.6818 18.2765 12.8647C18.1764 13.1068 18.2174 13.3458 18.4006 13.5818C18.5008 13.7057 18.7399 13.9478 19.1175 14.3077H19.1264L19.1353 14.3166L19.1441 14.3253L19.1617 14.343C19.9937 15.116 20.5573 15.768 20.8523 16.2993Z" fill="currentColor"></path>
  </symbol>
  <symbol xmlns="http://www.w3.org/2000/svg" viewBox="0 0 24 24" id="ic_youtube">
    <path d="M10.3635 14.3789L14.5454 12L10.3635 9.62109V14.3789Z" fill="currentColor"></path>
    <path d="M12 0C5.37258 0 0 5.37258 0 12C0 18.6274 5.37258 24 12 24C18.6274 24 24 18.6274 24 12C24 5.37258 18.6274 0 12 0ZM19.6657 15.8761C19.5753 16.2165 19.397 16.5273 19.1487 16.7772C18.9004 17.027 18.5909 17.2073 18.251 17.2999C17.0034 17.6363 12 17.6362 12 17.6362C12 17.6362 6.99656 17.6363 5.74898 17.2999C5.40912 17.2073 5.09955 17.027 4.85127 16.7772C4.60299 16.5273 4.42472 16.2165 4.3343 15.8761C4.00008 14.6203 4.00008 12 4.00008 12C4.00008 12 4.00008 9.37969 4.3343 8.12391C4.42472 7.78345 4.60299 7.47273 4.85127 7.22285C5.09955 6.97296 5.40912 6.79269 5.74898 6.70008C6.99656 6.36375 12 6.36375 12 6.36375C12 6.36375 17.0034 6.36375 18.251 6.70008C18.5909 6.79269 18.9004 6.97296 19.1487 7.22285C19.397 7.47273 19.5753 7.78345 19.6657 8.12391C19.9999 9.37969 19.9999 12 19.9999 12C19.9999 12 19.9999 14.6203 19.6657 15.8761Z" fill="currentColor"></path>
  </symbol>
</svg>