<?xml version="1.0" encoding="utf-8"?><svg viewBox="0 0 512 512" xmlns="http://www.w3.org/2000/svg" xmlns:xlink="http://www.w3.org/1999/xlink"><style>:root>svg{display:none}:root>svg:target{display:block}</style><svg viewBox="0 0 20 13" id="ic_arr_right" xmlns="http://www.w3.org/2000/svg"><path d="M19 6V5h-1v1H0v1h18v1h1V7h1V6h-1zM17 4h1v1h-1zM16 3h1v1h-1zM15 2h1v1h-1zM14 1h1v1h-1zM13 0h1v1h-1zM17 8h1v1h-1zM16 9h1v1h-1zM15 10h1v1h-1zM14 11h1v1h-1zM13 12h1v1h-1z"/></svg><svg viewBox="0 0 20 20" id="ic_buttonUp" xmlns="http://www.w3.org/2000/svg"><path d="M20 3H5V0h15z"/><path d="M20 0v15h-3V0zM15 8H0V5h15z"/><path d="M15 5v15h-3V5z"/></svg><svg viewBox="0 0 32.16 29.49" id="ic_cart" xmlns="http://www.w3.org/2000/svg"><circle cx="14.51" cy="25.85" r="2.63"/><circle cx="23.6" cy="25.85" r="2.63"/><path d="M1 1h4.74l5.29 19.25h16.48l3.65-13.54H12.93"/></svg><svg viewBox="0 0 42.5 29.49" id="ic_checkout_delivery" xmlns="http://www.w3.org/2000/svg"><path d="M29.92 5.91V2.28A2.29 2.29 0 0 0 27.64 0H2.25A2.29 2.29 0 0 0-.03 2.28v19.06a2.28 2.28 0 0 0 2.28 2.28h2a4.87 4.87 0 0 0 9.54 0h13.82a1.5 1.5 0 0 0 .37 0 4.87 4.87 0 0 0 9.55 0h3.24a1.7 1.7 0 0 0 1.7-1.7v-3.4A12.62 12.62 0 0 0 29.92 5.91zM11.73 23.62a2.86 2.86 0 0 1-5.37 0 2.74 2.74 0 0 1-.19-1 2.82 2.82 0 0 1 .19-1 2.86 2.86 0 0 1 5.37 0 2.82 2.82 0 0 1 .19 1 2.74 2.74 0 0 1-.19 1zm16.19-16v13.72a.28.28 0 0 1-.28.28H13.82a4.87 4.87 0 0 0-9.54 0h-2a.28.28 0 0 1-.28-.28V2.28A.29.29 0 0 1 2.28 2h25.36a.29.29 0 0 1 .28.28zm2 .29a10.59 10.59 0 0 1 8.33 4h-8.28zm5.56 15.72a2.86 2.86 0 0 1-5.37 0 2.74 2.74 0 0 1-.19-1 2.82 2.82 0 0 1 .19-1 2.86 2.86 0 0 1 5.37 0 3.06 3.06 0 0 1 .19 1 3 3 0 0 1-.19.99zm5-2h-2.94a4.87 4.87 0 0 0-4.77-3.87 4.78 4.78 0 0 0-2.87 1v-4.85h9.53a10.65 10.65 0 0 1 1 4.58z"/><path d="M11.25 5.08H6.79a1 1 0 0 0 0 2h4.46a1 1 0 0 0 0-2zM11.25 9.08H6.79a1 1 0 0 0 0 2h4.46a1 1 0 0 0 0-2zM41.5 27.5H1a1 1 0 0 0 0 2h40.5a1 1 0 0 0 0-2z"/></svg><svg viewBox="0 0 32.71 29.49" id="ic_checkout_payment" xmlns="http://www.w3.org/2000/svg"><path d="M28.99 0H3.71A3.72 3.72 0 0 0 0 3.72v22.07a3.71 3.71 0 0 0 3.71 3.71h25.28a3.72 3.72 0 0 0 3.72-3.71V3.72A3.73 3.73 0 0 0 28.99 0zm-11 27.5H3.71A1.72 1.72 0 0 1 2 25.79V3.72A1.72 1.72 0 0 1 3.71 2h20.28a1.71 1.71 0 0 1 1.71 1.72v5.79h-5.54a5.25 5.25 0 1 0 0 10.49h5.54v5.79a1.71 1.71 0 0 1-1.71 1.71zm7.7-9.5h-5.54a3.25 3.25 0 1 1 0-6.49h5.54zm5 7.79a1.72 1.72 0 0 1-1.72 1.71h-1.72a3.67 3.67 0 0 0 .43-1.71V3.72A3.71 3.71 0 0 0 27.25 2h1.72a1.72 1.72 0 0 1 1.72 1.72z"/><circle cx="19.85" cy="14.75" r="1"/></svg><svg viewBox="0 0 22.33 29.5" id="ic_checkout_personal" xmlns="http://www.w3.org/2000/svg"><path d="M17.33 12.77A7.87 7.87 0 0 0 11.17 0a7.86 7.86 0 0 0-6.16 12.77 11.16 11.16 0 0 0-5 9.31v5.34a2.09 2.09 0 0 0 2.08 2.09h18.17a2.09 2.09 0 0 0 2.08-2.09v-5.34a11.17 11.17 0 0 0-5.01-9.31zm-12-4.89a5.88 5.88 0 1 1 11.75 0 5.88 5.88 0 0 1-8.27 5.36 6 6 0 0 1-2-1.44 5.87 5.87 0 0 1-1.52-3.89zm15 19.54a.09.09 0 0 1-.08.09h-3.08v-7.3a1 1 0 1 0-2 0v7.3h-8v-7.3a1 1 0 1 0-2 0v7.3H2.08a.09.09 0 0 1-.08-.09v-5.34a9.17 9.17 0 0 1 4.5-7.88 7.81 7.81 0 0 0 9.34 0 9.18 9.18 0 0 1 4.49 7.88z"/></svg><svg viewBox="0 0 38.61 29.49" id="ic_compare" xmlns="http://www.w3.org/2000/svg"><path d="M19.3 18.77l7.4 8.72H11.9l7.4-8.72m0-2a2 2 0 0 0-1.52.7l-7.4 8.72a2 2 0 0 0 1.52 3.3h14.8a2 2 0 0 0 1.53-3.3l-7.4-8.72a2 2 0 0 0-1.53-.7z" fill="currentColor"/><path fill="none" stroke="currentColor" stroke-linecap="round" stroke-linejoin="round" stroke-width="2" d="M1 14.76h36.61"/><circle cx="6.24" cy="6.24" r="5.24" fill="none" stroke="currentColor" stroke-linecap="round" stroke-linejoin="round" stroke-width="2"/><circle cx="32.38" cy="6.24" r="5.24" fill="none" stroke="currentColor" stroke-linecap="round" stroke-linejoin="round" stroke-width="2"/><path fill="none" stroke="currentColor" stroke-linecap="round" stroke-linejoin="round" stroke-width="2" d="M19.31 12.49v5.26"/></svg><svg viewBox="0 0 25.13 25.96" id="ic_delete" xmlns="http://www.w3.org/2000/svg"><path fill="none" stroke="currentColor" stroke-linecap="round" stroke-linejoin="round" stroke-width="2" d="M1 5.94h23.13M11.93 1h1.27a4.21 4.21 0 0 1 4.21 4.21v0a.73.73 0 0 1-.73.73H8.45a.73.73 0 0 1-.73-.73v0A4.21 4.21 0 0 1 11.93 1z"/><rect x="3.63" y="5.94" width="17.88" height="19.02" rx="1.05" stroke-width="2" stroke="currentColor" stroke-linecap="round" stroke-linejoin="round" fill="none"/><path fill="none" stroke="currentColor" stroke-linecap="round" stroke-linejoin="round" stroke-width="2" d="M7.72 9.99v10.92"/></svg><svg viewBox="0 0 23.98 29.5" id="ic_edit_info" xmlns="http://www.w3.org/2000/svg"><path d="M21.57 0H8.17a1 1 0 0 0-.71.3L.29 7.47a1 1 0 0 0-.29.75V27.1a2.41 2.41 0 0 0 2.41 2.4h19.16a2.41 2.41 0 0 0 2.41-2.4V2.41A2.41 2.41 0 0 0 21.57 0zM8.17 2.42v5.35a.42.42 0 0 1-.41.41H2.41zM21.98 27.1a.41.41 0 0 1-.41.4H2.41a.41.41 0 0 1-.41-.4V10.18h5.76a2.41 2.41 0 0 0 2.41-2.41V2h11.4a.42.42 0 0 1 .41.41z"/><path d="M16.12 14.13H7.86a1 1 0 0 0 0 2h8.26a1 1 0 0 0 0-2zM16.12 20.07H7.86a1 1 0 0 0 0 2h8.26a1 1 0 0 0 0-2z"/></svg><svg viewBox="0 0 23.98 29.5" id="ic_edit_pass" xmlns="http://www.w3.org/2000/svg"><path d="M11.99 15.01a4.33 4.33 0 1 0 4.33 4.33 4.33 4.33 0 0 0-4.33-4.33zm0 6.66a2.33 2.33 0 1 1 2.33-2.33 2.33 2.33 0 0 1-2.33 2.33z"/><path d="M21.83 9.18H18.9v-3a6.22 6.22 0 0 0-6.21-6.21h-1.4a6.22 6.22 0 0 0-6.18 6.24v3h-3a2.15 2.15 0 0 0-2.15 2.15v16a2.14 2.14 0 0 0 2.15 2.14h19.68a2.15 2.15 0 0 0 2.15-2.14v-16a2.15 2.15 0 0 0-2.11-2.18zM7.11 6.21A4.22 4.22 0 0 1 11.32 2h1.4a4.22 4.22 0 0 1 4.21 4.21v3H7.11zm14.9 21.15a.15.15 0 0 1-.15.14H2.11a.15.15 0 0 1-.15-.14v-16a.15.15 0 0 1 .15-.15h19.68a.15.15 0 0 1 .15.15z"/></svg><svg viewBox="0 0 512 384" id="ic_email" xmlns="http://www.w3.org/2000/svg"><path d="M10.69 31.16C81 90.67 204.26 195.36 240.5 228c4.87 4.41 10.08 6.65 15.5 6.65s10.61-2.22 15.47-6.61C307.74 195.38 431 90.67 501.31 31.16a10.66 10.66 0 0 0 1.5-14.72A42.33 42.33 0 0 0 469.33 0H42.67A42.35 42.35 0 0 0 9.19 16.44a10.66 10.66 0 0 0 1.5 14.72z"/><path d="M505.81 63.41A10.6 10.6 0 0 0 494.44 65c-77.93 66-177.39 150.69-208.68 178.89-17.56 15.85-41.94 15.85-59.54 0-33.36-30.05-145-125-208.66-178.91A10.67 10.67 0 0 0 0 73.08v268.25A42.72 42.72 0 0 0 42.67 384h426.66A42.72 42.72 0 0 0 512 341.33V73.08a10.66 10.66 0 0 0-6.19-9.67z"/></svg><svg viewBox="0 0 512 512" id="ic_faq" xmlns="http://www.w3.org/2000/svg"><path d="M346 319a10 10 0 0 0-10 10v69a50.06 50.06 0 0 1-50 50H178a10 10 0 0 0-10 10v19.89L144.15 454a10 10 0 0 0-9.17-6H70a50.06 50.06 0 0 1-50-50V244a50.06 50.06 0 0 1 50-50h101a10 10 0 0 0 0-20H70a70.08 70.08 0 0 0-70 70v154a70.08 70.08 0 0 0 70 70h59.86l41.07 41.07A10 10 0 0 0 188 502v-34h98a70.08 70.08 0 0 0 70-70v-69a10 10 0 0 0-10-10z"/><path d="M366.65 0h-25.3C261.2 0 196 65.2 196 145.35s65.2 145.34 145.35 145.34h25.3a145.62 145.62 0 0 0 36.89-4.69l37.39 37.37a10 10 0 0 0 7.07 2.92 9.87 9.87 0 0 0 3.83-.76 10 10 0 0 0 6.17-9.24V258.4a146.76 146.76 0 0 0 38.21-47.1 143.81 143.81 0 0 0 15.79-66C512 65.2 446.8 0 366.65 0zM442 245.54a10 10 0 0 0-4 8v38.6l-24.47-24.45a10 10 0 0 0-10-2.49 125.27 125.27 0 0 1-36.87 5.51h-25.3a125.35 125.35 0 1 1 0-250.69h25.3A125.35 125.35 0 0 1 442 245.54z"/><path d="M399 109.42a42.43 42.43 0 0 0-39.25-39.25 42 42 0 0 0-31.87 11.28 42.48 42.48 0 0 0-13.45 31 10 10 0 1 0 20 0 22.34 22.34 0 0 1 23.97-22.33 22.34 22.34 0 0 1 3.31 44.08 18.92 18.92 0 0 0-14.91 18.55v24a10 10 0 1 0 20 0v-23.2a42.12 42.12 0 0 0 32.2-44.13zM363.87 209.26a10 10 0 1 0 2.93 7.07 10.08 10.08 0 0 0-2.93-7.07zM275 310H64a10 10 0 0 0 0 20h211a10 10 0 0 0 0-20zM282.07 368.93A10 10 0 1 0 285 376a10.08 10.08 0 0 0-2.93-7.07zM235.67 366H64a10 10 0 0 0 0 20h171.67a10 10 0 0 0 0-20zM210 254H64a10 10 0 0 0 0 20h146a10 10 0 0 0 0-20z"/></svg><svg fill="none" viewBox="0 0 24 24" id="ic_flickr" xmlns="http://www.w3.org/2000/svg"><path d="M12 0C5.373 0 0 5.373 0 12s5.373 12 12 12 12-5.373 12-12S18.627 0 12 0zM6.943 16.293c-2.184 0-3.954-1.922-3.954-4.293 0-2.371 1.77-4.293 3.954-4.293 2.183 0 3.954 1.922 3.954 4.293 0 2.371-1.77 4.293-3.954 4.293zm10-.102c-2.247 0-4.068-1.899-4.068-4.242s1.821-4.242 4.068-4.242 4.069 1.899 4.069 4.242-1.822 4.242-4.069 4.242z" fill="currentColor"/></svg><svg fill="none" viewBox="0 0 24 24" id="ic_instagram" xmlns="http://www.w3.org/2000/svg"><path d="M12 2.16c3.206 0 3.586.015 4.847.071 1.172.052 1.805.249 2.226.413a3.71 3.71 0 0 1 1.379.895c.421.422.68.82.895 1.378.164.422.36 1.06.412 2.227.057 1.265.07 1.645.07 4.847 0 3.206-.013 3.586-.07 4.846-.051 1.172-.248 1.805-.412 2.227-.216.558-.478.961-.895 1.378a3.69 3.69 0 0 1-1.379.895c-.421.165-1.059.361-2.226.413-1.266.056-1.645.07-4.847.07-3.206 0-3.586-.014-4.847-.07-1.172-.052-1.805-.248-2.226-.413a3.71 3.71 0 0 1-1.379-.895 3.691 3.691 0 0 1-.895-1.378c-.164-.422-.36-1.06-.412-2.227-.057-1.265-.07-1.645-.07-4.846 0-3.207.013-3.586.07-4.847.051-1.172.248-1.805.412-2.227.216-.558.478-.96.895-1.378.422-.422.82-.68 1.379-.895.421-.164 1.059-.361 2.226-.413 1.261-.056 1.64-.07 4.847-.07zM12 0C8.742 0 8.334.014 7.055.07 5.78.127 4.903.333 4.144.628a5.857 5.857 0 0 0-2.128 1.388A5.88 5.88 0 0 0 .628 4.139C.333 4.903.127 5.775.07 7.05.014 8.334 0 8.742 0 12s.014 3.666.07 4.945c.057 1.275.263 2.152.558 2.911.31.792.717 1.463 1.388 2.128a5.866 5.866 0 0 0 2.123 1.383c.764.296 1.636.502 2.911.558 1.28.056 1.688.07 4.945.07 3.258 0 3.666-.014 4.946-.07 1.275-.056 2.151-.262 2.91-.558a5.866 5.866 0 0 0 2.124-1.383 5.866 5.866 0 0 0 1.383-2.123c.295-.764.501-1.636.558-2.911.056-1.28.07-1.688.07-4.945 0-3.258-.014-3.666-.07-4.946-.057-1.275-.263-2.151-.558-2.91a5.62 5.62 0 0 0-1.374-2.133A5.866 5.866 0 0 0 19.861.633C19.097.338 18.225.13 16.95.075 15.666.015 15.258 0 12 0z" fill="currentColor"/><path d="M12 5.836A6.166 6.166 0 0 0 5.836 12 6.166 6.166 0 0 0 12 18.164 6.166 6.166 0 0 0 18.164 12 6.166 6.166 0 0 0 12 5.836zm0 10.162A3.999 3.999 0 1 1 12.001 8 3.999 3.999 0 0 1 12 15.998zM19.847 5.592a1.44 1.44 0 1 1-2.879 0 1.44 1.44 0 0 1 2.879 0z" fill="currentColor"/></svg><svg viewBox="0 0 390.08 512" id="ic_location" xmlns="http://www.w3.org/2000/svg"><path d="M380.59 133.09C362.56 74.8 315.14 27.37 256.85 9.33 195.16-9.78 129.52.84 79.42 37.76A195.94 195.94 0 0 0 .04 194.85a193.38 193.38 0 0 0 38.89 116.94L195.04 512l156.14-200.22c38.12-50.78 48.86-115.95 29.41-178.69zM195.04 299.88a105 105 0 1 1 105-105 105.15 105.15 0 0 1-105 105z"/><path d="M195.04 120a74.92 74.92 0 1 0 75 74.82 74.93 74.93 0 0 0-75-74.82z"/></svg><svg viewBox="0 0 37.05 29.5" id="ic_logout" xmlns="http://www.w3.org/2000/svg"><path d="M3.42 15.77H16.7a5.87 5.87 0 1 0 0-2H3.42l2.21-2.21a1.004 1.004 0 0 0-1.42-1.42L.3 14.06a.87.87 0 0 0-.22.32 1.09 1.09 0 0 0-.08.39 1 1 0 0 0 .08.38.87.87 0 0 0 .22.32l3.91 3.92a1 1 0 0 0 .71.29 1 1 0 0 0 .71-.29 1 1 0 0 0 0-1.41zm19-4.86a3.85 3.85 0 1 1-3.7 4.87h3.54a1 1 0 0 0 0-2h-3.55a3.85 3.85 0 0 1 3.71-2.87z"/><path d="M22.3 0A14.78 14.78 0 0 0 7.86 11.77h2.06a12.75 12.75 0 1 1 0 6H7.86A14.75 14.75 0 1 0 22.29 0z"/></svg><svg viewBox="0 0 17.73 18.88" id="ic_percent" xmlns="http://www.w3.org/2000/svg"><path fill="none" stroke="currentColor" stroke-linecap="round" stroke-linejoin="round" stroke-width="1.5" d="M3.56 16.87l10.63-14.9"/><path d="M3.96 1.5A2.47 2.47 0 1 1 1.5 3.96 2.46 2.46 0 0 1 3.96 1.5m0-1.5a4 4 0 1 0 4 4 4 4 0 0 0-4-4zM13.76 12.45a2.47 2.47 0 1 1-2.46 2.47 2.48 2.48 0 0 1 2.46-2.47m0-1.5a4 4 0 1 0 4 4 4 4 0 0 0-4-4z" fill="currentColor"/></svg><svg viewBox="0 0 16 16.02" id="ic_phone" xmlns="http://www.w3.org/2000/svg"><path d="M12.66 9.93a1.53 1.53 0 0 0-2.3 0l-1.03 1.06-.26-.13-.38-.22A11.73 11.73 0 0 1 5.91 8.1 6.5 6.5 0 0 1 5 6.66c.27-.25.53-.52.78-.77l.28-.29a1.55 1.55 0 0 0 0-2.34l-.92-.92-.31-.32c-.21-.21-.42-.43-.64-.63a1.58 1.58 0 0 0-1.13-.5 1.65 1.65 0 0 0-1.15.5L.75 2.64a2.48 2.48 0 0 0-.73 1.58 6.05 6.05 0 0 0 .43 2.42 14.75 14.75 0 0 0 2.59 4.31 15.8 15.8 0 0 0 5.29 4.19 8.06 8.06 0 0 0 3 .88h.22a2.55 2.55 0 0 0 1.95-.84c.18-.21.38-.4.59-.61l.44-.44a1.66 1.66 0 0 0 .51-1.17 1.63 1.63 0 0 0-.52-1.16zM8.65 3.81a4.29 4.29 0 0 1 2.34 1.22 4.35 4.35 0 0 1 1.21 2.33.45.45 0 0 0 .45.38h.07a.46.46 0 0 0 .38-.53 5.27 5.27 0 0 0-4.29-4.28.452.452 0 1 0-.16.89zM16 7.07A8.66 8.66 0 0 0 8.94.01a.47.47 0 0 0-.53.37.46.46 0 0 0 .38.53 7.75 7.75 0 0 1 6.31 6.31.45.45 0 0 0 .45.38h.07a.45.45 0 0 0 .38-.53z"/></svg><svg viewBox="0 0 192.9 192.9" id="ic_search" xmlns="http://www.w3.org/2000/svg"><path d="M190.71 180.1L143.63 133A81.29 81.29 0 1 0 133 143.63l47.08 47.08a7.5 7.5 0 0 0 10.61-10.61zM15 81.19a66.19 66.19 0 1 1 66.19 66.19A66.26 66.26 0 0 1 15 81.19z"/></svg><svg viewBox="0 0 14.87 14.14" id="ic_star" xmlns="http://www.w3.org/2000/svg"><path d="M7.43 0l2.3 4.66 5.14.74-3.72 3.63.88 5.11-4.6-2.41-4.59 2.41.88-5.11L0 5.4l5.14-.74L7.43 0z"/></svg><svg fill="none" viewBox="0 0 24 24" id="ic_telegram" xmlns="http://www.w3.org/2000/svg"><path fill-rule="evenodd" clip-rule="evenodd" d="M24 12c0 6.627-5.373 12-12 12S0 18.627 0 12 5.373 0 12 0s12 5.373 12 12zM12.43 8.859c-1.167.485-3.5 1.49-6.998 3.014-.568.226-.866.447-.893.663-.046.366.412.51 1.034.705.085.027.173.054.263.084.613.199 1.437.432 1.865.441.389.008.823-.152 1.302-.48 3.268-2.207 4.955-3.322 5.061-3.346.075-.017.179-.039.249.024.07.062.063.18.056.212-.046.193-1.84 1.862-2.77 2.726-.29.269-.495.46-.537.504-.094.097-.19.19-.282.279-.57.548-.996.96.024 1.632.49.323.882.59 1.273.856.427.291.853.581 1.405.943.14.092.274.187.405.28.497.355.944.673 1.496.623.32-.03.652-.331.82-1.23.397-2.126 1.179-6.73 1.36-8.628a2.123 2.123 0 0 0-.02-.472.506.506 0 0 0-.172-.325c-.143-.117-.365-.142-.465-.14-.451.008-1.143.249-4.476 1.635z" fill="currentColor"/></svg><svg viewBox="0 0 512 512" id="ic_time" xmlns="http://www.w3.org/2000/svg"><path d="M256 0C114.84 0 0 114.84 0 256s114.84 256 256 256 256-114.84 256-256S397.16 0 256 0zm121.75 388.41a21.29 21.29 0 0 1-30.16 0L240.92 281.75a21.25 21.25 0 0 1-6.25-15.08V128a21.33 21.33 0 1 1 42.66 0v129.84l100.42 100.41a21.31 21.31 0 0 1 0 30.16z"/></svg><svg fill="none" viewBox="0 0 12 16" id="ic_user" xmlns="http://www.w3.org/2000/svg"><g clip-path="url(#wclip0)" fill="currentColor"><path d="M6 0C4.346 0 3 1.36 3 3.044c0 1.683 1.346 3.051 3 3.051s3-1.369 3-3.051C9 1.36 7.654 0 6 0zM9.31 7.845c-1.81-.988-4.81-.988-6.62 0C1.071 8.912 0 10.735 0 12.803v2.087C0 15.502.502 16 1.119 16H2.25v-3.46c0-.192.155-.35.345-.35h.06c.19 0 .345.158.345.35V16h6v-3.46c0-.192.155-.35.345-.35h.06c.19 0 .345.158.345.35V16h1.131c.617 0 1.119-.498 1.119-1.11v-2.086c0-2.069-1.071-3.892-2.69-4.959z"/></g><defs><clipPath id="wclip0"><path fill="#fff" d="M0 0h12v16H0z"/></clipPath></defs></svg><svg fill="none" viewBox="0 0 24 24" id="ic_vkontakte" xmlns="http://www.w3.org/2000/svg"><path fill-rule="evenodd" clip-rule="evenodd" d="M12 24c6.627 0 12-5.373 12-12S18.627 0 12 0 0 5.373 0 12s5.373 12 12 12zm8.852-7.7c.018.029.037.066.058.11.02.044.041.122.062.234.02.113.02.213-.004.302-.024.088-.098.17-.222.243-.123.073-.298.11-.522.11l-2.266.036a.991.991 0 0 1-.495-.044 2.154 2.154 0 0 1-.46-.195l-.178-.106a4.16 4.16 0 0 1-.62-.567 15.728 15.728 0 0 1-.605-.686 2.936 2.936 0 0 0-.54-.513c-.192-.139-.36-.185-.5-.137a.558.558 0 0 0-.071.03 1.13 1.13 0 0 0-.341.39 1.806 1.806 0 0 0-.15.46 2.916 2.916 0 0 0-.058.686c0 .088-.01.17-.031.244a.584.584 0 0 1-.067.163l-.035.044c-.106.112-.263.177-.469.195H12.32a4.027 4.027 0 0 1-1.292-.146 4.946 4.946 0 0 1-1.164-.469 10.652 10.652 0 0 1-.912-.584 5.252 5.252 0 0 1-.624-.51l-.221-.212a5.77 5.77 0 0 1-.244-.265 19.52 19.52 0 0 1-.632-.806 22.047 22.047 0 0 1-.939-1.336 27.05 27.05 0 0 1-1.084-1.868 29.211 29.211 0 0 1-1.155-2.407.705.705 0 0 1-.053-.24c0-.064.009-.111.027-.14l.035-.054c.089-.112.257-.168.505-.168l2.425-.018a.94.94 0 0 1 .345.133l.044.027c.095.065.166.159.213.283.118.295.253.6.407.916.153.316.274.556.363.721l.141.257c.171.354.337.661.496.92.16.26.302.462.43.607.126.145.249.258.367.34.118.083.218.125.3.125a.663.663 0 0 0 .24-.045.153.153 0 0 0 .044-.044 1.44 1.44 0 0 0 .226-.61c.026-.172.054-.41.084-.718.029-.306.029-.675 0-1.106a4.113 4.113 0 0 0-.08-.646 1.695 1.695 0 0 0-.124-.407l-.053-.106c-.148-.201-.398-.328-.753-.381-.076-.012-.061-.083.045-.212.1-.112.212-.201.336-.266.313-.153 1.018-.224 2.116-.212a5.89 5.89 0 0 1 1.195.115c.117.03.216.07.296.12.08.05.14.12.181.212.042.091.073.186.093.283.02.097.031.232.031.403 0 .17-.002.333-.009.487l-.022.623a22.16 22.16 0 0 0-.013.73c0 .066-.003.19-.009.372a7.435 7.435 0 0 0-.004.425c.003.1.013.22.03.359a.972.972 0 0 0 .102.345c.05.091.117.164.2.217.047.012.097.024.15.035.053.012.13-.02.23-.097s.213-.179.337-.305a4.57 4.57 0 0 0 .46-.593c.183-.269.383-.586.602-.952.354-.614.67-1.277.947-1.991a.607.607 0 0 1 .088-.155.393.393 0 0 1 .098-.093l.035-.027.044-.022.115-.027a.33.33 0 0 1 .177-.004l2.55-.018c.23-.03.419-.022.566.022.148.045.239.093.274.147l.053.088c.136.377-.307 1.245-1.328 2.602-.141.189-.333.44-.575.752-.46.59-.726.977-.797 1.16-.1.242-.059.48.125.717.1.124.339.366.716.726h.01l.008.009.01.008.017.018c.832.773 1.395 1.425 1.69 1.956z" fill="currentColor"/></svg><svg fill="none" viewBox="0 0 24 24" id="ic_youtube" xmlns="http://www.w3.org/2000/svg"><path d="M10.364 14.379L14.544 12l-4.181-2.379v4.758z" fill="currentColor"/><path d="M12 0C5.373 0 0 5.373 0 12s5.373 12 12 12 12-5.373 12-12S18.627 0 12 0zm7.666 15.876A2.01 2.01 0 0 1 18.25 17.3c-1.248.336-6.251.336-6.251.336s-5.003 0-6.251-.336a2.011 2.011 0 0 1-1.415-1.424C4 14.62 4 12 4 12s0-2.62.334-3.876A2.01 2.01 0 0 1 5.75 6.7C6.997 6.364 12 6.364 12 6.364s5.003 0 6.251.336a2.01 2.01 0 0 1 1.415 1.424C20 9.38 20 12 20 12s0 2.62-.334 3.876z" fill="currentColor"/></svg></svg>