<?xml version="1.0" encoding="utf-8"?><svg viewBox="0 0 512 512" xmlns="http://www.w3.org/2000/svg" xmlns:xlink="http://www.w3.org/1999/xlink"><style>:root>svg{display:none}:root>svg:target{display:block}</style><svg viewBox="0 0 20 13" id="ic_arr_right" xmlns="http://www.w3.org/2000/svg"><path d="M19 6V5h-1v1H0v1h18v1h1V7h1V6h-1zM17 4h1v1h-1zM16 3h1v1h-1zM15 2h1v1h-1zM14 1h1v1h-1zM13 0h1v1h-1zM17 8h1v1h-1zM16 9h1v1h-1zM15 10h1v1h-1zM14 11h1v1h-1zM13 12h1v1h-1z"/></svg><svg viewBox="0 0 20 20" id="ic_buttonUp" xmlns="http://www.w3.org/2000/svg"><path d="M20 3H5V0h15z"/><path d="M20 0v15h-3V0zM15 8H0V5h15z"/><path d="M15 5v15h-3V5z"/></svg><svg viewBox="0 0 32.16 29.49" id="ic_cart" xmlns="http://www.w3.org/2000/svg"><circle cx="14.51" cy="25.85" r="2.63"/><circle cx="23.6" cy="25.85" r="2.63"/><path d="M1 1h4.74l5.29 19.25h16.48l3.65-13.54H12.93"/></svg><svg viewBox="0 0 42.5 29.49" id="ic_checkout_delivery" xmlns="http://www.w3.org/2000/svg"><path d="M29.92 5.91V2.28A2.29 2.29 0 0 0 27.64 0H2.25A2.29 2.29 0 0 0-.03 2.28v19.06a2.28 2.28 0 0 0 2.28 2.28h2a4.87 4.87 0 0 0 9.54 0h13.82a1.5 1.5 0 0 0 .37 0 4.87 4.87 0 0 0 9.55 0h3.24a1.7 1.7 0 0 0 1.7-1.7v-3.4A12.62 12.62 0 0 0 29.92 5.91zM11.73 23.62a2.86 2.86 0 0 1-5.37 0 2.74 2.74 0 0 1-.19-1 2.82 2.82 0 0 1 .19-1 2.86 2.86 0 0 1 5.37 0 2.82 2.82 0 0 1 .19 1 2.74 2.74 0 0 1-.19 1zm16.19-16v13.72a.28.28 0 0 1-.28.28H13.82a4.87 4.87 0 0 0-9.54 0h-2a.28.28 0 0 1-.28-.28V2.28A.29.29 0 0 1 2.28 2h25.36a.29.29 0 0 1 .28.28zm2 .29a10.59 10.59 0 0 1 8.33 4h-8.28zm5.56 15.72a2.86 2.86 0 0 1-5.37 0 2.74 2.74 0 0 1-.19-1 2.82 2.82 0 0 1 .19-1 2.86 2.86 0 0 1 5.37 0 3.06 3.06 0 0 1 .19 1 3 3 0 0 1-.19.99zm5-2h-2.94a4.87 4.87 0 0 0-4.77-3.87 4.78 4.78 0 0 0-2.87 1v-4.85h9.53a10.65 10.65 0 0 1 1 4.58z"/><path d="M11.25 5.08H6.79a1 1 0 0 0 0 2h4.46a1 1 0 0 0 0-2zM11.25 9.08H6.79a1 1 0 0 0 0 2h4.46a1 1 0 0 0 0-2zM41.5 27.5H1a1 1 0 0 0 0 2h40.5a1 1 0 0 0 0-2z"/></svg><svg viewBox="0 0 32.71 29.49" id="ic_checkout_payment" xmlns="http://www.w3.org/2000/svg"><path d="M28.99 0H3.71A3.72 3.72 0 0 0 0 3.72v22.07a3.71 3.71 0 0 0 3.71 3.71h25.28a3.72 3.72 0 0 0 3.72-3.71V3.72A3.73 3.73 0 0 0 28.99 0zm-11 27.5H3.71A1.72 1.72 0 0 1 2 25.79V3.72A1.72 1.72 0 0 1 3.71 2h20.28a1.71 1.71 0 0 1 1.71 1.72v5.79h-5.54a5.25 5.25 0 1 0 0 10.49h5.54v5.79a1.71 1.71 0 0 1-1.71 1.71zm7.7-9.5h-5.54a3.25 3.25 0 1 1 0-6.49h5.54zm5 7.79a1.72 1.72 0 0 1-1.72 1.71h-1.72a3.67 3.67 0 0 0 .43-1.71V3.72A3.71 3.71 0 0 0 27.25 2h1.72a1.72 1.72 0 0 1 1.72 1.72z"/><circle cx="19.85" cy="14.75" r="1"/></svg><svg viewBox="0 0 22.33 29.5" id="ic_checkout_personal" xmlns="http://www.w3.org/2000/svg"><path d="M17.33 12.77A7.87 7.87 0 0 0 11.17 0a7.86 7.86 0 0 0-6.16 12.77 11.16 11.16 0 0 0-5 9.31v5.34a2.09 2.09 0 0 0 2.08 2.09h18.17a2.09 2.09 0 0 0 2.08-2.09v-5.34a11.17 11.17 0 0 0-5.01-9.31zm-12-4.89a5.88 5.88 0 1 1 11.75 0 5.88 5.88 0 0 1-8.27 5.36 6 6 0 0 1-2-1.44 5.87 5.87 0 0 1-1.52-3.89zm15 19.54a.09.09 0 0 1-.08.09h-3.08v-7.3a1 1 0 1 0-2 0v7.3h-8v-7.3a1 1 0 1 0-2 0v7.3H2.08a.09.09 0 0 1-.08-.09v-5.34a9.17 9.17 0 0 1 4.5-7.88 7.81 7.81 0 0 0 9.34 0 9.18 9.18 0 0 1 4.49 7.88z"/></svg><svg viewBox="0 0 38.61 29.49" id="ic_compare" xmlns="http://www.w3.org/2000/svg"><path d="M19.3 18.77l7.4 8.72H11.9l7.4-8.72m0-2a2 2 0 0 0-1.52.7l-7.4 8.72a2 2 0 0 0 1.52 3.3h14.8a2 2 0 0 0 1.53-3.3l-7.4-8.72a2 2 0 0 0-1.53-.7z" fill="currentColor"/><path fill="none" stroke="currentColor" stroke-linecap="round" stroke-linejoin="round" stroke-width="2" d="M1 14.76h36.61"/><circle cx="6.24" cy="6.24" r="5.24" fill="none" stroke="currentColor" stroke-linecap="round" stroke-linejoin="round" stroke-width="2"/><circle cx="32.38" cy="6.24" r="5.24" fill="none" stroke="currentColor" stroke-linecap="round" stroke-linejoin="round" stroke-width="2"/><path fill="none" stroke="currentColor" stroke-linecap="round" stroke-linejoin="round" stroke-width="2" d="M19.31 12.49v5.26"/></svg><svg viewBox="0 0 25.13 25.96" id="ic_delete" xmlns="http://www.w3.org/2000/svg"><path fill="none" stroke="currentColor" stroke-linecap="round" stroke-linejoin="round" stroke-width="2" d="M1 5.94h23.13M11.93 1h1.27a4.21 4.21 0 0 1 4.21 4.21v0a.73.73 0 0 1-.73.73H8.45a.73.73 0 0 1-.73-.73v0A4.21 4.21 0 0 1 11.93 1z"/><rect x="3.63" y="5.94" width="17.88" height="19.02" rx="1.05" stroke-width="2" stroke="currentColor" stroke-linecap="round" stroke-linejoin="round" fill="none"/><path fill="none" stroke="currentColor" stroke-linecap="round" stroke-linejoin="round" stroke-width="2" d="M7.72 9.99v10.92"/></svg><svg viewBox="0 0 23.98 29.5" id="ic_edit_info" xmlns="http://www.w3.org/2000/svg"><path d="M21.57 0H8.17a1 1 0 0 0-.71.3L.29 7.47a1 1 0 0 0-.29.75V27.1a2.41 2.41 0 0 0 2.41 2.4h19.16a2.41 2.41 0 0 0 2.41-2.4V2.41A2.41 2.41 0 0 0 21.57 0zM8.17 2.42v5.35a.42.42 0 0 1-.41.41H2.41zM21.98 27.1a.41.41 0 0 1-.41.4H2.41a.41.41 0 0 1-.41-.4V10.18h5.76a2.41 2.41 0 0 0 2.41-2.41V2h11.4a.42.42 0 0 1 .41.41z"/><path d="M16.12 14.13H7.86a1 1 0 0 0 0 2h8.26a1 1 0 0 0 0-2zM16.12 20.07H7.86a1 1 0 0 0 0 2h8.26a1 1 0 0 0 0-2z"/></svg><svg viewBox="0 0 23.98 29.5" id="ic_edit_pass" xmlns="http://www.w3.org/2000/svg"><path d="M11.99 15.01a4.33 4.33 0 1 0 4.33 4.33 4.33 4.33 0 0 0-4.33-4.33zm0 6.66a2.33 2.33 0 1 1 2.33-2.33 2.33 2.33 0 0 1-2.33 2.33z"/><path d="M21.83 9.18H18.9v-3a6.22 6.22 0 0 0-6.21-6.21h-1.4a6.22 6.22 0 0 0-6.18 6.24v3h-3a2.15 2.15 0 0 0-2.15 2.15v16a2.14 2.14 0 0 0 2.15 2.14h19.68a2.15 2.15 0 0 0 2.15-2.14v-16a2.15 2.15 0 0 0-2.11-2.18zM7.11 6.21A4.22 4.22 0 0 1 11.32 2h1.4a4.22 4.22 0 0 1 4.21 4.21v3H7.11zm14.9 21.15a.15.15 0 0 1-.15.14H2.11a.15.15 0 0 1-.15-.14v-16a.15.15 0 0 1 .15-.15h19.68a.15.15 0 0 1 .15.15z"/></svg><svg viewBox="0 0 512 384" id="ic_email" xmlns="http://www.w3.org/2000/svg"><path d="M10.69 31.16C81 90.67 204.26 195.36 240.5 228c4.87 4.41 10.08 6.65 15.5 6.65s10.61-2.22 15.47-6.61C307.74 195.38 431 90.67 501.31 31.16a10.66 10.66 0 0 0 1.5-14.72A42.33 42.33 0 0 0 469.33 0H42.67A42.35 42.35 0 0 0 9.19 16.44a10.66 10.66 0 0 0 1.5 14.72z"/><path d="M505.81 63.41A10.6 10.6 0 0 0 494.44 65c-77.93 66-177.39 150.69-208.68 178.89-17.56 15.85-41.94 15.85-59.54 0-33.36-30.05-145-125-208.66-178.91A10.67 10.67 0 0 0 0 73.08v268.25A42.72 42.72 0 0 0 42.67 384h426.66A42.72 42.72 0 0 0 512 341.33V73.08a10.66 10.66 0 0 0-6.19-9.67z"/></svg><svg viewBox="0 0 512 512" id="ic_faq" xmlns="http://www.w3.org/2000/svg"><path d="M346 319a10 10 0 0 0-10 10v69a50.06 50.06 0 0 1-50 50H178a10 10 0 0 0-10 10v19.89L144.15 454a10 10 0 0 0-9.17-6H70a50.06 50.06 0 0 1-50-50V244a50.06 50.06 0 0 1 50-50h101a10 10 0 0 0 0-20H70a70.08 70.08 0 0 0-70 70v154a70.08 70.08 0 0 0 70 70h59.86l41.07 41.07A10 10 0 0 0 188 502v-34h98a70.08 70.08 0 0 0 70-70v-69a10 10 0 0 0-10-10z"/><path d="M366.65 0h-25.3C261.2 0 196 65.2 196 145.35s65.2 145.34 145.35 145.34h25.3a145.62 145.62 0 0 0 36.89-4.69l37.39 37.37a10 10 0 0 0 7.07 2.92 9.87 9.87 0 0 0 3.83-.76 10 10 0 0 0 6.17-9.24V258.4a146.76 146.76 0 0 0 38.21-47.1 143.81 143.81 0 0 0 15.79-66C512 65.2 446.8 0 366.65 0zM442 245.54a10 10 0 0 0-4 8v38.6l-24.47-24.45a10 10 0 0 0-10-2.49 125.27 125.27 0 0 1-36.87 5.51h-25.3a125.35 125.35 0 1 1 0-250.69h25.3A125.35 125.35 0 0 1 442 245.54z"/><path d="M399 109.42a42.43 42.43 0 0 0-39.25-39.25 42 42 0 0 0-31.87 11.28 42.48 42.48 0 0 0-13.45 31 10 10 0 1 0 20 0 22.34 22.34 0 0 1 23.97-22.33 22.34 22.34 0 0 1 3.31 44.08 18.92 18.92 0 0 0-14.91 18.55v24a10 10 0 1 0 20 0v-23.2a42.12 42.12 0 0 0 32.2-44.13zM363.87 209.26a10 10 0 1 0 2.93 7.07 10.08 10.08 0 0 0-2.93-7.07zM275 310H64a10 10 0 0 0 0 20h211a10 10 0 0 0 0-20zM282.07 368.93A10 10 0 1 0 285 376a10.08 10.08 0 0 0-2.93-7.07zM235.67 366H64a10 10 0 0 0 0 20h171.67a10 10 0 0 0 0-20zM210 254H64a10 10 0 0 0 0 20h146a10 10 0 0 0 0-20z"/></svg><svg viewBox="0 0 23.75 23.75" id="ic_instagram" xmlns="http://www.w3.org/2000/svg"><path d="M11.88 8.34a3.54 3.54 0 1 0 3.57 3.54 3.56 3.56 0 0 0-3.57-3.54z"/><path d="M17.77 0H5.99a6 6 0 0 0-6 5.92v11.92a6 6 0 0 0 6 5.91h11.78a6 6 0 0 0 6-5.91V5.92a6 6 0 0 0-6-5.92zm-5.89 19.24a7.37 7.37 0 1 1 7.43-7.36 7.4 7.4 0 0 1-7.43 7.36zm7.29-12.9a1.76 1.76 0 1 1 1.78-1.76 1.77 1.77 0 0 1-1.78 1.76z"/></svg><svg viewBox="0 0 390.08 512" id="ic_location" xmlns="http://www.w3.org/2000/svg"><path d="M380.59 133.09C362.56 74.8 315.14 27.37 256.85 9.33 195.16-9.78 129.52.84 79.42 37.76A195.94 195.94 0 0 0 .04 194.85a193.38 193.38 0 0 0 38.89 116.94L195.04 512l156.14-200.22c38.12-50.78 48.86-115.95 29.41-178.69zM195.04 299.88a105 105 0 1 1 105-105 105.15 105.15 0 0 1-105 105z"/><path d="M195.04 120a74.92 74.92 0 1 0 75 74.82 74.93 74.93 0 0 0-75-74.82z"/></svg><svg viewBox="0 0 37.05 29.5" id="ic_logout" xmlns="http://www.w3.org/2000/svg"><path d="M3.42 15.77H16.7a5.87 5.87 0 1 0 0-2H3.42l2.21-2.21a1.004 1.004 0 0 0-1.42-1.42L.3 14.06a.87.87 0 0 0-.22.32 1.09 1.09 0 0 0-.08.39 1 1 0 0 0 .08.38.87.87 0 0 0 .22.32l3.91 3.92a1 1 0 0 0 .71.29 1 1 0 0 0 .71-.29 1 1 0 0 0 0-1.41zm19-4.86a3.85 3.85 0 1 1-3.7 4.87h3.54a1 1 0 0 0 0-2h-3.55a3.85 3.85 0 0 1 3.71-2.87z"/><path d="M22.3 0A14.78 14.78 0 0 0 7.86 11.77h2.06a12.75 12.75 0 1 1 0 6H7.86A14.75 14.75 0 1 0 22.29 0z"/></svg><svg viewBox="0 0 17.73 18.88" id="ic_percent" xmlns="http://www.w3.org/2000/svg"><path fill="none" stroke="currentColor" stroke-linecap="round" stroke-linejoin="round" stroke-width="1.5" d="M3.56 16.87l10.63-14.9"/><path d="M3.96 1.5A2.47 2.47 0 1 1 1.5 3.96 2.46 2.46 0 0 1 3.96 1.5m0-1.5a4 4 0 1 0 4 4 4 4 0 0 0-4-4zM13.76 12.45a2.47 2.47 0 1 1-2.46 2.47 2.48 2.48 0 0 1 2.46-2.47m0-1.5a4 4 0 1 0 4 4 4 4 0 0 0-4-4z" fill="currentColor"/></svg><svg viewBox="0 0 16 16.02" id="ic_phone" xmlns="http://www.w3.org/2000/svg"><path d="M12.66 9.93a1.53 1.53 0 0 0-2.3 0l-1.03 1.06-.26-.13-.38-.22A11.73 11.73 0 0 1 5.91 8.1 6.5 6.5 0 0 1 5 6.66c.27-.25.53-.52.78-.77l.28-.29a1.55 1.55 0 0 0 0-2.34l-.92-.92-.31-.32c-.21-.21-.42-.43-.64-.63a1.58 1.58 0 0 0-1.13-.5 1.65 1.65 0 0 0-1.15.5L.75 2.64a2.48 2.48 0 0 0-.73 1.58 6.05 6.05 0 0 0 .43 2.42 14.75 14.75 0 0 0 2.59 4.31 15.8 15.8 0 0 0 5.29 4.19 8.06 8.06 0 0 0 3 .88h.22a2.55 2.55 0 0 0 1.95-.84c.18-.21.38-.4.59-.61l.44-.44a1.66 1.66 0 0 0 .51-1.17 1.63 1.63 0 0 0-.52-1.16zM8.65 3.81a4.29 4.29 0 0 1 2.34 1.22 4.35 4.35 0 0 1 1.21 2.33.45.45 0 0 0 .45.38h.07a.46.46 0 0 0 .38-.53 5.27 5.27 0 0 0-4.29-4.28.452.452 0 1 0-.16.89zM16 7.07A8.66 8.66 0 0 0 8.94.01a.47.47 0 0 0-.53.37.46.46 0 0 0 .38.53 7.75 7.75 0 0 1 6.31 6.31.45.45 0 0 0 .45.38h.07a.45.45 0 0 0 .38-.53z"/></svg><svg viewBox="0 0 192.9 192.9" id="ic_search" xmlns="http://www.w3.org/2000/svg"><path d="M190.71 180.1L143.63 133A81.29 81.29 0 1 0 133 143.63l47.08 47.08a7.5 7.5 0 0 0 10.61-10.61zM15 81.19a66.19 66.19 0 1 1 66.19 66.19A66.26 66.26 0 0 1 15 81.19z"/></svg><svg viewBox="0 0 24.07 11.16" id="ic_soc4" xmlns="http://www.w3.org/2000/svg"><path d="M18.44 0a5.58 5.58 0 1 0 5.63 5.58A5.62 5.62 0 0 0 18.44 0zM5.63 3A2.58 2.58 0 1 1 3 5.58 2.61 2.61 0 0 1 5.63 3m0-3a5.58 5.58 0 1 0 5.63 5.58A5.61 5.61 0 0 0 5.63 0z"/></svg><svg viewBox="0 0 14.87 14.14" id="ic_star" xmlns="http://www.w3.org/2000/svg"><path d="M7.43 0l2.3 4.66 5.14.74-3.72 3.63.88 5.11-4.6-2.41-4.59 2.41.88-5.11L0 5.4l5.14-.74L7.43 0z"/></svg><svg viewBox="0 0 512 512" id="ic_time" xmlns="http://www.w3.org/2000/svg"><path d="M256 0C114.84 0 0 114.84 0 256s114.84 256 256 256 256-114.84 256-256S397.16 0 256 0zm121.75 388.41a21.29 21.29 0 0 1-30.16 0L240.92 281.75a21.25 21.25 0 0 1-6.25-15.08V128a21.33 21.33 0 1 1 42.66 0v129.84l100.42 100.41a21.31 21.31 0 0 1 0 30.16z"/></svg><svg viewBox="0 0 35.48 21.27" id="ic_vkontakte" xmlns="http://www.w3.org/2000/svg"><path d="M18.95 21.22c1.18 0 1.18-1.7 1.18-2.36a2.54 2.54 0 0 1 2.36-2.36c1.18 0 3.21 2 4.72 3.54 1.18 1.18 1.18 1.18 2.37 1.18h3.54a2.39 2.39 0 0 0 2.36-2.36c0-.74-.81-2-3.54-4.72-2.36-2.37-3.57-1.15 0-5.91 2.17-2.9 3.76-5.53 3.49-6.28s-6.32-1.88-7-.8a44.65 44.65 0 0 0-3.54 5.9c-1.18 2.36-1.3 3.54-2.36 3.54s-1.18-2.29-1.18-3.54c0-3.91.56-6.67-1.18-7.09h-3.59a6.82 6.82 0 0 0-3.54 1.26s-1.47 1.14-1.18 1.18 2.36-.49 2.36 1.18v2.36s0 4.72-1.18 4.72S9.5 5.94 7.14 2.4C6.21.98 5.95 1.22 4.78 1.22s-2.36.05-3.54.05S-.09 2.02.06 2.4c2.36 5.9 4.06 9.61 8.54 14.28 4.11 4.26 6.86 4.54 9.18 4.54.57.07 0 0 1.17 0z"/></svg><svg viewBox="0 0 31.69 22.27" id="ic_youtube" xmlns="http://www.w3.org/2000/svg"><path d="M16.05 22.27c-3.56-.11-6.95-.2-10.33-.33a12.42 12.42 0 0 1-2.19-.31A3.65 3.65 0 0 1 .8 19.19a13 13 0 0 1-.62-3.26 65.83 65.83 0 0 1-.11-7.82 19 19 0 0 1 .5-4.38 4.47 4.47 0 0 1 1.21-2.31A4 4 0 0 1 4.34.33c2.67-.13 5.33-.29 8-.32 3.59 0 7.19 0 10.78.08a40.38 40.38 0 0 1 4.66.32 3.6 3.6 0 0 1 3 2.34 11.16 11.16 0 0 1 .69 3.28 62.55 62.55 0 0 1 .11 8.44 18.47 18.47 0 0 1-.54 4.25 3.93 3.93 0 0 1-3.08 3 10.47 10.47 0 0 1-1.94.21zm-3.42-7.09l8.52-4.42-8.52-4.46z"/></svg></svg>